<svg xmlns="http://www.w3.org/2000/svg" viewBox="0 0 360 360" fill="none" shape-rendering="auto" aria-hidden="true"><!-- Generated by DiceBear (https://dicebear.com) --><metadata xmlns:rdf="http://www.w3.org/1999/02/22-rdf-syntax-ns#" xmlns:xsi="http://www.w3.org/2001/XMLSchema-instance" xmlns:dc="http://purl.org/dc/elements/1.1/" xmlns:dcterms="http://purl.org/dc/terms/"><rdf:RDF><rdf:Description><dc:title>Avatar Illustration System</dc:title><dc:creator>Micah Lanier</dc:creator><dc:source xsi:type="dcterms:URI">https://www.figma.com/community/file/829741575478342595</dc:source><dcterms:license xsi:type="dcterms:URI">https://creativecommons.org/licenses/by/4.0/</dcterms:license><dc:rights>Remix of “Avatar Illustration System” (https://www.figma.com/community/file/829741575478342595) by “Micah Lanier”, licensed under “CC BY 4.0” (https://creativecommons.org/licenses/by/4.0/)</dc:rights></rdf:Description></rdf:RDF></metadata><defs><g id="head-standard-a6595c29"><path d="M140.05 297.55c-14.4-20-25.67-58.67-27-78l-68.5-29.5-28.5 107.5z" fill="#77311d" stroke="black" stroke-width="4"/><path d="M116.42 241.74q-3.15.3-6.37.3c-30.78 0-56.05-21.56-58.76-49.09l61.76 26.6c.38 5.48 1.55 13.31 3.37 22.19" fill="black" style="mix-blend-mode:multiply"/><path d="M60.1 4.1a75.7 75.7 0 0 1 91.16 55.5l.05.23.02.06.05.2.05.2 16.4 68.42.08.34.08.34v.01l.1.4.14.64a75.72 75.72 0 0 1-147.25 35.28l-.2-.72L4.06 95.16 4 94.89A75.7 75.7 0 0 1 60.09 4.1Z" fill="#77311d" stroke="black" stroke-width="4"/></g><g id="mouth-surprised-a6595c29"><path d="M49.24 56.77C61.34 54.57 68 41.4 65.66 28.55S52.5 5.68 40.4 7.87 21.63 23.25 23.96 36.1s13.16 22.87 25.28 20.67" fill="#000000"/><path d="M30 42.77c2.8-5.2 8.15-9.24 14.81-10.45s13.1.7 17.52 4.6C61.25 45.2 55.96 51.9 48.6 53.24S33.93 50.14 30 42.77" fill="#FC909F"/></g><g id="eyebrows-down-a6595c29"><path d="M9.07 29.5c6.17 2.5 21.1 3 31.5-15M76.07 7c5.17 5.33 18.1 12.8 28.5 0" stroke="#000000" stroke-width="4" stroke-linecap="round"/></g><g id="hair-turban-a6595c29"><path d="M247.73 112.8C247.73 46.7 211.27 2 166.86 2 109.96 2 52 23.34 52 124.25c0 24.97 10.66 43.58 25.56 57.29a43 43 0 0 1-3.5-4.92c-2.88-26.98 29.17-47.7 60.54-67.95 16.65-10.76 33.11-21.4 44.05-32.77 9.6 5.43 37.79 28.2 43.16 37.42 2.88 4.94 7.5 21.87 10.67 41.63 10.34-12.42 15.25-24.84 15.25-42.16Z" fill="#9287ff" stroke="black" stroke-width="4"/><path d="M179.26 75.25c13.18-11.95 32.89-39.21 31.62-56.92" stroke="black" stroke-width="4"/></g><g id="eyes-round-a6595c29"><ellipse cx="58.12" cy="36.93" rx="9" ry="10" transform="rotate(-6.78 58.12 36.93)" fill="#000000"/><ellipse cx="122.15" cy="26.92" rx="9" ry="10" transform="rotate(-6.28 122.15 26.92)" fill="#000000"/></g><g id="nose-curve-a6595c29"><path d="M6.9 4c-.34 3.83 0 12.2 4 15 5 3.5-.5 12-10.5 10" stroke="black" stroke-width="4"/></g><g id="earrings-stud-a6595c29"><circle cx="27" cy="4" r="4" fill="#ffffff"/><circle cx="28" cy="3" r="1" fill="white"/></g><g id="ears-detached-a6595c29"><path d="m36 41.54-.53.57c-3.67 3.94-8.47 6.9-13.95 6.9-3.31 0-6.43-.5-8.86-1.88a9 9 0 0 1-4.6-7.08 8 8 0 0 1 .25-3.2c-3.55-3.12-5.7-7.81-6.22-14.18-.57-6.54 1.5-11.8 5.3-15.38 3.76-3.56 9.04-5.3 14.68-5.3 4.7 0 9.23 1.25 12.97 3.54l.95.59z" stroke="black" stroke-width="4"/><path d="M22.08 4c10.5 0 20 6.78 20 17q0 1-.1 1.97C41.41 32.94 32.62 47 21.5 47c-6.32 0-10.83-1.9-11.46-7.18a5.7 5.7 0 0 1 .68-3.6c-3.7-2.65-6.1-7.04-6.65-13.72-1-12 7.5-18.5 18-18.5" fill="#77311d"/><path d="M26.5 12.5c-4-1.83-12.8-2.8-16 8" stroke="black" stroke-width="4"/><path d="M16 13c2.17 1.83 6.3 7.5 5.5 15.5" stroke="black" stroke-width="4"/><use transform="translate(0 39)" href="#earrings-stud-a6595c29"/></g><g id="clothes-open-a6595c29"><path d="M186.97 3.75c4.3-1.03 8.89-.73 13.72.7 9.73 2.87 20.14 10.25 30.3 19.73 18.61 17.37 35.7 41.14 45.36 54.68H3.44c4.52-9.2 12.95-26.42 23.94-41.82 6.2-8.67 13.13-16.65 20.54-22.27 7.42-5.61 15.12-8.73 22.95-8.04 16.48 1.44 31 11.18 45.76 20.18 14.48 8.82 29.36 17.02 45.72 13.43 5.53-1.2 9.26-3.8 11.6-7.16 2.32-3.3 3.15-7.15 3.3-10.66.14-3.52-.4-6.85-.96-9.26a40 40 0 0 0-.75-2.77c3.63-3.65 7.47-5.78 11.43-6.74Z" fill="#ffeba4" stroke="black" stroke-width="4.27"/></g><clipPath id="clip-a6595c29"><rect width="360" height="360" rx="0" ry="0"/></clipPath></defs><g clip-path="url(#clip-a6595c29)"><use transform="translate(93.95 44.95)" href="#head-standard-a6595c29"/><use transform="translate(157.13 182.89)" href="#mouth-surprised-a6595c29"/><use transform="translate(127.93 99)" href="#eyebrows-down-a6595c29"/><use transform="translate(24 -1)" href="#hair-turban-a6595c29"/><use transform="translate(100 111)" href="#eyes-round-a6595c29"/><use transform="rotate(-8 1175.7 -1254.11)" href="#nose-curve-a6595c29"/><use transform="translate(85 155)" href="#ears-detached-a6595c29"/><use transform="translate(37.02 284)" href="#clothes-open-a6595c29"/></g></svg>