<svg xmlns="http://www.w3.org/2000/svg" viewBox="0 0 360 360" fill="none" shape-rendering="auto" aria-hidden="true"><!-- Generated by DiceBear (https://dicebear.com) --><metadata xmlns:rdf="http://www.w3.org/1999/02/22-rdf-syntax-ns#" xmlns:xsi="http://www.w3.org/2001/XMLSchema-instance" xmlns:dc="http://purl.org/dc/elements/1.1/" xmlns:dcterms="http://purl.org/dc/terms/"><rdf:RDF><rdf:Description><dc:title>Avatar Illustration System</dc:title><dc:creator>Micah Lanier</dc:creator><dc:source xsi:type="dcterms:URI">https://www.figma.com/community/file/829741575478342595</dc:source><dcterms:license xsi:type="dcterms:URI">https://creativecommons.org/licenses/by/4.0/</dcterms:license><dc:rights>Remix of “Avatar Illustration System” (https://www.figma.com/community/file/829741575478342595) by “Micah Lanier”, licensed under “CC BY 4.0” (https://creativecommons.org/licenses/by/4.0/)</dc:rights></rdf:Description></rdf:RDF></metadata><defs><g id="head-standard-a8595f4f"><path d="M140.05 297.55c-14.4-20-25.67-58.67-27-78l-68.5-29.5-28.5 107.5z" fill="#ac6651" stroke="black" stroke-width="4"/><path d="M116.42 241.74q-3.15.3-6.37.3c-30.78 0-56.05-21.56-58.76-49.09l61.76 26.6c.38 5.48 1.55 13.31 3.37 22.19" fill="black" style="mix-blend-mode:multiply"/><path d="M60.1 4.1a75.7 75.7 0 0 1 91.16 55.5l.05.23.02.06.05.2.05.2 16.4 68.42.08.34.08.34v.01l.1.4.14.64a75.72 75.72 0 0 1-147.25 35.28l-.2-.72L4.06 95.16 4 94.89A75.7 75.7 0 0 1 60.09 4.1Z" fill="#ac6651" stroke="black" stroke-width="4"/></g><g id="mouth-smile-a8595f4f"><path d="M12.37 17.61c2.5 17 31 25 57 5.5" stroke="#000000" stroke-width="4"/></g><g id="eyebrows-down-a8595f4f"><path d="M9.07 29.5c6.17 2.5 21.1 3 31.5-15M76.07 7c5.17 5.33 18.1 12.8 28.5 0" stroke="#000000" stroke-width="4" stroke-linecap="round"/></g><g id="hair-fonze-a8595f4f"><path d="M214.5 12.5c20.68 8.5 25.62 25.22 20.68 48.9-1.27 6.05-4.6 11.32-9.43 15.9 9.4 34.06 9.6 53.87 4.38 57.65l-14.8-50c-31.94 18.75-91.7 21.95-106.65 21.95q-2.32.26-4.44.67c-14.63 9-2.58 52.12 11.76 70.43l-11 2c-5.2-25.25-17.7-22.87-26.93-21.33 2.76 17.15 9.21 35.04 13.1 47.73-7.5 1-6.5 10-35.5-61.5-6.46-15.95-6.02-30.15-.96-42.61-4.78-4.8-14.37-7.15-19.71-7.8 10.44-6.13 20.58-4.88 25.54-3.1q.75-1.13 1.56-2.22c-.97-4.43-7.96-9.48-12.11-11.84 8.56-4.3 18.62-2.03 23-.2C92.6 59.12 122 47.04 146.98 40.98c48.82-11.83 67.5-28.5 67.5-28.5Z" fill="#fc909f" stroke="black" stroke-width="4"/></g><g id="glasses-square-a8595f4f"><path d="M36.5 42.5 2 49.13" stroke="#ffffff" stroke-width="4" stroke-linecap="round"/><path d="M37.47 18.53 76.2 13.1a6 6 0 0 1 6.77 5.1l5.57 39.62a6 6 0 0 1-5.1 6.78l-34.48 4.84a6 6 0 0 1-6.65-4.48l-9.81-39a6 6 0 0 1 4.98-7.4ZM147.92 3.22 109.2 8.66a6 6 0 0 0-5.1 6.78l5.56 39.6a6 6 0 0 0 6.78 5.11l34.47-4.84a6 6 0 0 0 5.16-6.14l-1.32-40.2a6 6 0 0 0-6.83-5.75ZM85.5 37.13l22-3.5" stroke="#ffffff" stroke-width="4"/></g><g id="eyes-eyes-a8595f4f"><ellipse cx="58.53" cy="37.4" rx="9" ry="13.5" transform="rotate(-6.78 58.53 37.4)" fill="#000000"/><ellipse cx="122.53" cy="27.4" rx="9" ry="13.5" transform="rotate(-6.28 122.53 27.4)" fill="#000000"/><use href="#glasses-square-a8595f4f"/></g><g id="nose-tound-a8595f4f"><path d="M2.7 9.34c5.45-1.24 14.38.62 12.42 10.54C13.37 28.7 4 29.18 1.4 26.7" stroke="black" stroke-width="4"/></g><g id="ears-attached-a8595f4f"><path d="M29.5 5.18A24 24 0 0 0 22.08 4c-10.5 0-19 6.5-18 18.5 1.04 12.5 8.5 17 19 17A20 20 0 0 0 30 38.23" stroke="black" stroke-width="8"/><path d="M30.5 38.04a19 19 0 0 1-7.42 1.46c-10.5 0-17.96-4.5-19-17-1-12 7.5-18.5 18-18.5 3.14 0 6.19.6 8.92 1.73z" fill="#ac6651"/><path d="M26.5 12.5c-4-1.83-12.8-2.8-16 8" stroke="black" stroke-width="4"/><path d="M16 13c2.17 1.83 6.3 7.5 5.5 15.5" stroke="black" stroke-width="4"/></g><g id="clothes-open-a8595f4f"><path d="M186.97 3.75c4.3-1.03 8.89-.73 13.72.7 9.73 2.87 20.14 10.25 30.3 19.73 18.61 17.37 35.7 41.14 45.36 54.68H3.44c4.52-9.2 12.95-26.42 23.94-41.82 6.2-8.67 13.13-16.65 20.54-22.27 7.42-5.61 15.12-8.73 22.95-8.04 16.48 1.44 31 11.18 45.76 20.18 14.48 8.82 29.36 17.02 45.72 13.43 5.53-1.2 9.26-3.8 11.6-7.16 2.32-3.3 3.15-7.15 3.3-10.66.14-3.52-.4-6.85-.96-9.26a40 40 0 0 0-.75-2.77c3.63-3.65 7.47-5.78 11.43-6.74Z" fill="#77311d" stroke="black" stroke-width="4.27"/></g><clipPath id="clip-a8595f4f"><rect width="360" height="360" rx="0" ry="0"/></clipPath></defs><g clip-path="url(#clip-a8595f4f)"><use transform="translate(93.95 44.95)" href="#head-standard-a8595f4f"/><use transform="translate(157.13 182.89)" href="#mouth-smile-a8595f4f"/><use transform="translate(127.93 99)" href="#eyebrows-down-a8595f4f"/><use transform="translate(24 -1)" href="#hair-fonze-a8595f4f"/><use transform="translate(100 111)" href="#eyes-eyes-a8595f4f"/><use transform="rotate(-8 1175.7 -1254.11)" href="#nose-tound-a8595f4f"/><use transform="translate(85 155)" href="#ears-attached-a8595f4f"/><use transform="translate(37.02 284)" href="#clothes-open-a8595f4f"/></g></svg>