<svg xmlns="http://www.w3.org/2000/svg" viewBox="0 0 360 360" fill="none" shape-rendering="auto" aria-hidden="true"><!-- Generated by DiceBear (https://dicebear.com) --><metadata xmlns:rdf="http://www.w3.org/1999/02/22-rdf-syntax-ns#" xmlns:xsi="http://www.w3.org/2001/XMLSchema-instance" xmlns:dc="http://purl.org/dc/elements/1.1/" xmlns:dcterms="http://purl.org/dc/terms/"><rdf:RDF><rdf:Description><dc:title>Avatar Illustration System</dc:title><dc:creator>Micah Lanier</dc:creator><dc:source xsi:type="dcterms:URI">https://www.figma.com/community/file/829741575478342595</dc:source><dcterms:license xsi:type="dcterms:URI">https://creativecommons.org/licenses/by/4.0/</dcterms:license><dc:rights>Remix of “Avatar Illustration System” (https://www.figma.com/community/file/829741575478342595) by “Micah Lanier”, licensed under “CC BY 4.0” (https://creativecommons.org/licenses/by/4.0/)</dc:rights></rdf:Description></rdf:RDF></metadata><defs><g id="head-standard-aa5ba10c"><path d="M140.05 297.55c-14.4-20-25.67-58.67-27-78l-68.5-29.5-28.5 107.5z" fill="#ac6651" stroke="black" stroke-width="4"/><path d="M116.42 241.74q-3.15.3-6.37.3c-30.78 0-56.05-21.56-58.76-49.09l61.76 26.6c.38 5.48 1.55 13.31 3.37 22.19" fill="black" style="mix-blend-mode:multiply"/><path d="M60.1 4.1a75.7 75.7 0 0 1 91.16 55.5l.05.23.02.06.05.2.05.2 16.4 68.42.08.34.08.34v.01l.1.4.14.64a75.72 75.72 0 0 1-147.25 35.28l-.2-.72L4.06 95.16 4 94.89A75.7 75.7 0 0 1 60.09 4.1Z" fill="#ac6651" stroke="black" stroke-width="4"/></g><g id="mouth-pucker-aa5ba10c"><path d="M38.87 16.8c4.16-2.32 21-5.3 21 1.5 0 8.5-11.5 8-11.5 8s13.04-3.15 10.5 6c-2.5 9-9.5 5.5-11.5 4.5" stroke="#000000" stroke-width="4"/></g><g id="eyebrows-eyelashesUp-aa5ba10c"><path d="M81.07 13.21c5.67-2.66 19-5.1 27 6.5M5.65 38.52c2.07-5.9 9.7-17.12 23.57-14.7M8.15 32.46 2 27.03m103.04-12.87 6.14-5.43M14.6 26.81l-4.05-7.13m87.04-9.17 4.04-7.13M22.67 23.2l-2.2-7.9m68.04-5.4 2.2-7.9" stroke="#000000" stroke-width="4" stroke-linecap="round"/></g><g id="hair-pixie-aa5ba10c"><path d="m130.84 100.82 1.88.3v.08l-.04.16-.12.52q-.17.68-.6 1.9a42 42 0 0 1-3.4 6.92c-3.17 5.32-8.7 12.66-18.32 21.59 29.98.75 55-8.9 72.83-19.03a156 156 0 0 0 21.71-14.87 119 119 0 0 0 7.15-6.35l.35-.35.1-.13.02-.03 2.28-2.37.92 3.16-1.83.54 1.84-.54.05.18.15.52.58 2a1971 1971 0 0 1 8.73 31.05c5.03 18.35 10.6 39.8 12.7 51.97 4.17 24.27-4.35 41.56-6.64 49.47l.21.16q.9.65 3.18 1.4c3.02.96 7.32 1.74 11.92 2.19s9.38.53 13.34.14q3-.3 5.08-.92a7 7 0 0 0 2.58-1.27q.04-.12-.02-.68-.14-1.16-.93-3.32c-1.07-2.88-2.81-6.64-4.8-11.18-3.94-8.94-8.66-20.56-9.7-32.4-1.17-13.37 1.54-24.78 3.9-35.02 2.39-10.34 4.38-19.32 2.34-28.42-3.1-13.8-7.32-25.3-13.8-33.57-6.42-8.17-15.13-13.27-27.5-14.21l-1.28-.1-.4-1.22c-5.7-17.57-13.38-29.05-23.18-36.17-9.8-7.11-21.96-10.05-36.94-10.05-27.7 0-57.5 10.52-79.88 28.72-22.35 18.18-37.14 43.9-35.2 74.33 2.13 33.6-.3 59.06-5.8 77.72-5 17-12.6 28.46-21.68 35.14q1.79.92 4.77 2.26c5.02 2.24 12.59 5.2 22.67 8.03 19.34 5.43 47.95 10.38 85.7 8.89-8.31-7.15-16.71-15.83-23.36-25-7.63-10.53-13.14-21.94-13.3-32.58-.2-12.62.67-45.67.93-52.5.62-15.9 10.82-28.15 20.54-36.3a97 97 0 0 1 19.4-12.52h.04l.01-.01zm0 0-.79-1.74 3.23-1.46-.56 3.5z" fill="#9287ff" stroke="black" stroke-width="3.82"/><path d="M216 70c.5 4.5-.3 13.5-1.5 19.5" stroke="black" stroke-width="4"/></g><g id="glasses-square-aa5ba10c"><path d="M36.5 42.5 2 49.13" stroke="#ffedef" stroke-width="4" stroke-linecap="round"/><path d="M37.47 18.53 76.2 13.1a6 6 0 0 1 6.77 5.1l5.57 39.62a6 6 0 0 1-5.1 6.78l-34.48 4.84a6 6 0 0 1-6.65-4.48l-9.81-39a6 6 0 0 1 4.98-7.4ZM147.92 3.22 109.2 8.66a6 6 0 0 0-5.1 6.78l5.56 39.6a6 6 0 0 0 6.78 5.11l34.47-4.84a6 6 0 0 0 5.16-6.14l-1.32-40.2a6 6 0 0 0-6.83-5.75ZM85.5 37.13l22-3.5" stroke="#ffedef" stroke-width="4"/></g><g id="eyes-eyes-aa5ba10c"><ellipse cx="58.53" cy="37.4" rx="9" ry="13.5" transform="rotate(-6.78 58.53 37.4)" fill="#000000"/><ellipse cx="122.53" cy="27.4" rx="9" ry="13.5" transform="rotate(-6.28 122.53 27.4)" fill="#000000"/><use href="#glasses-square-aa5ba10c"/></g><g id="nose-tound-aa5ba10c"><path d="M2.7 9.34c5.45-1.24 14.38.62 12.42 10.54C13.37 28.7 4 29.18 1.4 26.7" stroke="black" stroke-width="4"/></g><g id="ears-detached-aa5ba10c"><path d="m36 41.54-.53.57c-3.67 3.94-8.47 6.9-13.95 6.9-3.31 0-6.43-.5-8.86-1.88a9 9 0 0 1-4.6-7.08 8 8 0 0 1 .25-3.2c-3.55-3.12-5.7-7.81-6.22-14.18-.57-6.54 1.5-11.8 5.3-15.38 3.76-3.56 9.04-5.3 14.68-5.3 4.7 0 9.23 1.25 12.97 3.54l.95.59z" stroke="black" stroke-width="4"/><path d="M22.08 4c10.5 0 20 6.78 20 17q0 1-.1 1.97C41.41 32.94 32.62 47 21.5 47c-6.32 0-10.83-1.9-11.46-7.18a5.7 5.7 0 0 1 .68-3.6c-3.7-2.65-6.1-7.04-6.65-13.72-1-12 7.5-18.5 18-18.5" fill="#ac6651"/><path d="M26.5 12.5c-4-1.83-12.8-2.8-16 8" stroke="black" stroke-width="4"/><path d="M16 13c2.17 1.83 6.3 7.5 5.5 15.5" stroke="black" stroke-width="4"/></g><g id="clothes-collared-aa5ba10c"><path d="M80.43 22.41q2.4-.55 6.5.38c2.7.63 5.77 1.73 9.08 3.19 6.63 2.9 14.02 7.16 20.98 11.56a355 355 0 0 1 25.2 17.63l.4.3.1.08v.02l1.71 1.35 1.18-1.83.01-.02.05-.06.18-.26.67-.98A112 112 0 0 1 158 39.72c3.67-3.77 7.83-7.4 12.13-9.93 4.32-2.53 8.58-3.84 12.53-3.3C225.16 32.2 256.38 51 276.65 79H3.35c16.3-29.34 39.5-48.02 77.08-56.59Z" fill="#ffedef" stroke="black" stroke-width="4"/><path d="m68.6 25.08 5.16-19.23c.2-.78 1.22-1 1.76-.4 14.87 16.26 33.62 15.63 39.85 14.88.84-.1 1.5.82 1.1 1.58l-13.15 25a.9.9 0 0 1-1.04.5c-3.95-.8-23.62-5.6-33.57-21.5a1 1 0 0 1-.11-.74Zm130.58-.1L187.6 5.5c-.4-.66-1.36-.65-1.78 0-5.74 8.83-15.63 12.9-19.1 14.1-.62.22-.9.96-.57 1.53l13.5 22.81c.2.34.59.53.97.42 2.13-.61 9.46-3.67 18.54-18.34.2-.31.2-.72.02-1.04Z" fill="#ffedef" stroke="black" stroke-width="4"/><path d="m68.6 25.08 5.16-19.23c.2-.78 1.22-1 1.76-.4 14.87 16.26 33.62 15.63 39.85 14.88.84-.1 1.5.82 1.1 1.58l-13.15 25a.9.9 0 0 1-1.04.5c-3.95-.8-23.62-5.6-33.57-21.5a1 1 0 0 1-.11-.74Zm130.58-.1L187.6 5.5c-.4-.66-1.36-.65-1.78 0-5.74 8.83-15.63 12.9-19.1 14.1-.62.22-.9.96-.57 1.53l13.5 22.81c.2.34.59.53.97.42 2.13-.61 9.46-3.67 18.54-18.34.2-.31.2-.72.02-1.04Z" fill="white" fill-opacity=".75" stroke="black" stroke-width="4"/><path d="m125.48 42.5-9-21.5-7 15zm31.5-1 9-21.5 7 15zM86.48 2l-12 3 10 6.5zm89.5 0 11 3-7 6.5z" fill="black" stroke="black" stroke-width="4" stroke-linejoin="round"/></g><clipPath id="clip-aa5ba10c"><rect width="360" height="360" rx="0" ry="0"/></clipPath></defs><g clip-path="url(#clip-aa5ba10c)"><use transform="translate(93.95 44.95)" href="#head-standard-aa5ba10c"/><use transform="translate(157.13 182.89)" href="#mouth-pucker-aa5ba10c"/><use transform="translate(127.93 99)" href="#eyebrows-eyelashesUp-aa5ba10c"/><use transform="translate(24 -1)" href="#hair-pixie-aa5ba10c"/><use transform="translate(100 111)" href="#eyes-eyes-aa5ba10c"/><use transform="rotate(-8 1175.7 -1254.11)" href="#nose-tound-aa5ba10c"/><use transform="translate(85 155)" href="#ears-detached-aa5ba10c"/><use transform="translate(37.02 284)" href="#clothes-collared-aa5ba10c"/></g></svg>