<svg xmlns="http://www.w3.org/2000/svg" viewBox="0 0 360 360" fill="none" shape-rendering="auto" aria-hidden="true"><!-- Generated by DiceBear (https://dicebear.com) --><metadata xmlns:rdf="http://www.w3.org/1999/02/22-rdf-syntax-ns#" xmlns:xsi="http://www.w3.org/2001/XMLSchema-instance" xmlns:dc="http://purl.org/dc/elements/1.1/" xmlns:dcterms="http://purl.org/dc/terms/"><rdf:RDF><rdf:Description><dc:title>Avatar Illustration System</dc:title><dc:creator>Micah Lanier</dc:creator><dc:source xsi:type="dcterms:URI">https://www.figma.com/community/file/829741575478342595</dc:source><dcterms:license xsi:type="dcterms:URI">https://creativecommons.org/licenses/by/4.0/</dcterms:license><dc:rights>Remix of “Avatar Illustration System” (https://www.figma.com/community/file/829741575478342595) by “Micah Lanier”, licensed under “CC BY 4.0” (https://creativecommons.org/licenses/by/4.0/)</dc:rights></rdf:Description></rdf:RDF></metadata><defs><g id="head-standard-b45bb0ca"><path d="M140.05 297.55c-14.4-20-25.67-58.67-27-78l-68.5-29.5-28.5 107.5z" fill="#f9c9b6" stroke="black" stroke-width="4"/><path d="M116.42 241.74q-3.15.3-6.37.3c-30.78 0-56.05-21.56-58.76-49.09l61.76 26.6c.38 5.48 1.55 13.31 3.37 22.19" fill="black" style="mix-blend-mode:multiply"/><path d="M60.1 4.1a75.7 75.7 0 0 1 91.16 55.5l.05.23.02.06.05.2.05.2 16.4 68.42.08.34.08.34v.01l.1.4.14.64a75.72 75.72 0 0 1-147.25 35.28l-.2-.72L4.06 95.16 4 94.89A75.7 75.7 0 0 1 60.09 4.1Z" fill="#f9c9b6" stroke="black" stroke-width="4"/></g><g id="mouth-smile-b45bb0ca"><path d="M12.37 17.61c2.5 17 31 25 57 5.5" stroke="#000000" stroke-width="4"/></g><g id="eyebrows-eyelashesUp-b45bb0ca"><path d="M81.07 13.21c5.67-2.66 19-5.1 27 6.5M5.65 38.52c2.07-5.9 9.7-17.12 23.57-14.7M8.15 32.46 2 27.03m103.04-12.87 6.14-5.43M14.6 26.81l-4.05-7.13m87.04-9.17 4.04-7.13M22.67 23.2l-2.2-7.9m68.04-5.4 2.2-7.9" stroke="#000000" stroke-width="4" stroke-linecap="round"/></g><g id="hair-fonze-b45bb0ca"><path d="M214.5 12.5c20.68 8.5 25.62 25.22 20.68 48.9-1.27 6.05-4.6 11.32-9.43 15.9 9.4 34.06 9.6 53.87 4.38 57.65l-14.8-50c-31.94 18.75-91.7 21.95-106.65 21.95q-2.32.26-4.44.67c-14.63 9-2.58 52.12 11.76 70.43l-11 2c-5.2-25.25-17.7-22.87-26.93-21.33 2.76 17.15 9.21 35.04 13.1 47.73-7.5 1-6.5 10-35.5-61.5-6.46-15.95-6.02-30.15-.96-42.61-4.78-4.8-14.37-7.15-19.71-7.8 10.44-6.13 20.58-4.88 25.54-3.1q.75-1.13 1.56-2.22c-.97-4.43-7.96-9.48-12.11-11.84 8.56-4.3 18.62-2.03 23-.2C92.6 59.12 122 47.04 146.98 40.98c48.82-11.83 67.5-28.5 67.5-28.5Z" fill="#fc909f" stroke="black" stroke-width="4"/></g><g id="glasses-square-b45bb0ca"><path d="M36.5 42.5 2 49.13" stroke="#000000" stroke-width="4" stroke-linecap="round"/><path d="M37.47 18.53 76.2 13.1a6 6 0 0 1 6.77 5.1l5.57 39.62a6 6 0 0 1-5.1 6.78l-34.48 4.84a6 6 0 0 1-6.65-4.48l-9.81-39a6 6 0 0 1 4.98-7.4ZM147.92 3.22 109.2 8.66a6 6 0 0 0-5.1 6.78l5.56 39.6a6 6 0 0 0 6.78 5.11l34.47-4.84a6 6 0 0 0 5.16-6.14l-1.32-40.2a6 6 0 0 0-6.83-5.75ZM85.5 37.13l22-3.5" stroke="#000000" stroke-width="4"/></g><g id="eyes-smiling-b45bb0ca"><path d="M56.73 29.8c5.11-.6 9.81 2.45 11.48 7.1.26.73-.48 1.37-1.23 1.17a20 20 0 0 0-7.32-.48c-4.4.53-8.2 2.37-10.65 4.89-.58.6-1.6.4-1.72-.4l-.03-.24a10.83 10.83 0 0 1 9.47-12.04m64.02-9.86c5.05-.6 9.7 2.41 11.36 7 .26.74-.48 1.38-1.23 1.18-2.2-.58-4.67-.77-7.23-.47-4.35.52-8.1 2.35-10.54 4.83-.58.6-1.6.4-1.72-.4l-.03-.22a10.73 10.73 0 0 1 9.4-11.92" fill="#000000"/><use href="#glasses-square-b45bb0ca"/></g><g id="nose-pointed-b45bb0ca"><path d="M6.9 0c0 14 7 25 7 25s-3.5 6-13.5 4" stroke="black" stroke-width="4"/></g><g id="earrings-stud-b45bb0ca"><circle cx="27" cy="4" r="4" fill="#77311d"/><circle cx="28" cy="3" r="1" fill="white"/></g><g id="ears-detached-b45bb0ca"><path d="m36 41.54-.53.57c-3.67 3.94-8.47 6.9-13.95 6.9-3.31 0-6.43-.5-8.86-1.88a9 9 0 0 1-4.6-7.08 8 8 0 0 1 .25-3.2c-3.55-3.12-5.7-7.81-6.22-14.18-.57-6.54 1.5-11.8 5.3-15.38 3.76-3.56 9.04-5.3 14.68-5.3 4.7 0 9.23 1.25 12.97 3.54l.95.59z" stroke="black" stroke-width="4"/><path d="M22.08 4c10.5 0 20 6.78 20 17q0 1-.1 1.97C41.41 32.94 32.62 47 21.5 47c-6.32 0-10.83-1.9-11.46-7.18a5.7 5.7 0 0 1 .68-3.6c-3.7-2.65-6.1-7.04-6.65-13.72-1-12 7.5-18.5 18-18.5" fill="#f9c9b6"/><path d="M26.5 12.5c-4-1.83-12.8-2.8-16 8" stroke="black" stroke-width="4"/><path d="M16 13c2.17 1.83 6.3 7.5 5.5 15.5" stroke="black" stroke-width="4"/><use transform="translate(0 39)" href="#earrings-stud-b45bb0ca"/></g><g id="clothes-collared-b45bb0ca"><path d="M80.43 22.41q2.4-.55 6.5.38c2.7.63 5.77 1.73 9.08 3.19 6.63 2.9 14.02 7.16 20.98 11.56a355 355 0 0 1 25.2 17.63l.4.3.1.08v.02l1.71 1.35 1.18-1.83.01-.02.05-.06.18-.26.67-.98A112 112 0 0 1 158 39.72c3.67-3.77 7.83-7.4 12.13-9.93 4.32-2.53 8.58-3.84 12.53-3.3C225.16 32.2 256.38 51 276.65 79H3.35c16.3-29.34 39.5-48.02 77.08-56.59Z" fill="#000000" stroke="black" stroke-width="4"/><path d="m68.6 25.08 5.16-19.23c.2-.78 1.22-1 1.76-.4 14.87 16.26 33.62 15.63 39.85 14.88.84-.1 1.5.82 1.1 1.58l-13.15 25a.9.9 0 0 1-1.04.5c-3.95-.8-23.62-5.6-33.57-21.5a1 1 0 0 1-.11-.74Zm130.58-.1L187.6 5.5c-.4-.66-1.36-.65-1.78 0-5.74 8.83-15.63 12.9-19.1 14.1-.62.22-.9.96-.57 1.53l13.5 22.81c.2.34.59.53.97.42 2.13-.61 9.46-3.67 18.54-18.34.2-.31.2-.72.02-1.04Z" fill="#000000" stroke="black" stroke-width="4"/><path d="m68.6 25.08 5.16-19.23c.2-.78 1.22-1 1.76-.4 14.87 16.26 33.62 15.63 39.85 14.88.84-.1 1.5.82 1.1 1.58l-13.15 25a.9.9 0 0 1-1.04.5c-3.95-.8-23.62-5.6-33.57-21.5a1 1 0 0 1-.11-.74Zm130.58-.1L187.6 5.5c-.4-.66-1.36-.65-1.78 0-5.74 8.83-15.63 12.9-19.1 14.1-.62.22-.9.96-.57 1.53l13.5 22.81c.2.34.59.53.97.42 2.13-.61 9.46-3.67 18.54-18.34.2-.31.2-.72.02-1.04Z" fill="white" fill-opacity=".75" stroke="black" stroke-width="4"/><path d="m125.48 42.5-9-21.5-7 15zm31.5-1 9-21.5 7 15zM86.48 2l-12 3 10 6.5zm89.5 0 11 3-7 6.5z" fill="black" stroke="black" stroke-width="4" stroke-linejoin="round"/></g><clipPath id="clip-b45bb0ca"><rect width="360" height="360" rx="0" ry="0"/></clipPath></defs><g clip-path="url(#clip-b45bb0ca)"><use transform="translate(93.95 44.95)" href="#head-standard-b45bb0ca"/><use transform="translate(157.13 182.89)" href="#mouth-smile-b45bb0ca"/><use transform="translate(127.93 99)" href="#eyebrows-eyelashesUp-b45bb0ca"/><use transform="translate(24 -1)" href="#hair-fonze-b45bb0ca"/><use transform="translate(100 111)" href="#eyes-smiling-b45bb0ca"/><use transform="rotate(-8 1175.7 -1254.11)" href="#nose-pointed-b45bb0ca"/><use transform="translate(85 155)" href="#ears-detached-b45bb0ca"/><use transform="translate(37.02 284)" href="#clothes-collared-b45bb0ca"/></g></svg>