<svg xmlns="http://www.w3.org/2000/svg" viewBox="0 0 360 360" fill="none" shape-rendering="auto" aria-hidden="true"><!-- Generated by DiceBear (https://dicebear.com) --><metadata xmlns:rdf="http://www.w3.org/1999/02/22-rdf-syntax-ns#" xmlns:xsi="http://www.w3.org/2001/XMLSchema-instance" xmlns:dc="http://purl.org/dc/elements/1.1/" xmlns:dcterms="http://purl.org/dc/terms/"><rdf:RDF><rdf:Description><dc:title>Avatar Illustration System</dc:title><dc:creator>Micah Lanier</dc:creator><dc:source xsi:type="dcterms:URI">https://www.figma.com/community/file/829741575478342595</dc:source><dcterms:license xsi:type="dcterms:URI">https://creativecommons.org/licenses/by/4.0/</dcterms:license><dc:rights>Remix of “Avatar Illustration System” (https://www.figma.com/community/file/829741575478342595) by “Micah Lanier”, licensed under “CC BY 4.0” (https://creativecommons.org/licenses/by/4.0/)</dc:rights></rdf:Description></rdf:RDF></metadata><defs><g id="head-standard-ac5ba432"><path d="M140.05 297.55c-14.4-20-25.67-58.67-27-78l-68.5-29.5-28.5 107.5z" fill="#ac6651" stroke="black" stroke-width="4"/><path d="M116.42 241.74q-3.15.3-6.37.3c-30.78 0-56.05-21.56-58.76-49.09l61.76 26.6c.38 5.48 1.55 13.31 3.37 22.19" fill="black" style="mix-blend-mode:multiply"/><path d="M60.1 4.1a75.7 75.7 0 0 1 91.16 55.5l.05.23.02.06.05.2.05.2 16.4 68.42.08.34.08.34v.01l.1.4.14.64a75.72 75.72 0 0 1-147.25 35.28l-.2-.72L4.06 95.16 4 94.89A75.7 75.7 0 0 1 60.09 4.1Z" fill="#ac6651" stroke="black" stroke-width="4"/></g><g id="mouth-surprised-ac5ba432"><path d="M49.24 56.77C61.34 54.57 68 41.4 65.66 28.55S52.5 5.68 40.4 7.87 21.63 23.25 23.96 36.1s13.16 22.87 25.28 20.67" fill="#000000"/><path d="M30 42.77c2.8-5.2 8.15-9.24 14.81-10.45s13.1.7 17.52 4.6C61.25 45.2 55.96 51.9 48.6 53.24S33.93 50.14 30 42.77" fill="#FC909F"/></g><g id="eyebrows-eyelashesUp-ac5ba432"><path d="M81.07 13.21c5.67-2.66 19-5.1 27 6.5M5.65 38.52c2.07-5.9 9.7-17.12 23.57-14.7M8.15 32.46 2 27.03m103.04-12.87 6.14-5.43M14.6 26.81l-4.05-7.13m87.04-9.17 4.04-7.13M22.67 23.2l-2.2-7.9m68.04-5.4 2.2-7.9" stroke="#000000" stroke-width="4" stroke-linecap="round"/></g><g id="hair-dannyPhantom-ac5ba432"><path d="M102.33 37.2c18.37-7.45 36.61-8.76 46.46-7.71h.15a96.8 96.8 0 0 1 62.07 24.33c14.06 12.4 22.45 26.87 25.19 36.73-4.06 2.32-11.02 4.31-19.89 5.95-9.67 1.78-21.29 3.09-33.14 4.01-23.7 1.86-48.2 2.2-59.63 1.96l-6.07-.13 4.8 3.71c2.5 1.93 5.83 3.28 9.35 4.22 3.54.95 7.41 1.53 11.13 1.87 3.82.34 7.55.42 10.63.34-10.58 8.15-24.06 14.43-37.34 19.08a226 226 0 0 1-39.83 9.92l-2.15.32.5 2.1c4.82 20.84 15.5 64.17 17.5 72.52 1.08 4.56 4.5 11.05 8.4 17.03 3.6 5.52 7.77 10.89 11.31 14.2l-7.84 31.8H74.37c8.34-12.7 10.1-27.4 8.4-42.97-1.84-16.87-7.76-35-14-53.17-6.28-18.25-12.87-36.53-16.28-53.97-3.4-17.42-3.55-33.73 2.84-48.07 10.34-23.22 28.66-36.71 47-44.13Z" fill="#6bd9e9" stroke="black" stroke-width="4"/></g><g id="eyes-eyesShadow-ac5ba432"><circle cx="57.24" cy="28.24" r="12" transform="rotate(-6.28 57.24 28.24)" fill="#ffffff"/><ellipse cx="58.53" cy="37.4" rx="9" ry="13.5" transform="rotate(-6.78 58.53 37.4)" fill="#000000"/><circle cx="121.02" cy="19.61" r="12" transform="rotate(-6.28 121.02 19.61)" fill="#ffffff"/><ellipse cx="122.53" cy="27.4" rx="9" ry="13.5" transform="rotate(-6.28 122.53 27.4)" fill="#000000"/></g><g id="nose-pointed-ac5ba432"><path d="M6.9 0c0 14 7 25 7 25s-3.5 6-13.5 4" stroke="black" stroke-width="4"/></g><g id="earrings-hoop-ac5ba432"><path d="M26 2A24 24 0 1 1 2 26c0-6.4 3.5-11.5 6.57-16.5L9.5 8" stroke="#000000" stroke-width="4"/></g><g id="ears-attached-ac5ba432"><path d="M29.5 5.18A24 24 0 0 0 22.08 4c-10.5 0-19 6.5-18 18.5 1.04 12.5 8.5 17 19 17A20 20 0 0 0 30 38.23" stroke="black" stroke-width="8"/><path d="M30.5 38.04a19 19 0 0 1-7.42 1.46c-10.5 0-17.96-4.5-19-17-1-12 7.5-18.5 18-18.5 3.14 0 6.19.6 8.92 1.73z" fill="#ac6651"/><path d="M26.5 12.5c-4-1.83-12.8-2.8-16 8" stroke="black" stroke-width="4"/><path d="M16 13c2.17 1.83 6.3 7.5 5.5 15.5" stroke="black" stroke-width="4"/><use transform="translate(0 32)" href="#earrings-hoop-ac5ba432"/></g><g id="clothes-crew-ac5ba432"><path d="M136.98 16.94a86 86 0 0 1 23.8 3.35c6.87 1.84 13.83 4.31 21.75 6.13l.15.03.14.01c46.12 3.8 73.78 24.3 93.86 52.5H3.36c16.3-29.34 39.48-48.02 77.07-56.59 16.01-3.64 34.66-5.46 56.55-5.46Z" fill="#000000" stroke="black" stroke-width="4"/><path d="m68.91 24.58 9.16-19.6a1 1 0 0 1 1.25-.51c37.92 13.42 72.42 12.48 104.4 3.57a1 1 0 0 1 1.08.38l13.93 19.05a.98.98 0 0 1-.42 1.5c-33.6 13.2-96.66 10.95-128.9-3.07a1 1 0 0 1-.5-1.32Z" fill="#000000" stroke="black" stroke-width="4"/><path opacity=".75" d="m68.91 24.58 9.16-19.6a1 1 0 0 1 1.25-.51c37.92 13.42 72.42 12.48 104.4 3.57a1 1 0 0 1 1.08.38l13.93 19.05a.98.98 0 0 1-.42 1.5c-33.6 13.2-96.66 10.95-128.9-3.07a1 1 0 0 1-.5-1.32Z" fill="white" stroke="black" stroke-width="4"/></g><clipPath id="clip-ac5ba432"><rect width="360" height="360" rx="0" ry="0"/></clipPath></defs><g clip-path="url(#clip-ac5ba432)"><use transform="translate(93.95 44.95)" href="#head-standard-ac5ba432"/><use transform="translate(157.13 182.89)" href="#mouth-surprised-ac5ba432"/><use transform="translate(127.93 99)" href="#eyebrows-eyelashesUp-ac5ba432"/><use transform="translate(24 -1)" href="#hair-dannyPhantom-ac5ba432"/><use transform="translate(100 111)" href="#eyes-eyesShadow-ac5ba432"/><use transform="rotate(-8 1175.7 -1254.11)" href="#nose-pointed-ac5ba432"/><use transform="translate(85 155)" href="#ears-attached-ac5ba432"/><use transform="translate(37.02 284)" href="#clothes-crew-ac5ba432"/></g></svg>