<svg xmlns="http://www.w3.org/2000/svg" viewBox="0 0 360 360" fill="none" shape-rendering="auto" aria-hidden="true"><!-- Generated by DiceBear (https://dicebear.com) --><metadata xmlns:rdf="http://www.w3.org/1999/02/22-rdf-syntax-ns#" xmlns:xsi="http://www.w3.org/2001/XMLSchema-instance" xmlns:dc="http://purl.org/dc/elements/1.1/" xmlns:dcterms="http://purl.org/dc/terms/"><rdf:RDF><rdf:Description><dc:title>Avatar Illustration System</dc:title><dc:creator>Micah Lanier</dc:creator><dc:source xsi:type="dcterms:URI">https://www.figma.com/community/file/829741575478342595</dc:source><dcterms:license xsi:type="dcterms:URI">https://creativecommons.org/licenses/by/4.0/</dcterms:license><dc:rights>Remix of “Avatar Illustration System” (https://www.figma.com/community/file/829741575478342595) by “Micah Lanier”, licensed under “CC BY 4.0” (https://creativecommons.org/licenses/by/4.0/)</dc:rights></rdf:Description></rdf:RDF></metadata><defs><g id="head-standard-a5595a96"><path d="M140.05 297.55c-14.4-20-25.67-58.67-27-78l-68.5-29.5-28.5 107.5z" fill="#f9c9b6" stroke="black" stroke-width="4"/><path d="M116.42 241.74q-3.15.3-6.37.3c-30.78 0-56.05-21.56-58.76-49.09l61.76 26.6c.38 5.48 1.55 13.31 3.37 22.19" fill="black" style="mix-blend-mode:multiply"/><path d="M60.1 4.1a75.7 75.7 0 0 1 91.16 55.5l.05.23.02.06.05.2.05.2 16.4 68.42.08.34.08.34v.01l.1.4.14.64a75.72 75.72 0 0 1-147.25 35.28l-.2-.72L4.06 95.16 4 94.89A75.7 75.7 0 0 1 60.09 4.1Z" fill="#f9c9b6" stroke="black" stroke-width="4"/></g><g id="mouth-frown-a5595a96"><path d="M7.87 41.11c3.2-7.95 15.1-24.76 37-28.34 21.9-3.59 33.12 8.45 36 14.92" stroke="#000000" stroke-width="4"/></g><g id="eyebrows-eyelashesUp-a5595a96"><path d="M81.07 13.21c5.67-2.66 19-5.1 27 6.5M5.65 38.52c2.07-5.9 9.7-17.12 23.57-14.7M8.15 32.46 2 27.03m103.04-12.87 6.14-5.43M14.6 26.81l-4.05-7.13m87.04-9.17 4.04-7.13M22.67 23.2l-2.2-7.9m68.04-5.4 2.2-7.9" stroke="#000000" stroke-width="4" stroke-linecap="round"/></g><g id="hair-mrClean-a5595a96"><ellipse cx="172.85" cy="70.18" rx="6.86" ry="18.44" transform="rotate(117 172.85 70.18)" fill="#FCFDFF"/></g><g id="eyes-round-a5595a96"><ellipse cx="58.12" cy="36.93" rx="9" ry="10" transform="rotate(-6.78 58.12 36.93)" fill="#000000"/><ellipse cx="122.15" cy="26.92" rx="9" ry="10" transform="rotate(-6.28 122.15 26.92)" fill="#000000"/></g><g id="nose-tound-a5595a96"><path d="M2.7 9.34c5.45-1.24 14.38.62 12.42 10.54C13.37 28.7 4 29.18 1.4 26.7" stroke="black" stroke-width="4"/></g><g id="ears-attached-a5595a96"><path d="M29.5 5.18A24 24 0 0 0 22.08 4c-10.5 0-19 6.5-18 18.5 1.04 12.5 8.5 17 19 17A20 20 0 0 0 30 38.23" stroke="black" stroke-width="8"/><path d="M30.5 38.04a19 19 0 0 1-7.42 1.46c-10.5 0-17.96-4.5-19-17-1-12 7.5-18.5 18-18.5 3.14 0 6.19.6 8.92 1.73z" fill="#f9c9b6"/><path d="M26.5 12.5c-4-1.83-12.8-2.8-16 8" stroke="black" stroke-width="4"/><path d="M16 13c2.17 1.83 6.3 7.5 5.5 15.5" stroke="black" stroke-width="4"/></g><g id="clothes-open-a5595a96"><path d="M186.97 3.75c4.3-1.03 8.89-.73 13.72.7 9.73 2.87 20.14 10.25 30.3 19.73 18.61 17.37 35.7 41.14 45.36 54.68H3.44c4.52-9.2 12.95-26.42 23.94-41.82 6.2-8.67 13.13-16.65 20.54-22.27 7.42-5.61 15.12-8.73 22.95-8.04 16.48 1.44 31 11.18 45.76 20.18 14.48 8.82 29.36 17.02 45.72 13.43 5.53-1.2 9.26-3.8 11.6-7.16 2.32-3.3 3.15-7.15 3.3-10.66.14-3.52-.4-6.85-.96-9.26a40 40 0 0 0-.75-2.77c3.63-3.65 7.47-5.78 11.43-6.74Z" fill="#9287ff" stroke="black" stroke-width="4.27"/></g><clipPath id="clip-a5595a96"><rect width="360" height="360" rx="0" ry="0"/></clipPath></defs><g clip-path="url(#clip-a5595a96)"><use transform="translate(93.95 44.95)" href="#head-standard-a5595a96"/><use transform="translate(157.13 182.89)" href="#mouth-frown-a5595a96"/><use transform="translate(127.93 99)" href="#eyebrows-eyelashesUp-a5595a96"/><use transform="translate(24 -1)" href="#hair-mrClean-a5595a96"/><use transform="translate(100 111)" href="#eyes-round-a5595a96"/><use transform="rotate(-8 1175.7 -1254.11)" href="#nose-tound-a5595a96"/><use transform="translate(85 155)" href="#ears-attached-a5595a96"/><use transform="translate(37.02 284)" href="#clothes-open-a5595a96"/></g></svg>