<svg xmlns="http://www.w3.org/2000/svg" viewBox="0 0 360 360" fill="none" shape-rendering="auto" aria-hidden="true"><!-- Generated by DiceBear (https://dicebear.com) --><metadata xmlns:rdf="http://www.w3.org/1999/02/22-rdf-syntax-ns#" xmlns:xsi="http://www.w3.org/2001/XMLSchema-instance" xmlns:dc="http://purl.org/dc/elements/1.1/" xmlns:dcterms="http://purl.org/dc/terms/"><rdf:RDF><rdf:Description><dc:title>Avatar Illustration System</dc:title><dc:creator>Micah Lanier</dc:creator><dc:source xsi:type="dcterms:URI">https://www.figma.com/community/file/829741575478342595</dc:source><dcterms:license xsi:type="dcterms:URI">https://creativecommons.org/licenses/by/4.0/</dcterms:license><dc:rights>Remix of “Avatar Illustration System” (https://www.figma.com/community/file/829741575478342595) by “Micah Lanier”, licensed under “CC BY 4.0” (https://creativecommons.org/licenses/by/4.0/)</dc:rights></rdf:Description></rdf:RDF></metadata><defs><g id="head-standard-aa596275"><path d="M140.05 297.55c-14.4-20-25.67-58.67-27-78l-68.5-29.5-28.5 107.5z" fill="#ac6651" stroke="black" stroke-width="4"/><path d="M116.42 241.74q-3.15.3-6.37.3c-30.78 0-56.05-21.56-58.76-49.09l61.76 26.6c.38 5.48 1.55 13.31 3.37 22.19" fill="black" style="mix-blend-mode:multiply"/><path d="M60.1 4.1a75.7 75.7 0 0 1 91.16 55.5l.05.23.02.06.05.2.05.2 16.4 68.42.08.34.08.34v.01l.1.4.14.64a75.72 75.72 0 0 1-147.25 35.28l-.2-.72L4.06 95.16 4 94.89A75.7 75.7 0 0 1 60.09 4.1Z" fill="#ac6651" stroke="black" stroke-width="4"/></g><g id="mouth-smile-aa596275"><path d="M12.37 17.61c2.5 17 31 25 57 5.5" stroke="#000000" stroke-width="4"/></g><g id="eyebrows-up-aa596275"><path d="M81.07 13.21c5.67-2.66 19-5.1 27 6.5M5.65 38.52c2.07-5.9 9.7-17.12 23.57-14.7" stroke="#000000" stroke-width="4" stroke-linecap="round"/></g><g id="hair-dougFunny-aa596275"><path d="M165 68c14.67-.67 40.4-8.8 26-36m-52 34c14.67-.67 40.4-8.8 26-36m-62 47c14.67-.67 40.4-8.8 26-36" stroke="#f9c9b6" stroke-width="4"/></g><g id="eyes-eyesShadow-aa596275"><circle cx="57.24" cy="28.24" r="12" transform="rotate(-6.28 57.24 28.24)" fill="#e0ddff"/><ellipse cx="58.53" cy="37.4" rx="9" ry="13.5" transform="rotate(-6.78 58.53 37.4)" fill="#000000"/><circle cx="121.02" cy="19.61" r="12" transform="rotate(-6.28 121.02 19.61)" fill="#e0ddff"/><ellipse cx="122.53" cy="27.4" rx="9" ry="13.5" transform="rotate(-6.28 122.53 27.4)" fill="#000000"/></g><g id="nose-pointed-aa596275"><path d="M6.9 0c0 14 7 25 7 25s-3.5 6-13.5 4" stroke="black" stroke-width="4"/></g><g id="earrings-stud-aa596275"><circle cx="27" cy="4" r="4" fill="#e0ddff"/><circle cx="28" cy="3" r="1" fill="white"/></g><g id="ears-detached-aa596275"><path d="m36 41.54-.53.57c-3.67 3.94-8.47 6.9-13.95 6.9-3.31 0-6.43-.5-8.86-1.88a9 9 0 0 1-4.6-7.08 8 8 0 0 1 .25-3.2c-3.55-3.12-5.7-7.81-6.22-14.18-.57-6.54 1.5-11.8 5.3-15.38 3.76-3.56 9.04-5.3 14.68-5.3 4.7 0 9.23 1.25 12.97 3.54l.95.59z" stroke="black" stroke-width="4"/><path d="M22.08 4c10.5 0 20 6.78 20 17q0 1-.1 1.97C41.41 32.94 32.62 47 21.5 47c-6.32 0-10.83-1.9-11.46-7.18a5.7 5.7 0 0 1 .68-3.6c-3.7-2.65-6.1-7.04-6.65-13.72-1-12 7.5-18.5 18-18.5" fill="#ac6651"/><path d="M26.5 12.5c-4-1.83-12.8-2.8-16 8" stroke="black" stroke-width="4"/><path d="M16 13c2.17 1.83 6.3 7.5 5.5 15.5" stroke="black" stroke-width="4"/><use transform="translate(0 39)" href="#earrings-stud-aa596275"/></g><g id="clothes-crew-aa596275"><path d="M136.98 16.94a86 86 0 0 1 23.8 3.35c6.87 1.84 13.83 4.31 21.75 6.13l.15.03.14.01c46.12 3.8 73.78 24.3 93.86 52.5H3.36c16.3-29.34 39.48-48.02 77.07-56.59 16.01-3.64 34.66-5.46 56.55-5.46Z" fill="#ffedef" stroke="black" stroke-width="4"/><path d="m68.91 24.58 9.16-19.6a1 1 0 0 1 1.25-.51c37.92 13.42 72.42 12.48 104.4 3.57a1 1 0 0 1 1.08.38l13.93 19.05a.98.98 0 0 1-.42 1.5c-33.6 13.2-96.66 10.95-128.9-3.07a1 1 0 0 1-.5-1.32Z" fill="#ffedef" stroke="black" stroke-width="4"/><path opacity=".75" d="m68.91 24.58 9.16-19.6a1 1 0 0 1 1.25-.51c37.92 13.42 72.42 12.48 104.4 3.57a1 1 0 0 1 1.08.38l13.93 19.05a.98.98 0 0 1-.42 1.5c-33.6 13.2-96.66 10.95-128.9-3.07a1 1 0 0 1-.5-1.32Z" fill="white" stroke="black" stroke-width="4"/></g><clipPath id="clip-aa596275"><rect width="360" height="360" rx="0" ry="0"/></clipPath></defs><g clip-path="url(#clip-aa596275)"><use transform="translate(93.95 44.95)" href="#head-standard-aa596275"/><use transform="translate(157.13 182.89)" href="#mouth-smile-aa596275"/><use transform="translate(127.93 99)" href="#eyebrows-up-aa596275"/><use transform="translate(24 -1)" href="#hair-dougFunny-aa596275"/><use transform="translate(100 111)" href="#eyes-eyesShadow-aa596275"/><use transform="rotate(-8 1175.7 -1254.11)" href="#nose-pointed-aa596275"/><use transform="translate(85 155)" href="#ears-detached-aa596275"/><use transform="translate(37.02 284)" href="#clothes-crew-aa596275"/></g></svg>