<svg xmlns="http://www.w3.org/2000/svg" viewBox="0 0 360 360" fill="none" shape-rendering="auto" aria-hidden="true"><!-- Generated by DiceBear (https://dicebear.com) --><metadata xmlns:rdf="http://www.w3.org/1999/02/22-rdf-syntax-ns#" xmlns:xsi="http://www.w3.org/2001/XMLSchema-instance" xmlns:dc="http://purl.org/dc/elements/1.1/" xmlns:dcterms="http://purl.org/dc/terms/"><rdf:RDF><rdf:Description><dc:title>Avatar Illustration System</dc:title><dc:creator>Micah Lanier</dc:creator><dc:source xsi:type="dcterms:URI">https://www.figma.com/community/file/829741575478342595</dc:source><dcterms:license xsi:type="dcterms:URI">https://creativecommons.org/licenses/by/4.0/</dcterms:license><dc:rights>Remix of “Avatar Illustration System” (https://www.figma.com/community/file/829741575478342595) by “Micah Lanier”, licensed under “CC BY 4.0” (https://creativecommons.org/licenses/by/4.0/)</dc:rights></rdf:Description></rdf:RDF></metadata><defs><g id="head-standard-af596a54"><path d="M140.05 297.55c-14.4-20-25.67-58.67-27-78l-68.5-29.5-28.5 107.5z" fill="#f9c9b6" stroke="black" stroke-width="4"/><path d="M116.42 241.74q-3.15.3-6.37.3c-30.78 0-56.05-21.56-58.76-49.09l61.76 26.6c.38 5.48 1.55 13.31 3.37 22.19" fill="black" style="mix-blend-mode:multiply"/><path d="M60.1 4.1a75.7 75.7 0 0 1 91.16 55.5l.05.23.02.06.05.2.05.2 16.4 68.42.08.34.08.34v.01l.1.4.14.64a75.72 75.72 0 0 1-147.25 35.28l-.2-.72L4.06 95.16 4 94.89A75.7 75.7 0 0 1 60.09 4.1Z" fill="#f9c9b6" stroke="black" stroke-width="4"/></g><g id="mouth-sad-af596a54"><path d="M25.87 46.11c1.71-7.95 8.07-24.76 19.77-28.34 11.7-3.59 17.7 8.45 19.23 14.92" stroke="#000000" stroke-width="4"/></g><g id="facialHair-scruff-af596a54"><g fill="#000000"><path d="M28.3 94.35a1 1 0 1 1-2 0 1 1 0 0 1 2 0m52 7a1 1 0 1 1-2 0 1 1 0 0 1 2 0m-4 7a1 1 0 1 1-2 0 1 1 0 0 1 2 0m20-2a1 1 0 1 1-2 0 1 1 0 0 1 2 0m1-10a1 1 0 1 1-2 0 1 1 0 0 1 2 0m20 5a1 1 0 1 1-2 0 1 1 0 0 1 2 0m10-14a1 1 0 1 1-2 0 1 1 0 0 1 2 0m-109-14a1 1 0 1 1-2 0 1 1 0 0 1 2 0m33 16a1 1 0 1 1-2 0 1 1 0 0 1 2 0m-3 20a1 1 0 1 1-2 0 1 1 0 0 1 2 0m18 4a1 1 0 1 1-2 0 1 1 0 0 1 2 0m34-26a1 1 0 1 1-2 0 1 1 0 0 1 2 0m14 4a1 1 0 1 1-2 0 1 1 0 0 1 2 0m-8 17a1 1 0 1 1-2 0 1 1 0 0 1 2 0m14-31a1 1 0 1 1-2 0 1 1 0 0 1 2 0m-93 2a1 1 0 1 1-2 0 1 1 0 0 1 2 0m24 0a1 1 0 1 1-2 0 1 1 0 0 1 2 0m0-18a1 1 0 1 1-2 0 1 1 0 0 1 2 0m4 54a1 1 0 1 1-2 0 1 1 0 0 1 2 0m27 0a1 1 0 1 1-2 0 1 1 0 0 1 2 0m11 0a1 1 0 1 1-2 0 1 1 0 0 1 2 0m17-36a1 1 0 1 1-2 0 1 1 0 0 1 2 0m0-18a1 1 0 1 1-2 0 1 1 0 0 1 2 0m20 13a1 1 0 1 1-2 0 1 1 0 0 1 2 0m-100-8a1 1 0 1 1-2 0 1 1 0 0 1 2 0m10 35a1 1 0 1 1-2 0 1 1 0 0 1 2 0m-4 7a1 1 0 1 1-2 0 1 1 0 0 1 2 0m40-20a1 1 0 1 1-2 0 1 1 0 0 1 2 0m12 2a1 1 0 1 1-2 0 1 1 0 0 1 2 0m-14 30a1 1 0 1 1-2 0 1 1 0 0 1 2 0m23-51a1 1 0 1 1-2 0 1 1 0 0 1 2 0m0-18a1 1 0 1 1-2 0 1 1 0 0 1 2 0m24 15a1 1 0 1 1-2 0 1 1 0 0 1 2 0m7-10a1 1 0 1 1-2 0 1 1 0 0 1 2 0m-89 19a1 1 0 1 1-2 0 1 1 0 0 1 2 0m0 11a1 1 0 1 1-2 0 1 1 0 0 1 2 0m21-15a1 1 0 1 1-2 0 1 1 0 0 1 2 0m0-18a1 1 0 1 1-2 0 1 1 0 0 1 2 0m12 14a1 1 0 1 1-2 0 1 1 0 0 1 2 0m12-6a1 1 0 1 1-2 0 1 1 0 0 1 2 0m13 0a1 1 0 1 1-2 0 1 1 0 0 1 2 0"/><path d="M110.3 61.35a1 1 0 1 1-2 0 1 1 0 0 1 2 0m26 0a1 1 0 1 1-2 0 1 1 0 0 1 2 0m-78 40a1 1 0 1 1-2 0 1 1 0 0 1 2 0m11-6a1 1 0 1 1-2 0 1 1 0 0 1 2 0m-4-8a1 1 0 1 1-2 0 1 1 0 0 1 2 0m24-9a1 1 0 1 1-2 0 1 1 0 0 1 2 0m-49-18a1 1 0 1 1-2 0 1 1 0 0 1 2 0m37 16a1 1 0 1 1-2 0 1 1 0 0 1 2 0m0-18a1 1 0 1 1-2 0 1 1 0 0 1 2 0m35 14a1 1 0 1 1-2 0 1 1 0 0 1 2 0m0-18a1 1 0 1 1-2 0 1 1 0 0 1 2 0m7 2a1 1 0 1 1-2 0 1 1 0 0 1 2 0m15-9a1 1 0 1 1-2 0 1 1 0 0 1 2 0"/><path d="M28.3 94.35a1 1 0 1 1-2 0 1 1 0 0 1 2 0Zm52 7a1 1 0 1 1-2 0 1 1 0 0 1 2 0Zm-4 7a1 1 0 1 1-2 0 1 1 0 0 1 2 0Zm20-2a1 1 0 1 1-2 0 1 1 0 0 1 2 0Zm1-10a1 1 0 1 1-2 0 1 1 0 0 1 2 0Zm20 5a1 1 0 1 1-2 0 1 1 0 0 1 2 0Zm10-14a1 1 0 1 1-2 0 1 1 0 0 1 2 0Zm-109-14a1 1 0 1 1-2 0 1 1 0 0 1 2 0Zm33 16a1 1 0 1 1-2 0 1 1 0 0 1 2 0Zm-3 20a1 1 0 1 1-2 0 1 1 0 0 1 2 0Zm18 4a1 1 0 1 1-2 0 1 1 0 0 1 2 0Zm34-26a1 1 0 1 1-2 0 1 1 0 0 1 2 0Zm14 4a1 1 0 1 1-2 0 1 1 0 0 1 2 0Zm-8 17a1 1 0 1 1-2 0 1 1 0 0 1 2 0Zm14-31a1 1 0 1 1-2 0 1 1 0 0 1 2 0Zm-93 2a1 1 0 1 1-2 0 1 1 0 0 1 2 0Zm24 0a1 1 0 1 1-2 0 1 1 0 0 1 2 0Zm0-18a1 1 0 1 1-2 0 1 1 0 0 1 2 0Zm4 54a1 1 0 1 1-2 0 1 1 0 0 1 2 0Zm27 0a1 1 0 1 1-2 0 1 1 0 0 1 2 0Zm11 0a1 1 0 1 1-2 0 1 1 0 0 1 2 0Zm17-36a1 1 0 1 1-2 0 1 1 0 0 1 2 0Zm0-18a1 1 0 1 1-2 0 1 1 0 0 1 2 0Zm20 13a1 1 0 1 1-2 0 1 1 0 0 1 2 0Zm-100-8a1 1 0 1 1-2 0 1 1 0 0 1 2 0Zm10 35a1 1 0 1 1-2 0 1 1 0 0 1 2 0Zm-4 7a1 1 0 1 1-2 0 1 1 0 0 1 2 0Zm40-20a1 1 0 1 1-2 0 1 1 0 0 1 2 0Zm12 2a1 1 0 1 1-2 0 1 1 0 0 1 2 0Zm-14 30a1 1 0 1 1-2 0 1 1 0 0 1 2 0Zm23-51a1 1 0 1 1-2 0 1 1 0 0 1 2 0Zm0-18a1 1 0 1 1-2 0 1 1 0 0 1 2 0Zm24 15a1 1 0 1 1-2 0 1 1 0 0 1 2 0Zm7-10a1 1 0 1 1-2 0 1 1 0 0 1 2 0Zm-89 19a1 1 0 1 1-2 0 1 1 0 0 1 2 0Zm0 11a1 1 0 1 1-2 0 1 1 0 0 1 2 0Zm21-15a1 1 0 1 1-2 0 1 1 0 0 1 2 0Zm0-18a1 1 0 1 1-2 0 1 1 0 0 1 2 0Zm12 14a1 1 0 1 1-2 0 1 1 0 0 1 2 0Zm12-6a1 1 0 1 1-2 0 1 1 0 0 1 2 0Zm13 0a1 1 0 1 1-2 0 1 1 0 0 1 2 0Z" stroke="black"/><path d="M110.3 61.35a1 1 0 1 1-2 0 1 1 0 0 1 2 0Zm26 0a1 1 0 1 1-2 0 1 1 0 0 1 2 0Zm-78 40a1 1 0 1 1-2 0 1 1 0 0 1 2 0Zm11-6a1 1 0 1 1-2 0 1 1 0 0 1 2 0Zm-4-8a1 1 0 1 1-2 0 1 1 0 0 1 2 0Zm24-9a1 1 0 1 1-2 0 1 1 0 0 1 2 0Zm-49-18a1 1 0 1 1-2 0 1 1 0 0 1 2 0Zm37 16a1 1 0 1 1-2 0 1 1 0 0 1 2 0Zm0-18a1 1 0 1 1-2 0 1 1 0 0 1 2 0Zm35 14a1 1 0 1 1-2 0 1 1 0 0 1 2 0Zm0-18a1 1 0 1 1-2 0 1 1 0 0 1 2 0Zm7 2a1 1 0 1 1-2 0 1 1 0 0 1 2 0Zm15-9a1 1 0 1 1-2 0 1 1 0 0 1 2 0Z" stroke="black"/></g><use transform="translate(40.44 42.94)" href="#mouth-sad-af596a54"/></g><g id="eyebrows-eyelashesDown-af596a54"><path d="M9.07 29.5c6.17 2.5 21.1 3 31.5-15M76.07 7c5.17 5.33 18.1 12.8 28.5 0M19.22 29.46l-6.15-5.43m85.23-11.6 1.78-7.99M27.67 25.81l-4.05-7.13m66.6-6.66.93-8.15M34.75 20.2l-2.2-7.9m49.52-1.27-.78-8.16" stroke="#000000" stroke-width="4" stroke-linecap="round"/></g><g id="hair-mrClean-af596a54"><ellipse cx="172.85" cy="70.18" rx="6.86" ry="18.44" transform="rotate(117 172.85 70.18)" fill="#FCFDFF"/></g><g id="glasses-round-af596a54"><circle cx="124.5" cy="28" r="26" stroke="#fc909f" stroke-width="4"/><circle cx="57.5" cy="37" r="26" stroke="#fc909f" stroke-width="4"/><path d="M99.5 35a8 8 0 0 0-16 0M32 39 2 44.5" stroke="#fc909f" stroke-width="4"/></g><g id="eyes-smilingShadow-af596a54"><path d="M68.47 32.36c1.86 6.36-5.04 1.48-11.4 3.33-6.36 1.86-9.78 9.76-11.64 3.4a12 12 0 0 1 23.04-6.73m63.79-9.19c1.64 6.42-4.69 1.52-11.11 3.15-6.43 1.64-10.51 9.19-12.15 2.77a12 12 0 0 1 23.26-5.92" fill="#e0ddff"/><path d="M56.73 29.8c5.11-.6 9.81 2.45 11.48 7.1.26.73-.48 1.37-1.23 1.17a20 20 0 0 0-7.32-.48c-4.4.53-8.2 2.37-10.65 4.89-.58.6-1.6.4-1.72-.4l-.03-.24a10.83 10.83 0 0 1 9.47-12.04m64.02-9.86c5.05-.6 9.7 2.41 11.36 7 .26.74-.48 1.38-1.23 1.18-2.2-.58-4.67-.77-7.23-.47-4.35.52-8.1 2.35-10.54 4.83-.58.6-1.6.4-1.72-.4l-.03-.22a10.73 10.73 0 0 1 9.4-11.92" fill="#000000"/><use transform="scale(.95207 .90922)" href="#glasses-round-af596a54"/></g><g id="nose-tound-af596a54"><path d="M2.7 9.34c5.45-1.24 14.38.62 12.42 10.54C13.37 28.7 4 29.18 1.4 26.7" stroke="black" stroke-width="4"/></g><g id="earrings-stud-af596a54"><circle cx="27" cy="4" r="4" fill="#77311d"/><circle cx="28" cy="3" r="1" fill="white"/></g><g id="ears-detached-af596a54"><path d="m36 41.54-.53.57c-3.67 3.94-8.47 6.9-13.95 6.9-3.31 0-6.43-.5-8.86-1.88a9 9 0 0 1-4.6-7.08 8 8 0 0 1 .25-3.2c-3.55-3.12-5.7-7.81-6.22-14.18-.57-6.54 1.5-11.8 5.3-15.38 3.76-3.56 9.04-5.3 14.68-5.3 4.7 0 9.23 1.25 12.97 3.54l.95.59z" stroke="black" stroke-width="4"/><path d="M22.08 4c10.5 0 20 6.78 20 17q0 1-.1 1.97C41.41 32.94 32.62 47 21.5 47c-6.32 0-10.83-1.9-11.46-7.18a5.7 5.7 0 0 1 .68-3.6c-3.7-2.65-6.1-7.04-6.65-13.72-1-12 7.5-18.5 18-18.5" fill="#f9c9b6"/><path d="M26.5 12.5c-4-1.83-12.8-2.8-16 8" stroke="black" stroke-width="4"/><path d="M16 13c2.17 1.83 6.3 7.5 5.5 15.5" stroke="black" stroke-width="4"/><use transform="translate(0 39)" href="#earrings-stud-af596a54"/></g><g id="clothes-crew-af596a54"><path d="M136.98 16.94a86 86 0 0 1 23.8 3.35c6.87 1.84 13.83 4.31 21.75 6.13l.15.03.14.01c46.12 3.8 73.78 24.3 93.86 52.5H3.36c16.3-29.34 39.48-48.02 77.07-56.59 16.01-3.64 34.66-5.46 56.55-5.46Z" fill="#d2eff3" stroke="black" stroke-width="4"/><path d="m68.91 24.58 9.16-19.6a1 1 0 0 1 1.25-.51c37.92 13.42 72.42 12.48 104.4 3.57a1 1 0 0 1 1.08.38l13.93 19.05a.98.98 0 0 1-.42 1.5c-33.6 13.2-96.66 10.95-128.9-3.07a1 1 0 0 1-.5-1.32Z" fill="#d2eff3" stroke="black" stroke-width="4"/><path opacity=".75" d="m68.91 24.58 9.16-19.6a1 1 0 0 1 1.25-.51c37.92 13.42 72.42 12.48 104.4 3.57a1 1 0 0 1 1.08.38l13.93 19.05a.98.98 0 0 1-.42 1.5c-33.6 13.2-96.66 10.95-128.9-3.07a1 1 0 0 1-.5-1.32Z" fill="white" stroke="black" stroke-width="4"/></g><clipPath id="clip-af596a54"><rect width="360" height="360" rx="0" ry="0"/></clipPath></defs><g clip-path="url(#clip-af596a54)"><use transform="translate(93.95 44.95)" href="#head-standard-af596a54"/><use transform="translate(157.13 182.89)" href="#mouth-sad-af596a54"/><use transform="translate(116.7 139.95)" href="#facialHair-scruff-af596a54"/><use transform="translate(127.93 99)" href="#eyebrows-eyelashesDown-af596a54"/><use transform="translate(24 -1)" href="#hair-mrClean-af596a54"/><use transform="translate(100 111)" href="#eyes-smilingShadow-af596a54"/><use transform="rotate(-8 1175.7 -1254.11)" href="#nose-tound-af596a54"/><use transform="translate(85 155)" href="#ears-detached-af596a54"/><use transform="translate(37.02 284)" href="#clothes-crew-af596a54"/></g></svg>