<svg xmlns="http://www.w3.org/2000/svg" viewBox="0 0 16 16" fill="none" shape-rendering="crispEdges" aria-hidden="true"><!-- Generated by DiceBear (https://dicebear.com) --><metadata xmlns:rdf="http://www.w3.org/1999/02/22-rdf-syntax-ns#" xmlns:xsi="http://www.w3.org/2001/XMLSchema-instance" xmlns:dc="http://purl.org/dc/elements/1.1/" xmlns:dcterms="http://purl.org/dc/terms/"><rdf:RDF><rdf:Description><dc:title>Pixel Art</dc:title><dc:creator>DiceBear</dc:creator><dc:source xsi:type="dcterms:URI">https://www.figma.com/community/file/1198754108850888330</dc:source><dcterms:license xsi:type="dcterms:URI">https://creativecommons.org/publicdomain/zero/1.0/</dcterms:license><dc:rights>“Pixel Art” (https://www.figma.com/community/file/1198754108850888330) by “DiceBear”, licensed under “CC0 1.0” (https://creativecommons.org/publicdomain/zero/1.0/)</dc:rights></rdf:Description></rdf:RDF></metadata><defs><g id="clothes-variant18-0e411b42"><path d="M2 1h2v1h1v1h2V2h1V1h2v3H2z" fill="#ffd969"/><rect x="8" y="2" width="1" height="1" fill="white" fill-opacity=".3"/><rect x="9" y="1" width="1" height="1" fill="white" fill-opacity=".3"/><rect x="7" y="3" width="1" height="1" fill="white" fill-opacity=".3"/><rect x="7" y="2" width="1" height="1" fill="white" fill-opacity=".5"/><rect x="8" y="1" width="1" height="1" fill="white" fill-opacity=".5"/><rect x="6" y="3" width="1" height="1" fill="white" fill-opacity=".5"/><rect width="1" height="1" transform="matrix(-1 0 0 1 4 2)" fill="white" fill-opacity=".3"/><rect width="1" height="1" transform="matrix(-1 0 0 1 3 1)" fill="white" fill-opacity=".3"/><rect width="1" height="1" transform="matrix(-1 0 0 1 5 3)" fill="white" fill-opacity=".3"/><rect width="1" height="1" transform="matrix(-1 0 0 1 5 2)" fill="white" fill-opacity=".5"/><rect width="1" height="1" transform="matrix(-1 0 0 1 4 1)" fill="white" fill-opacity=".5"/><rect width="1" height="1" transform="matrix(-1 0 0 1 6 3)" fill="white" fill-opacity=".5"/></g><g id="eyes-variant10-0e411b42"><rect width="3" height="3" fill="white"/><rect x="5" width="3" height="3" fill="white"/><rect x="6" width="2" height="2" fill="#647b90"/><rect x="1" width="2" height="2" fill="#647b90"/><rect x="1" width="1" height="1" fill="white" fill-opacity=".4"/><rect x="2" y="1" width="1" height="1" fill="white" fill-opacity=".4"/><rect x="6" width="1" height="1" fill="white" fill-opacity=".4"/><rect x="7" y="1" width="1" height="1" fill="white" fill-opacity=".4"/><rect x="7" width="1" height="1" fill="white" fill-opacity=".7"/><rect x="2" width="1" height="1" fill="white" fill-opacity=".7"/></g><g id="mouth-happy10-0e411b42"><path d="M4 0v1H3v1H1V1h2V0z" fill="#de0f0d"/></g><g id="hair-long20-0e411b42"><path d="M4 1h8v1h1v1h1v3h-1V4h-1V3H6v1H3v2H2V3h1V2h1zM2 8h1v3h1v1h3v1H2zm10 4H9v1h5V8h-1v3h-1z" fill="#603015"/></g><clipPath id="clip-0e411b42"><rect width="16" height="16" rx="0" ry="0"/></clipPath></defs><g clip-path="url(#clip-0e411b42)"><path d="M4 2h8v1h1v3h1v2h-1v3h-1v1H9v1h4v1h1v2H2v-2h1v-1h4v-1H4v-1H3V8H2V6h1V3h1z" fill="#eac393"/><path d="M4 2h8v1h1v3h1v2h-1v3h-1v1H4v-1H3V8H2V6h1V3h1z" fill="white" fill-opacity=".1"/><use transform="translate(2 12)" href="#clothes-variant18-0e411b42"/><use transform="translate(4 5)" href="#eyes-variant10-0e411b42"/><use transform="translate(6 9)" href="#mouth-happy10-0e411b42"/><use href="#hair-long20-0e411b42"/></g></svg>