<svg xmlns="http://www.w3.org/2000/svg" viewBox="0 0 16 16" fill="none" shape-rendering="crispEdges" aria-hidden="true"><!-- Generated by DiceBear (https://dicebear.com) --><metadata xmlns:rdf="http://www.w3.org/1999/02/22-rdf-syntax-ns#" xmlns:xsi="http://www.w3.org/2001/XMLSchema-instance" xmlns:dc="http://purl.org/dc/elements/1.1/" xmlns:dcterms="http://purl.org/dc/terms/"><rdf:RDF><rdf:Description><dc:title>Pixel Art</dc:title><dc:creator>DiceBear</dc:creator><dc:source xsi:type="dcterms:URI">https://www.figma.com/community/file/1198754108850888330</dc:source><dcterms:license xsi:type="dcterms:URI">https://creativecommons.org/publicdomain/zero/1.0/</dcterms:license><dc:rights>“Pixel Art” (https://www.figma.com/community/file/1198754108850888330) by “DiceBear”, licensed under “CC0 1.0” (https://creativecommons.org/publicdomain/zero/1.0/)</dc:rights></rdf:Description></rdf:RDF></metadata><defs><g id="accessories-variant01-0d4119af"><rect x="12" width="2" height="2" fill="#a9a9a9"/><rect width="2" height="2" fill="#a9a9a9"/></g><g id="clothes-variant05-0d4119af"><path d="M3 2h1v1h4V2h1V1h2v1h1v2H0V2h1V1h2z" fill="#00b159"/></g><g id="eyes-variant11-0d4119af"><rect width="3" height="3" fill="white"/><rect x="5" width="3" height="3" fill="white"/><rect y="1" width="2" height="1" fill="#647b90"/><rect x="5" y="1" width="2" height="1" fill="#647b90"/><rect y="1" width="1" height="1" fill="white" fill-opacity=".7"/><rect x="5" y="1" width="1" height="1" fill="white" fill-opacity=".7"/></g><g id="mouth-happy04-0d4119af"><path d="M3 0v1H2v1h2V0z" fill="#d29985"/></g><g id="hair-short02-0d4119af"><rect width="8" height="1" transform="matrix(-1 0 0 1 12 2)" fill="#bd1700"/><rect width="2" height="1" transform="matrix(-1 0 0 1 13 3)" fill="#bd1700"/><rect width="1" height="1" transform="matrix(-1 0 0 1 13 4)" fill="#bd1700"/><rect width="3" height="1" transform="matrix(-1 0 0 1 6 3)" fill="#bd1700"/><rect width="2" height="1" transform="matrix(-1 0 0 1 5 4)" fill="#bd1700"/><rect width="1" height="1" transform="matrix(-1 0 0 1 4 5)" fill="#bd1700"/></g><clipPath id="clip-0d4119af"><rect width="16" height="16" rx="0" ry="0"/></clipPath></defs><g clip-path="url(#clip-0d4119af)"><path d="M4 2h8v1h1v3h1v2h-1v3h-1v1H9v1h4v1h1v2H2v-2h1v-1h4v-1H4v-1H3V8H2V6h1V3h1z" fill="#a26d3d"/><path d="M4 2h8v1h1v3h1v2h-1v3h-1v1H4v-1H3V8H2V6h1V3h1z" fill="white" fill-opacity=".1"/><use transform="translate(1 7)" href="#accessories-variant01-0d4119af"/><use transform="translate(2 12)" href="#clothes-variant05-0d4119af"/><use transform="translate(4 5)" href="#eyes-variant11-0d4119af"/><use transform="translate(6 9)" href="#mouth-happy04-0d4119af"/><use href="#hair-short02-0d4119af"/></g></svg>