<svg xmlns="http://www.w3.org/2000/svg" viewBox="0 0 16 16" fill="none" shape-rendering="crispEdges" aria-hidden="true"><!-- Generated by DiceBear (https://dicebear.com) --><metadata xmlns:rdf="http://www.w3.org/1999/02/22-rdf-syntax-ns#" xmlns:xsi="http://www.w3.org/2001/XMLSchema-instance" xmlns:dc="http://purl.org/dc/elements/1.1/" xmlns:dcterms="http://purl.org/dc/terms/"><rdf:RDF><rdf:Description><dc:title>Pixel Art</dc:title><dc:creator>DiceBear</dc:creator><dc:source xsi:type="dcterms:URI">https://www.figma.com/community/file/1198754108850888330</dc:source><dcterms:license xsi:type="dcterms:URI">https://creativecommons.org/publicdomain/zero/1.0/</dcterms:license><dc:rights>“Pixel Art” (https://www.figma.com/community/file/1198754108850888330) by “DiceBear”, licensed under “CC0 1.0” (https://creativecommons.org/publicdomain/zero/1.0/)</dc:rights></rdf:Description></rdf:RDF></metadata><defs><g id="clothes-variant09-0d435846"><path d="M2 1h1v2h6V1h1v2h1v1H1V3h1z" fill="#88d8b0"/><rect x="2" y="1" width="1" height="2" fill="white" fill-opacity=".2"/><rect x="9" y="1" width="1" height="2" fill="white" fill-opacity=".2"/></g><g id="eyes-variant03-0d435846"><path d="M6 0h1v2H5V1h1zM1 0h1v2H0V1h1z" fill="white"/><rect width="1" height="1" transform="matrix(-1 0 0 1 7 1)" fill="#697b94"/><rect width="1" height="1" transform="matrix(-1 0 0 1 2 1)" fill="#697b94"/></g><g id="mouth-sad01-0d435846"><path d="M1 2H0V1h1zm3 0H3V1h1zM3 1H1V0h2z" fill="#c98276"/></g><g id="hair-short21-0d435846"><rect x="7" y="1" width="2" height="2" fill="#009bbd"/></g><clipPath id="clip-0d435846"><rect width="16" height="16" rx="0" ry="0"/></clipPath></defs><g clip-path="url(#clip-0d435846)"><path d="M4 2h8v1h1v3h1v2h-1v3h-1v1H9v1h4v1h1v2H2v-2h1v-1h4v-1H4v-1H3V8H2V6h1V3h1z" fill="#f5cfa0"/><path d="M4 2h8v1h1v3h1v2h-1v3h-1v1H4v-1H3V8H2V6h1V3h1z" fill="white" fill-opacity=".1"/><use transform="translate(2 12)" href="#clothes-variant09-0d435846"/><use transform="translate(4 5)" href="#eyes-variant03-0d435846"/><use transform="translate(6 9)" href="#mouth-sad01-0d435846"/><use href="#hair-short21-0d435846"/></g></svg>