<svg xmlns="http://www.w3.org/2000/svg" viewBox="0 0 16 16" fill="none" shape-rendering="crispEdges" aria-hidden="true"><!-- Generated by DiceBear (https://dicebear.com) --><metadata xmlns:rdf="http://www.w3.org/1999/02/22-rdf-syntax-ns#" xmlns:xsi="http://www.w3.org/2001/XMLSchema-instance" xmlns:dc="http://purl.org/dc/elements/1.1/" xmlns:dcterms="http://purl.org/dc/terms/"><rdf:RDF><rdf:Description><dc:title>Pixel Art</dc:title><dc:creator>DiceBear</dc:creator><dc:source xsi:type="dcterms:URI">https://www.figma.com/community/file/1198754108850888330</dc:source><dcterms:license xsi:type="dcterms:URI">https://creativecommons.org/publicdomain/zero/1.0/</dcterms:license><dc:rights>“Pixel Art” (https://www.figma.com/community/file/1198754108850888330) by “DiceBear”, licensed under “CC0 1.0” (https://creativecommons.org/publicdomain/zero/1.0/)</dc:rights></rdf:Description></rdf:RDF></metadata><defs><g id="accessories-variant01-18436997"><rect x="12" width="2" height="2" fill="#daa520"/><rect width="2" height="2" fill="#daa520"/></g><g id="clothes-variant12-18436997"><path d="M5 0h2v1h4v1h1v2H0V2h1V1h4z" fill="#ffd969"/><rect x="5" width="2" height="1" fill="black" fill-opacity=".3"/></g><g id="eyes-variant02-18436997"><path fill-rule="evenodd" clip-rule="evenodd" d="M7 0H6v2h2V1H7zM2 0H1v2h2V1H2z" fill="white"/><path fill-rule="evenodd" clip-rule="evenodd" d="M6 0v1h1v1H5V0zM1 0v1h1v1H0V0z" fill="#76778b"/><path fill-rule="evenodd" clip-rule="evenodd" d="M6 0v1H5V0zm1 1v1H6V1zM1 0v1H0V0zm1 1v1H1V1z" fill="white" fill-opacity=".5"/></g><g id="mouth-sad01-18436997"><path d="M1 2H0V1h1zm3 0H3V1h1zM3 1H1V0h2z" fill="#de0f0d"/></g><g id="hair-short11-18436997"><rect x="4" y="2" width="8" height="1" fill="#83623b"/><rect x="3" y="1" width="1" height="1" fill="#83623b"/><rect x="2" y="2" width="1" height="1" fill="#83623b"/><rect x="2" y="3" width="1" height="1" fill="#83623b"/><rect x="2" y="4" width="1" height="1" fill="#83623b"/><rect x="2" y="5" width="1" height="1" fill="#83623b"/><rect x="1" y="3" width="1" height="1" fill="#83623b"/><rect x="1" y="1" width="1" height="1" fill="#83623b"/><rect x="1" y="5" width="1" height="1" fill="#83623b"/><rect x="1" y="6" width="1" height="1" fill="#83623b"/><rect y="7" width="1" height="1" fill="#83623b"/><rect x="1" y="8" width="1" height="1" fill="#83623b"/><rect x="5" y="1" width="1" height="1" fill="#83623b"/><rect x="6" width="1" height="1" fill="#83623b"/><rect x="4" width="1" height="1" fill="#83623b"/><rect x="6" y="1" width="1" height="1" fill="#83623b"/><rect x="7" y="1" width="1" height="1" fill="#83623b"/><rect x="8" width="1" height="1" fill="#83623b"/><rect x="9" y="1" width="1" height="1" fill="#83623b"/><rect x="9" width="1" height="1" fill="#83623b"/><rect x="11" width="1" height="1" fill="#83623b"/><rect x="10" y="1" width="1" height="1" fill="#83623b"/><rect x="12" y="1" width="1" height="1" fill="#83623b"/><rect x="13" y="2" width="1" height="1" fill="#83623b"/><rect x="13" y="3" width="1" height="1" fill="#83623b"/><rect x="13" y="4" width="1" height="1" fill="#83623b"/><rect x="13" y="5" width="1" height="1" fill="#83623b"/><rect x="14" y="6" width="1" height="1" fill="#83623b"/><rect x="15" y="4" width="1" height="1" fill="#83623b"/><rect x="15" y="4" width="1" height="1" fill="#83623b"/><rect x="14" y="3" width="1" height="1" fill="#83623b"/><rect x="14" y="8" width="1" height="1" fill="#83623b"/><rect x="15" y="6" width="1" height="1" fill="#83623b"/><rect x="15" y="7" width="1" height="1" fill="#83623b"/><rect x="13" y="2" width="1" height="1" fill="#83623b"/><rect x="2" y="2" width="1" height="1" fill="#83623b"/><rect x="3" y="1" width="1" height="1" fill="#83623b"/></g><clipPath id="clip-18436997"><rect width="16" height="16" rx="0" ry="0"/></clipPath></defs><g clip-path="url(#clip-18436997)"><path d="M4 2h8v1h1v3h1v2h-1v3h-1v1H9v1h4v1h1v2H2v-2h1v-1h4v-1H4v-1H3V8H2V6h1V3h1z" fill="#b68655"/><path d="M4 2h8v1h1v3h1v2h-1v3h-1v1H4v-1H3V8H2V6h1V3h1z" fill="white" fill-opacity=".1"/><use transform="translate(1 7)" href="#accessories-variant01-18436997"/><use transform="translate(2 12)" href="#clothes-variant12-18436997"/><use transform="translate(4 5)" href="#eyes-variant02-18436997"/><use transform="translate(6 9)" href="#mouth-sad01-18436997"/><use href="#hair-short11-18436997"/></g></svg>