<svg xmlns="http://www.w3.org/2000/svg" viewBox="0 0 16 16" fill="none" shape-rendering="crispEdges" aria-hidden="true"><!-- Generated by DiceBear (https://dicebear.com) --><metadata xmlns:rdf="http://www.w3.org/1999/02/22-rdf-syntax-ns#" xmlns:xsi="http://www.w3.org/2001/XMLSchema-instance" xmlns:dc="http://purl.org/dc/elements/1.1/" xmlns:dcterms="http://purl.org/dc/terms/"><rdf:RDF><rdf:Description><dc:title>Pixel Art</dc:title><dc:creator>DiceBear</dc:creator><dc:source xsi:type="dcterms:URI">https://www.figma.com/community/file/1198754108850888330</dc:source><dcterms:license xsi:type="dcterms:URI">https://creativecommons.org/publicdomain/zero/1.0/</dcterms:license><dc:rights>“Pixel Art” (https://www.figma.com/community/file/1198754108850888330) by “DiceBear”, licensed under “CC0 1.0” (https://creativecommons.org/publicdomain/zero/1.0/)</dc:rights></rdf:Description></rdf:RDF></metadata><defs><g id="clothes-variant06-9e3bedc4"><path d="M8 1h3v1h1v2H0V2h1V1h3v1h4z" fill="#00b159"/><rect x="1" y="1" width="1" height="1" fill="white" fill-opacity=".2"/><rect y="2" width="1" height="1" fill="white" fill-opacity=".2"/><rect x="1" y="3" width="1" height="1" fill="white" fill-opacity=".2"/><rect x="2" y="2" width="1" height="1" fill="white" fill-opacity=".2"/><rect x="3" y="1" width="1" height="1" fill="white" fill-opacity=".2"/><rect x="3" y="3" width="1" height="1" fill="white" fill-opacity=".2"/><rect x="4" y="2" width="1" height="1" fill="white" fill-opacity=".2"/><rect x="5" y="3" width="1" height="1" fill="white" fill-opacity=".2"/><rect x="6" y="2" width="1" height="1" fill="white" fill-opacity=".2"/><rect x="7" y="3" width="1" height="1" fill="white" fill-opacity=".2"/><rect x="8" y="2" width="1" height="1" fill="white" fill-opacity=".2"/><rect x="9" y="3" width="1" height="1" fill="white" fill-opacity=".2"/><rect x="9" y="1" width="1" height="1" fill="white" fill-opacity=".2"/><rect x="10" y="2" width="1" height="1" fill="white" fill-opacity=".2"/><rect x="11" y="3" width="1" height="1" fill="white" fill-opacity=".2"/></g><g id="eyes-variant07-9e3bedc4"><rect width="3" height="2" fill="white"/><rect x="5" width="3" height="2" fill="white"/><rect x="7" y="1" width="1" height="1" fill="#647b90"/><rect x="2" y="1" width="1" height="1" fill="#647b90"/></g><g id="mouth-happy01-9e3bedc4"><path d="M1 0v2h2V0z" fill="#de0f0d"/></g><g id="hair-long05-9e3bedc4"><path d="M4 0H1v3h2v1H2v2h1V5h2V4h1V3h5v1h1v1h1v1h1V3h-1V2h-1V1H6v1H4zM2 8h1v1H2zm12 0h-1v1h1z" fill="#bd1700"/></g><clipPath id="clip-9e3bedc4"><rect width="16" height="16" rx="0" ry="0"/></clipPath></defs><g clip-path="url(#clip-9e3bedc4)"><path d="M4 2h8v1h1v3h1v2h-1v3h-1v1H9v1h4v1h1v2H2v-2h1v-1h4v-1H4v-1H3V8H2V6h1V3h1z" fill="#eac393"/><path d="M4 2h8v1h1v3h1v2h-1v3h-1v1H4v-1H3V8H2V6h1V3h1z" fill="white" fill-opacity=".1"/><use transform="translate(2 12)" href="#clothes-variant06-9e3bedc4"/><use transform="translate(4 5)" href="#eyes-variant07-9e3bedc4"/><use transform="translate(6 9)" href="#mouth-happy01-9e3bedc4"/><use href="#hair-long05-9e3bedc4"/></g></svg>