<svg xmlns="http://www.w3.org/2000/svg" viewBox="0 0 16 16" fill="none" shape-rendering="crispEdges" aria-hidden="true"><!-- Generated by DiceBear (https://dicebear.com) --><metadata xmlns:rdf="http://www.w3.org/1999/02/22-rdf-syntax-ns#" xmlns:xsi="http://www.w3.org/2001/XMLSchema-instance" xmlns:dc="http://purl.org/dc/elements/1.1/" xmlns:dcterms="http://purl.org/dc/terms/"><rdf:RDF><rdf:Description><dc:title>Pixel Art</dc:title><dc:creator>DiceBear</dc:creator><dc:source xsi:type="dcterms:URI">https://www.figma.com/community/file/1198754108850888330</dc:source><dcterms:license xsi:type="dcterms:URI">https://creativecommons.org/publicdomain/zero/1.0/</dcterms:license><dc:rights>“Pixel Art” (https://www.figma.com/community/file/1198754108850888330) by “DiceBear”, licensed under “CC0 1.0” (https://creativecommons.org/publicdomain/zero/1.0/)</dc:rights></rdf:Description></rdf:RDF></metadata><defs><g id="clothes-variant22-0f411cd5"><path d="M4 1H2v3h2zm6 0H8v3h2z" fill="#ffeead"/><rect x="3" y="1" width="1" height="3" fill="white" fill-opacity=".2"/><rect x="8" y="1" width="1" height="3" fill="white" fill-opacity=".2"/></g><g id="eyes-variant06-0f411cd5"><rect width="3" height="2" fill="white"/><rect x="1" y="1" width="1" height="1" fill="#697b94"/><rect x="5" width="3" height="2" fill="white"/><rect x="6" y="1" width="1" height="1" fill="#697b94"/></g><g id="beard-variant05-0f411cd5"><mask id="beardVariant05-a" style="mask-type:luminance"><path opacity=".9" d="M1 2h1v1h6V2h1V0h1v5H9v1H1V5H0V0h1z" fill="#28150a"/></mask><g mask="url(#beardVariant05-a)"><rect x="-3" y="-6" width="16" height="16" fill="#28150a"/><rect x="-3" y="-6" width="16" height="16" fill="white" fill-opacity=".3"/></g></g><g id="mouth-happy09-0f411cd5"><path d="M1 0H0v1h1zm3 0H3v1h1zM3 1H1v1h2z" fill="#d29985"/></g><g id="hair-short13-0f411cd5"><rect x="3" y="2" width="10" height="2" fill="#28150a"/><rect x="2" y="2" width="1" height="1" fill="#28150a"/><rect x="2" y="1" width="1" height="1" fill="#28150a"/><rect x="2" y="2" width="1" height="1" fill="#28150a"/><rect x="13" width="1" height="1" fill="#28150a"/><rect x="2" y="4" width="1" height="1" fill="#28150a"/><rect x="5" width="1" height="1" fill="#28150a"/><rect x="4" y="1" width="1" height="1" fill="#28150a"/><rect x="6" y="1" width="1" height="1" fill="#28150a"/><rect x="9" y="1" width="1" height="1" fill="#28150a"/><rect x="8" width="1" height="1" fill="#28150a"/><rect x="12" y="1" width="1" height="1" fill="#28150a"/><rect x="13" y="2" width="1" height="1" fill="#28150a"/><rect x="12" y="1" width="1" height="1" fill="#28150a"/><rect x="14" y="3" width="1" height="1" fill="#28150a"/><rect x="13" y="4" width="1" height="1" fill="#28150a"/><rect x="1" y="3" width="1" height="1" fill="#28150a"/></g><clipPath id="clip-0f411cd5"><rect width="16" height="16" rx="0" ry="0"/></clipPath></defs><g clip-path="url(#clip-0f411cd5)"><path d="M4 2h8v1h1v3h1v2h-1v3h-1v1H9v1h4v1h1v2H2v-2h1v-1h4v-1H4v-1H3V8H2V6h1V3h1z" fill="#b68655"/><path d="M4 2h8v1h1v3h1v2h-1v3h-1v1H4v-1H3V8H2V6h1V3h1z" fill="white" fill-opacity=".1"/><use transform="translate(2 12)" href="#clothes-variant22-0f411cd5"/><use transform="translate(4 5)" href="#eyes-variant06-0f411cd5"/><use transform="translate(3 6)" href="#beard-variant05-0f411cd5"/><use transform="translate(6 9)" href="#mouth-happy09-0f411cd5"/><use href="#hair-short13-0f411cd5"/></g></svg>