<svg xmlns="http://www.w3.org/2000/svg" viewBox="0 0 16 16" fill="none" shape-rendering="crispEdges" aria-hidden="true"><!-- Generated by DiceBear (https://dicebear.com) --><metadata xmlns:rdf="http://www.w3.org/1999/02/22-rdf-syntax-ns#" xmlns:xsi="http://www.w3.org/2001/XMLSchema-instance" xmlns:dc="http://purl.org/dc/elements/1.1/" xmlns:dcterms="http://purl.org/dc/terms/"><rdf:RDF><rdf:Description><dc:title>Pixel Art</dc:title><dc:creator>DiceBear</dc:creator><dc:source xsi:type="dcterms:URI">https://www.figma.com/community/file/1198754108850888330</dc:source><dcterms:license xsi:type="dcterms:URI">https://creativecommons.org/publicdomain/zero/1.0/</dcterms:license><dc:rights>“Pixel Art” (https://www.figma.com/community/file/1198754108850888330) by “DiceBear”, licensed under “CC0 1.0” (https://creativecommons.org/publicdomain/zero/1.0/)</dc:rights></rdf:Description></rdf:RDF></metadata><defs><g id="clothes-variant04-17436804"><path d="M3 1H1v1H0v2h12V2h-1V1H9v1H3z" fill="#ffc425"/></g><g id="eyes-variant10-17436804"><rect width="3" height="3" fill="white"/><rect x="5" width="3" height="3" fill="white"/><rect x="6" width="2" height="2" fill="#76778b"/><rect x="1" width="2" height="2" fill="#76778b"/><rect x="1" width="1" height="1" fill="white" fill-opacity=".4"/><rect x="2" y="1" width="1" height="1" fill="white" fill-opacity=".4"/><rect x="6" width="1" height="1" fill="white" fill-opacity=".4"/><rect x="7" y="1" width="1" height="1" fill="white" fill-opacity=".4"/><rect x="7" width="1" height="1" fill="white" fill-opacity=".7"/><rect x="2" width="1" height="1" fill="white" fill-opacity=".7"/></g><g id="mouth-happy07-17436804"><path d="M4 2V1H1V0H0v1h1v1z" fill="#de0f0d"/></g><g id="hair-long14-17436804"><path d="M5 1H3v1H2v2h1v1h1V4h8v1h1V4h1V2h-1V1h-2v1H5z" fill="#91cb15"/></g><clipPath id="clip-17436804"><rect width="16" height="16" rx="0" ry="0"/></clipPath></defs><g clip-path="url(#clip-17436804)"><path d="M4 2h8v1h1v3h1v2h-1v3h-1v1H9v1h4v1h1v2H2v-2h1v-1h4v-1H4v-1H3V8H2V6h1V3h1z" fill="#ffdbac"/><path d="M4 2h8v1h1v3h1v2h-1v3h-1v1H4v-1H3V8H2V6h1V3h1z" fill="white" fill-opacity=".1"/><use transform="translate(2 12)" href="#clothes-variant04-17436804"/><use transform="translate(4 5)" href="#eyes-variant10-17436804"/><use transform="translate(6 9)" href="#mouth-happy07-17436804"/><use href="#hair-long14-17436804"/></g></svg>