<svg xmlns="http://www.w3.org/2000/svg" viewBox="0 0 16 16" fill="none" shape-rendering="crispEdges" aria-hidden="true"><!-- Generated by DiceBear (https://dicebear.com) --><metadata xmlns:rdf="http://www.w3.org/1999/02/22-rdf-syntax-ns#" xmlns:xsi="http://www.w3.org/2001/XMLSchema-instance" xmlns:dc="http://purl.org/dc/elements/1.1/" xmlns:dcterms="http://purl.org/dc/terms/"><rdf:RDF><rdf:Description><dc:title>Pixel Art</dc:title><dc:creator>DiceBear</dc:creator><dc:source xsi:type="dcterms:URI">https://www.figma.com/community/file/1198754108850888330</dc:source><dcterms:license xsi:type="dcterms:URI">https://creativecommons.org/publicdomain/zero/1.0/</dcterms:license><dc:rights>“Pixel Art” (https://www.figma.com/community/file/1198754108850888330) by “DiceBear”, licensed under “CC0 1.0” (https://creativecommons.org/publicdomain/zero/1.0/)</dc:rights></rdf:Description></rdf:RDF></metadata><defs><g id="clothes-variant15-0b435520"><path d="M4 2H2v1H1v1h4V3H4zm6 1h1v1H7V3h1V2h2z" fill="#88d8b0"/></g><g id="eyes-variant02-0b435520"><path fill-rule="evenodd" clip-rule="evenodd" d="M7 0H6v2h2V1H7zM2 0H1v2h2V1H2z" fill="white"/><path fill-rule="evenodd" clip-rule="evenodd" d="M6 0v1h1v1H5V0zM1 0v1h1v1H0V0z" fill="#76778b"/><path fill-rule="evenodd" clip-rule="evenodd" d="M6 0v1H5V0zm1 1v1H6V1zM1 0v1H0V0zm1 1v1H1V1z" fill="white" fill-opacity=".5"/></g><g id="glasses-dark01-0b435520"><path d="M0 1h5v1H2v1H1V2H0zm5 2v1H2V3zm2 0H5V2h2zm3 0H7v1h3zm0-1H7V1h5v1h-1v1h-1z" fill="#a04b5d"/><rect x="2" y="2" width="3" height="1" fill="black" fill-opacity=".3"/><rect x="7" y="2" width="3" height="1" fill="black" fill-opacity=".3"/><rect x="10" y="1" width="2" height="1" fill="white" fill-opacity=".2"/><rect y="1" width="2" height="1" fill="white" fill-opacity=".2"/><rect x="5" y="2" width="2" height="1" fill="white" fill-opacity=".2"/></g><g id="beard-variant04-0b435520"><mask id="beardVariant04-a" style="mask-type:luminance"><rect opacity=".9" x="3" y="5" width="4" height="1" fill="#612616"/></mask><g mask="url(#beardVariant04-a)"><rect x="-3" y="-6" width="16" height="16" fill="#612616"/><rect x="-3" y="-6" width="16" height="16" fill="white" fill-opacity=".3"/></g></g><g id="mouth-happy11-0b435520"><path d="M0 0v1h1v1h2V1H1V0z" fill="#d29985"/></g><g id="hair-long02-0b435520"><path d="M4 2h8v1h1v2h1v7h-1v-1h-1V5h-1V4H5v1H4v6H3v1H2V5h1V3h1zM2 12v1H1v-1zm12 0h1v1h-1z" fill="#612616"/></g><clipPath id="clip-0b435520"><rect width="16" height="16" rx="0" ry="0"/></clipPath></defs><g clip-path="url(#clip-0b435520)"><path d="M4 2h8v1h1v3h1v2h-1v3h-1v1H9v1h4v1h1v2H2v-2h1v-1h4v-1H4v-1H3V8H2V6h1V3h1z" fill="#b68655"/><path d="M4 2h8v1h1v3h1v2h-1v3h-1v1H4v-1H3V8H2V6h1V3h1z" fill="white" fill-opacity=".1"/><use transform="translate(2 12)" href="#clothes-variant15-0b435520"/><use transform="translate(4 5)" href="#eyes-variant02-0b435520"/><use transform="translate(2 4)" href="#glasses-dark01-0b435520"/><use transform="translate(3 6)" href="#beard-variant04-0b435520"/><use transform="translate(6 9)" href="#mouth-happy11-0b435520"/><use href="#hair-long02-0b435520"/></g></svg>