<svg xmlns="http://www.w3.org/2000/svg" viewBox="0 0 16 16" fill="none" shape-rendering="crispEdges" aria-hidden="true"><!-- Generated by DiceBear (https://dicebear.com) --><metadata xmlns:rdf="http://www.w3.org/1999/02/22-rdf-syntax-ns#" xmlns:xsi="http://www.w3.org/2001/XMLSchema-instance" xmlns:dc="http://purl.org/dc/elements/1.1/" xmlns:dcterms="http://purl.org/dc/terms/"><rdf:RDF><rdf:Description><dc:title>Pixel Art</dc:title><dc:creator>DiceBear</dc:creator><dc:source xsi:type="dcterms:URI">https://www.figma.com/community/file/1198754108850888330</dc:source><dcterms:license xsi:type="dcterms:URI">https://creativecommons.org/publicdomain/zero/1.0/</dcterms:license><dc:rights>“Pixel Art” (https://www.figma.com/community/file/1198754108850888330) by “DiceBear”, licensed under “CC0 1.0” (https://creativecommons.org/publicdomain/zero/1.0/)</dc:rights></rdf:Description></rdf:RDF></metadata><defs><g id="clothes-variant15-0e4359d9"><path d="M4 2H2v1H1v1h4V3H4zm6 1h1v1H7V3h1V2h2z" fill="#5bc0de"/></g><g id="eyes-variant01-0e4359d9"><rect width="3" height="3" transform="matrix(-1 0 0 1 8 0)" fill="white"/><rect width="3" height="3" transform="matrix(-1 0 0 1 3 0)" fill="white"/><rect width="2" height="1" transform="matrix(-1 0 0 1 8 1)" fill="#697b94"/><rect width="2" height="1" transform="matrix(-1 0 0 1 3 1)" fill="#697b94"/><rect width="1" height="1" transform="matrix(-1 0 0 1 8 1)" fill="white" fill-opacity=".7"/><rect width="1" height="1" transform="matrix(-1 0 0 1 3 1)" fill="white" fill-opacity=".7"/></g><g id="mouth-happy08-0e4359d9"><path d="M0 2V1h3V0h1v1H3v1z" fill="#de0f0d"/></g><g id="hair-long09-0e4359d9"><path d="M2 1h12v1h1v11h-1v-1h-1V8h1V6h-1V3H3v3H2v2h1v4H2v1H1V2h1z" fill="#603015"/></g><clipPath id="clip-0e4359d9"><rect width="16" height="16" rx="0" ry="0"/></clipPath></defs><g clip-path="url(#clip-0e4359d9)"><path d="M4 2h8v1h1v3h1v2h-1v3h-1v1H9v1h4v1h1v2H2v-2h1v-1h4v-1H4v-1H3V8H2V6h1V3h1z" fill="#f5cfa0"/><path d="M4 2h8v1h1v3h1v2h-1v3h-1v1H4v-1H3V8H2V6h1V3h1z" fill="white" fill-opacity=".1"/><use transform="translate(2 12)" href="#clothes-variant15-0e4359d9"/><use transform="translate(4 5)" href="#eyes-variant01-0e4359d9"/><use transform="translate(6 9)" href="#mouth-happy08-0e4359d9"/><use href="#hair-long09-0e4359d9"/></g></svg>