<svg xmlns="http://www.w3.org/2000/svg" viewBox="0 0 980 980" fill="none" shape-rendering="auto" aria-hidden="true"><!-- Generated by DiceBear (https://dicebear.com) --><metadata xmlns:rdf="http://www.w3.org/1999/02/22-rdf-syntax-ns#" xmlns:xsi="http://www.w3.org/2001/XMLSchema-instance" xmlns:dc="http://purl.org/dc/elements/1.1/" xmlns:dcterms="http://purl.org/dc/terms/"><rdf:RDF><rdf:Description><dc:title>Lorelei</dc:title><dc:creator>Lisa Wischofsky</dc:creator><dc:source xsi:type="dcterms:URI">https://www.figma.com/community/file/1198749693280469639</dc:source><dcterms:license xsi:type="dcterms:URI">https://creativecommons.org/publicdomain/zero/1.0/</dcterms:license><dc:rights>Remix of “Lorelei” (https://www.figma.com/community/file/1198749693280469639) by “Lisa Wischofsky”, licensed under “CC0 1.0” (https://creativecommons.org/publicdomain/zero/1.0/)</dc:rights></rdf:Description></rdf:RDF></metadata><defs><g id="eyes-variant01-cf6042b9"><path d="m337 47-1 7q-4 7-11 12l-18 5-18 2q-6 0-10 5l-6 8q-5 1-5-3 4-11 12-20 5-6 11-7l31-5q7-3 15-4M33 51c11-1 21 3 32 4q22 3 45 4l24 2q12 0 23 4 10 6 17 16 2 3 0 6h-4q-5-5-11-7l-12-1-28-1-22-1q-16 0-30-5-10-4-19-10l-13-8q-2-1-2-3" fill="#000000"/></g><g id="eyebrows-variant09-cf6042b9"><path d="M142 36q11 1 20 6 5 3 7 8 1 5-2 6-7 1-14-3l-9-1q-20-1-38 5a169 169 0 0 0-61 30q-6 5-14 5-4-3-2-7 4-10 13-16 15-13 34-21 32-14 66-12m156 2q11-2 20 3 7 5 10 12 1 3-2 7-6 1-11-2-6-4-15-6l-13 4q-13 6-21 18l-6 9-3 1v-7q4-12 13-22 12-12 28-17" fill="#000000"/></g><g id="nose-variant04-cf6042b9"><path d="M39 67a37 37 0 0 1 19 29q-1 15-13 22-9 5-18 7-4 2-8 0-2-3 1-6l21-12q5-3 5-9c0-10-5-17-7-26z" fill="#000000"/></g><g id="mouth-happy14-cf6042b9"><path d="M59 44q4-1 5 2-2 5-6 8-4-6 1-10m25 12q17 5 36 7l30 3q10-1 19 2-1 3-6 4-16 3-32 2-22-2-42-9-5-2-9-6 0-4 4-3" fill="#000000"/></g><g id="glasses-variant01-cf6042b9"><path d="M72 15q28-18 62-14 20 3 37 15 4-4 10 0 18 13 29 34 14 26 9 55 15-9 31-4c-2-34 16-69 44-87q17-13 39-12 14 0 27 6c3 2 6 0 9 3q14 9 23 26 12 23 8 50c-4 29-20 57-45 72q-22 14-47 11-20-3-35-17-14-12-19-31-3-6-9-8-15-4-26 5l-5 7q-12 30-39 46a99 99 0 0 1-57 15c-31-2-60-19-76-45A92 92 0 0 1 72 15m97 4q-31-14-63-7c-27 7-50 26-60 52a81 81 0 0 0 24 90c20 18 49 25 75 18q30-7 48-32c16-23 19-54 8-79q-9-20-27-33l-5-5zm187-3q-12-5-26-3-23 3-41 19a88 88 0 0 0-25 77q4 22 19 36 13 11 30 13 21 0 38-12c26-18 41-51 36-82q-3-22-19-38-5-2-8-6z" fill="#000000"/></g><g id="head-variant01-cf6042b9"><path d="M331 12q63 11 114 48 42 32 65 81 20 43 18 90 0 23-7 44l-2 1 1-21q2-45-13-87-17-46-51-79c-41-40-98-63-155-64a243 243 0 0 0-196 95 207 207 0 0 0-41 139l3 24c8 0 19 1 25 8l-4 2q-8 2-16 1-19 2-33 14a64 64 0 0 0-18 39c-4 32 13 65 40 83q25 17 55 8 6-3 14-2 3 2 5 7 8 19 21 37a251 251 0 0 0 68 63q14 11 29 17 28 12 57 20l32 8 13 3-4 1q-37 2-72-10-18-4-34-12a306 306 0 0 1-85-63l3 28q2 26-6 52-6 19-20 33-14 16-33 27-15 10-32 18-7 4-16 4l9-8 30-21 23-16q11-10 18-23 10-15 13-33 3-22 3-43v-28c-10-13-23-29-27-45-17 8-38 6-55-1q-27-11-43-34-18-24-22-55-2-32 16-56 14-17 35-21-6-22-6-44 0-38 13-74 22-58 70-99a249 249 0 0 1 198-56" fill="black"/><path d="M456 89q35 34 51 79 15 42 13 87l-1 21-5 15q-2 6-2 13l2 56-1 62-3 48q-3 24-15 44-15 29-43 45-20 11-41 16l-39 10-16 3q0 3 2 3 13 6 27 4-6 11-2 21 6 11 17 15 17 7 36 8 12 10 16 25 3 12-2 23-8 15-24 23-20 11-42 18-60 14-121 12-52-1-101-13-25-6-48-17-18-8-32-23-8-9-10-22 17-8 32-18 19-11 33-27 14-14 20-33 8-26 6-52l-3-28q12 13 23 22 28 24 62 41 16 8 34 12 35 12 72 10l4-1-13-3-32-8q-29-8-57-20-15-6-29-17-18-11-34-26a251 251 0 0 1-55-74q-2-5-5-7-8-1-14 2-30 9-55-8a88 88 0 0 1-40-83q3-23 18-39 14-12 33-14 8 1 16-1l4-2c-6-7-17-8-25-8l-3-24 2-46q8-52 39-93 35-47 87-72 52-24 109-23c57 1 114 24 155 64" fill="#ffffff"/><path d="M514 291q4 1 4 6 4 16 5 34l1 21q3 33 2 65 0 32-5 65-6 27-22 50-22 33-58 49-24 9-48 13v15l5 6q17 8 36 10 18 4 36 12-5 3-11 4-12 1-23-2-19-1-36-8-12-4-17-15-3-10 2-21-14 2-27-4-2 0-2-3l16-3 39-10q21-5 41-16 28-16 43-45 12-20 15-44l3-48 1-62-2-56q0-7 2-13M56 318q13-1 23 6 8 7 12 16 1 4-3 7l-12 9c-7 6-7 19 0 24q10 8 21 11 4 1 6 4l-5 3q-16 0-28-9-7-5-10-13-3-13 5-24 7-8 17-12-4-9-13-13l-23-5z" fill="black"/><use transform="translate(159 232)" href="#eyes-variant01-cf6042b9"/><use transform="translate(164 126)" href="#eyebrows-variant09-cf6042b9"/><use transform="translate(359 274)" href="#nose-variant04-cf6042b9"/><use transform="translate(223 402)" href="#mouth-happy14-cf6042b9"/><use transform="translate(152 197)" href="#glasses-variant01-cf6042b9"/></g><g id="hair-variant12-cf6042b9"><use transform="translate(131 168)" href="#head-variant01-cf6042b9"/><path d="M565 114a213 213 0 0 1 55 22l3 9-13-2-30-3q-32 2-62 16 24 0 47 5 45 8 77 39 27 24 37 59 7 29 0 58a127 127 0 0 1-73 85l-20 8q-3 1-4-1 1-14 5-27l3-24-5-33-9 20q-14 26-40 41-20 12-42 17-27 6-56 9h-19l-4-4 7-10 14-29 8-25q4-21 5-42-17 35-41 66a299 299 0 0 1-67 59q-19 11-40 18-8 3-16 1l1-13 4-31q-10 24-16 50-5 41 5 83 2 7 2 15-12 3-23-2-42-17-59-60-2-3-7-5-14-9-23-23-13-22-16-48a204 204 0 0 1 29-137q17-28 42-52a146 146 0 0 1 75-38q14-2 29-7l28-9c27-10 50-24 77-36a229 229 0 0 1 132-19" fill="#000000"/></g><clipPath id="clip-cf6042b9"><rect width="980" height="980" rx="0" ry="0"/></clipPath></defs><g clip-path="url(#clip-cf6042b9)"><use transform="translate(76 3)" href="#hair-variant12-cf6042b9"/></g></svg>