<svg xmlns="http://www.w3.org/2000/svg" viewBox="0 0 980 980" fill="none" shape-rendering="auto" aria-hidden="true"><!-- Generated by DiceBear (https://dicebear.com) --><metadata xmlns:rdf="http://www.w3.org/1999/02/22-rdf-syntax-ns#" xmlns:xsi="http://www.w3.org/2001/XMLSchema-instance" xmlns:dc="http://purl.org/dc/elements/1.1/" xmlns:dcterms="http://purl.org/dc/terms/"><rdf:RDF><rdf:Description><dc:title>Lorelei</dc:title><dc:creator>Lisa Wischofsky</dc:creator><dc:source xsi:type="dcterms:URI">https://www.figma.com/community/file/1198749693280469639</dc:source><dcterms:license xsi:type="dcterms:URI">https://creativecommons.org/publicdomain/zero/1.0/</dcterms:license><dc:rights>Remix of “Lorelei” (https://www.figma.com/community/file/1198749693280469639) by “Lisa Wischofsky”, licensed under “CC0 1.0” (https://creativecommons.org/publicdomain/zero/1.0/)</dc:rights></rdf:Description></rdf:RDF></metadata><defs><g id="eyes-variant07-51634df6"><path d="M91 15q23-1 43 11t28 34q4 6 1 12-7-5-12-13-9-13-22-22-18-11-38-10-23 4-38 19L40 57q-5-7 1-15 18-24 50-27m230 2q8 3 12 11 4 13-1 25-2 5-7 5-5-2-5-9 2-10-1-19-4-4-10-4-14 1-24 8-18 10-28 28-1 4-5 5-2-4 0-10 8-20 26-32 11-7 21-9 11-3 22 1" fill="#000000"/><path d="M289 42q9 2 11 12 3 13-3 24 15-3 29-10c-4 9-15 14-24 18q-15 7-31 8-8 1-13-4 4-6 11-6-3-9-2-19 1-9 7-16 6-6 15-7M129 52q6-2 11 4 5 5 7 13 2 10 0 22h13q4 1 3 4-2 4-7 4-16 5-33 4-26 0-50-10-8-2-14-8l11 3q19 4 38 5-5-16 1-28 7-12 20-13" fill="#000000"/></g><g id="eyebrows-variant03-51634df6"><path d="M119 47q15-1 29 3t23 18q5 12-6 20-11 4-23 2-31-6-61-14l-20-4-10-3q-2 0-3-4 2-5 9-7l20-7 18-3zm176 5q12 2 23 7l8 5q4 3 1 7-4 4-9 5-26 8-52 12l-9 1-8-4q-4-4-4-10 0-12 8-20 8-4 16-4 14-2 26 1" fill="#000000"/></g><g id="nose-variant03-51634df6"><path d="M52 101q0 4-4 9-7 9-18 12c-5 1-9-2-13 0H5q-3-3 0-7 5-6 12-7 6-2 10 2l1 7 11-8z" fill="#000000"/></g><g id="mouth-happy02-51634df6"><path d="M57 26q4 1 7 4l13 7q17 8 34 12 22 5 45 6l34 1 3 1c-17 10-40 11-60 10q-35-1-66-18-11-5-15-16 0-5 5-7" fill="#000000"/></g><g id="head-variant03-51634df6"><path d="M299 3q42 2 83 14 33 10 59 28 23 16 41 38 30 38 36 86a361 361 0 0 1 2 101l-5 34-4 20q-1 2-3 2l-3-12 3-44q2-36 1-72-2-23-6-45-10-43-40-75-28-27-63-43-33-14-67-19-27-4-54-5a277 277 0 0 0-128 30q-20 13-35 32-18 23-30 50-20 42-24 89-5 36 7 70 4 7 6 15 7-1 12 1 3 2 1 3l-10 3q-15 3-29 12-11 7-18 19-6 15-2 32 9 31 33 50 19 13 40 16l30-1q7 7 11 17l18 27a136 136 0 0 0 66 50q33 12 67 19l42 8q8 1 17 5 2 2-1 3l-11 1a535 535 0 0 1-67-9 255 255 0 0 1-84-32q-16-12-30-27a214 214 0 0 1-15 123q-24 42-70 57-5 2-10 1-2-1-2-3 1-4 6-6 19-11 37-24 21-15 31-38t13-48q3-20 2-40l-4-38-18-36q-9 3-19 3a88 88 0 0 1-75-37 93 93 0 0 1-20-58q0-14 8-25 7-11 19-17 8-5 18-8l-9-24q-8-33-3-67a292 292 0 0 1 64-149q12-15 29-26l20-9Q228-2 299 3" fill="black"/><path d="M279 11q27 1 54 5 34 5 67 19 34 15 63 43 30 32 40 75 5 22 6 45 1 36-1 72l-3 44 3 12-1 20q-3 8-2 15l-6 75q-1 19-8 36-5 13-15 24-20 19-43 33-29 14-59 23l-13 9q12 1 24-2-6 17-7 36l2 16q4 8 13 11 17 9 35 14l65 27 6 11q9 17 3 36-8 19-27 31-25 16-55 23-56 14-113 11-63-1-122-18-30-8-58-23-23-12-40-32-10-12-12-28a122 122 0 0 0 85-107q7-36 0-73 13 15 30 27l26 14q27 13 58 18a331 331 0 0 0 67 9l11-1q3-1 1-3-9-4-17-5l-42-8q-34-7-67-19-21-9-39-22-15-12-27-28l-18-27q-4-10-11-17l-30 1q-21-3-40-16a94 94 0 0 1-33-50q-4-17 2-32 7-12 18-19 14-9 29-12l10-3q2-2-1-3-5-2-12-1-2-8-6-15-12-34-7-70a276 276 0 0 1 54-139q15-19 35-32 17-9 35-15 45-16 93-15" fill="#ffffff"/><path d="M63 340q6-1 12 1 9 2 14 9 3 5-1 9c-4 7-11 10-15 17l21 9q6 1 11 6l1 2q-4 1-8-1l-24-7q-7-1-9-7-1-6 3-10l15-14c-5-6-16-7-20-14m444 6q2 1 2 3l2 16a483 483 0 0 1-2 89q-2 17-11 32-8 16-22 27a198 198 0 0 1-84 44c0 15-3 32-1 48q1 3 5 5 13 7 27 11a451 451 0 0 1 68 29q11 6 18 15-9 0-16-2l-65-27q-18-5-35-14-9-3-13-11-3-8-2-16 1-19 7-36-12 3-24 2l13-9q30-9 59-23 23-14 43-33 10-10 15-24 7-17 8-36l6-75q-1-7 2-15" fill="black"/><use transform="translate(159 232)" href="#eyes-variant07-51634df6"/><use transform="translate(164 126)" href="#eyebrows-variant03-51634df6"/><use transform="translate(359 274)" href="#nose-variant03-51634df6"/><use transform="translate(223 402)" href="#mouth-happy02-51634df6"/></g><g id="hair-variant07-51634df6"><use transform="translate(131 168)" href="#head-variant03-51634df6"/><path d="m367 138 40 1q73 4 144 22 42 9 79 30 22 12 37 30 19 20 24 46 6 32-4 64-7 23-27 40-27 23-64 26-4 0-3-3l7-16a97 97 0 0 1-37 23q-7 2-14-1l-1-4q1-22-4-44-6-22-19-42 4 23-2 46-5 20-18 36-5 6-12 3l-2-7q-4-16-12-31-14-30-37-53a250 250 0 0 0-76-53 380 380 0 0 1-9 104q-6 22-20 41l-11 12h-7q1-19-2-37-3-17-9-32-7 27-26 46-13 14-28 23-3 33-1 68l1 30q0 6-5 9-8-2-14-6-18-13-32-28a181 181 0 0 1-46-135q3-54 31-99a223 223 0 0 1 116-94q31-13 63-15" fill="#000000"/></g><clipPath id="clip-51634df6"><rect width="980" height="980" rx="0" ry="0"/></clipPath></defs><g clip-path="url(#clip-51634df6)"><use transform="translate(76 3)" href="#hair-variant07-51634df6"/></g></svg>