<svg xmlns="http://www.w3.org/2000/svg" viewBox="0 0 980 980" fill="none" shape-rendering="auto" aria-hidden="true"><!-- Generated by DiceBear (https://dicebear.com) --><metadata xmlns:rdf="http://www.w3.org/1999/02/22-rdf-syntax-ns#" xmlns:xsi="http://www.w3.org/2001/XMLSchema-instance" xmlns:dc="http://purl.org/dc/elements/1.1/" xmlns:dcterms="http://purl.org/dc/terms/"><rdf:RDF><rdf:Description><dc:title>Lorelei</dc:title><dc:creator>Lisa Wischofsky</dc:creator><dc:source xsi:type="dcterms:URI">https://www.figma.com/community/file/1198749693280469639</dc:source><dcterms:license xsi:type="dcterms:URI">https://creativecommons.org/publicdomain/zero/1.0/</dcterms:license><dc:rights>Remix of “Lorelei” (https://www.figma.com/community/file/1198749693280469639) by “Lisa Wischofsky”, licensed under “CC0 1.0” (https://creativecommons.org/publicdomain/zero/1.0/)</dc:rights></rdf:Description></rdf:RDF></metadata><defs><g id="eyes-variant02-cd603f93"><path d="M314 9q12-2 21 7 7 5 7 12-1 9-10 8c-6-1-7-6-12-9q-4-3-9-4 10 17 3 35-4 13-17 19-10 4-18-5-6-8-6-20-5 7-7 15l-3 5q-2-8 1-17 9-25 31-39 9-5 19-7M102 21c26 1 51 17 63 39l3 10q-1 3-3 1l-7-8-11-13q3 17-8 31-10 12-24 10c-14-1-25-12-28-25q-2-16 7-30-21 5-39 17-3 3-2 7l9 11q16 14 37 21 6 0 11 4-10 4-19 1-18-4-34-18-9-8-13-19c-1-4-5-6-4-10q2-8 9-12 23-18 53-17" fill="#000000"/><path d="M315 67q1 6-3 11-7 9-18 11-14 3-25-2-4-2-3-6l8 1q16 0 31-8z" fill="#000000"/></g><g id="eyebrows-variant04-cd603f93"><path d="M315 23q6 2 9 8l-35 13-16 9q-10 6-22 8l-13 3-7 8-6 12-3-3q-2-9 2-16 3-10 8-18l9-10q8-4 15 0v6l25-13q16-9 34-7m-194 3c13 2 31 0 44 6q12 6 17 20l-1 3q-5 5-14 2l-9-8-8-2q-12-3-25-2c-12-1-23-7-36-8l-27-4-4-2q14-5 28-6 18-1 35 1" fill="#000000"/><path d="M180 29q8-3 16 2 7 6 10 15 1-6 5-11 11 4 13 14 4 9 0 16c-2 4-8 8-12 4q-6-8-6-17 0 5-5 9-5 3-8-2-4-5-6-12l-7-15z" fill="#000000"/></g><g id="nose-variant01-cd603f93"><path d="m42 0 3 15 3 26 8 13 6 12 5 14q5 7 5 16-1 15-14 20l-19 8q-7 5-15 5-8 1-14-5-1-3 3-5l12-3 16-5 13-5q10-4 7-14l-5-8-7-17-7-19q-6-12-5-26 0-11 4-22" fill="#000000"/></g><g id="mouth-happy16-cd603f93"><path d="M33 13q15 0 31 5c23 5 46 13 69 16 22 2 42-8 65-2q9 2 14 11 6 7 3 15-3 11-13 17-12 6-24 8l-30 2q-15 1-29-2l-31-7-26-8q-12-2-23-8-9-4-17-10-11-9-8-23 4-13 19-14m146 26-38 5q0 14-5 28l-2 5 20 1 19-2V63zm-87-4q2 8-1 15-1 9-5 18l22 5 22 4q-3-17 3-34-20-2-41-8m95 3q0 10-3 20-2 9-6 17 9-1 18-6 8-4 11-13v-8l-8-8zM46 23v11l-4 20 18 6 22 7q0-18 4-34zm-8-1H28q-6 3-8 8l3 9q5 6 12 11-1-15 3-28M6 4q6-3 13-4-7 11-19 13 1-5 6-9" fill="#000000"/></g><g id="head-variant02-cd603f93"><path d="M290 4c57-1 115 19 159 56q39 34 59 81c14 34 20 73 14 109q-1 8-4 12l-2-2 1-33A215 215 0 0 0 345 21 235 235 0 0 0 75 174q-18 57-6 115l17-1q4 0 6 3 1 3-2 4l-11 3q-21 5-37 19a63 63 0 0 0-22 45q-1 18 8 35 12 20 32 31 30 16 63 6h6q3 2 4 6l15 29q10 15 21 27 23 23 51 36 43 21 90 27 6 1 10 4 1 3-2 4l-11 1a231 231 0 0 1-147-62q8 26 8 54 0 17-7 33-6 15-18 27a196 196 0 0 1-61 43l3-3 17-14q19-17 35-38a93 93 0 0 0 16-65l-3-39-2-10q-7-8-12-17-9-15-14-31-11 3-22 3c-28 1-56-12-74-34a81 81 0 0 1-18-51q0-18 8-34 14-25 39-36-11-47-2-93 12-61 51-108C149 38 219 6 290 4" fill="black"/><path d="M345 21a214 214 0 0 1 172 206l-1 33v15q-3 2-3 5-3 27 1 55 7 43 2 88-4 43-30 79-26 31-63 43-21 7-44 12l-33 9q3 2 7 2l36-2q-7 11-10 26-1 15 10 26 10 10 24 14 8 3 17 3 11 13 14 30 3 18-8 34-15 20-37 30-27 13-58 18a352 352 0 0 1-191-24c-18-9-38-23-48-41q-7-11-7-25 28-14 48-37 12-12 18-27 7-16 7-33 0-28-8-54l19 16a235 235 0 0 0 128 46l11-1q2-1 2-4-4-3-10-4-47-6-90-27-28-13-51-36-11-12-21-27l-15-29q-1-4-4-6h-6a82 82 0 0 1-95-37q-8-17-8-35 2-28 22-45 16-14 37-19l11-3q3-1 2-4-2-3-6-3l-17 1q-12-58 6-115 21-59 69-101a236 236 0 0 1 201-52" fill="#ffffff"/><path d="m516 275 3 3 1 13 3 45q5 30 5 60 0 23-5 47-10 43-40 76-15 15-33 25-26 16-55 21c-1 8-5 16-4 25q0 8 5 14 13 13 28 20l18 9-12 2q-9 0-17-3-14-4-24-14-11-11-10-26 3-15 10-26-18 3-36 2-4 0-7-2l33-9q23-4 44-12 38-13 63-43 26-36 30-79 5-45-2-88-4-27-1-55 0-3 3-5M66 334q8 0 15 7 3 5 1 10l-11 22q-1 5 3 9l23 10-1 2H85q-9-1-17-6-9-6-7-17l11-23c-6-4-13-2-19-8q5-6 13-6" fill="black"/><use transform="translate(159 232)" href="#eyes-variant02-cd603f93"/><use transform="translate(164 126)" href="#eyebrows-variant04-cd603f93"/><use transform="translate(359 274)" href="#nose-variant01-cd603f93"/><use transform="translate(223 402)" href="#mouth-happy16-cd603f93"/></g><g id="hair-variant03-cd603f93"><path d="M566 124q28 13 42 39 11 26 7 54 21 23 24 53 1 16-2 30-3 7-7 11-2 2-5 1-6-2-9-8-13-16-23-36-12 15-29 23l-6-2c-9-6-13-17-22-21l-6 18q-1 4-6 6l-17-6q-33-16-68-27 2 9 1 17l-5 7-14-1a188 188 0 0 0-69 1q-9 2-18 7-24 11-49 19l-11 27-13 37q-2 5-1 10c2 3 8 5 10 8l-1 6q-5 16-7 33-3 24-2 49v20q-2 6-8 7t-12-2l20 13q4 3 4 8-1 4-5 4l6 5q2 5-3 9-7 4-15-3-6-4-5-10 1-3 4-4-8-3-14-11l-38-21-11-7-4-7a322 322 0 0 1-23-121q1-32 11-61 6-20 19-37 11-14 28-21-5-15 0-30 9-22 29-34 27-15 57-20 41-7 83-12 40-8 79-18 27-8 57-11 25-2 47 9" fill="#000000"/><use transform="translate(131 168)" href="#head-variant02-cd603f93"/><path d="M551 118q19 5 34 18 20 14 27 37a105 105 0 0 1-16 90q-12 19-32 28-10-3-16-12-5-8-13-11 0 7-4 15l-4 8c-3 2-8-1-11-1l-36-16q-20-9-42-15 3 9 2 17l-5 7-14-1q-21-3-43-2c-23 1-46 8-69 12l-17 2-12 26q-11 25-19 52l-1 11 9 8 1 5q-5 15-8 31-3 28-2 56v16q-2 6-8 7t-12-2l20 14q5 3 4 7-2 4-5 4 5 2 6 8 1 5-6 7c-7 1-16-5-17-12q-1-5 4-6-11-5-18-16-4-6-4-14 2-2 5 0-10-9-18-21l-6-3-25-5q-4 0-7-4l-5-17-8-44a370 370 0 0 1-1-70q2-16 8-31a118 118 0 0 1 48-60q-5-14-2-28 7-23 28-36 26-15 57-21l85-12 76-17 36-9q29-7 56 0" fill="#000000"/></g><clipPath id="clip-cd603f93"><rect width="980" height="980" rx="0" ry="0"/></clipPath></defs><g clip-path="url(#clip-cd603f93)"><use transform="translate(76 3)" href="#hair-variant03-cd603f93"/></g></svg>