<svg xmlns="http://www.w3.org/2000/svg" viewBox="0 0 980 980" fill="none" shape-rendering="auto" aria-hidden="true"><!-- Generated by DiceBear (https://dicebear.com) --><metadata xmlns:rdf="http://www.w3.org/1999/02/22-rdf-syntax-ns#" xmlns:xsi="http://www.w3.org/2001/XMLSchema-instance" xmlns:dc="http://purl.org/dc/elements/1.1/" xmlns:dcterms="http://purl.org/dc/terms/"><rdf:RDF><rdf:Description><dc:title>Lorelei</dc:title><dc:creator>Lisa Wischofsky</dc:creator><dc:source xsi:type="dcterms:URI">https://www.figma.com/community/file/1198749693280469639</dc:source><dcterms:license xsi:type="dcterms:URI">https://creativecommons.org/publicdomain/zero/1.0/</dcterms:license><dc:rights>Remix of “Lorelei” (https://www.figma.com/community/file/1198749693280469639) by “Lisa Wischofsky”, licensed under “CC0 1.0” (https://creativecommons.org/publicdomain/zero/1.0/)</dc:rights></rdf:Description></rdf:RDF></metadata><defs><g id="eyes-variant05-d9605277"><path d="M329 22q10 4 13 13 2 9-2 18-8 12-20 18-18 10-37 8-10-1-17-6-7-6-5-13v-2q-1-10 5-18 14-15 35-19 14-4 28 1M134 32q11 4 21 12l5 5 6 5c5 8 5 19-2 25q-9 7-19 9-25 5-51-1-17-3-31-12-9-5-14-15-3-7 2-14 6-9 16-13c21-8 46-10 67-1" fill="#000000"/><path d="M314 27q7 0 15 4 5 3 5 9 0 9-7 15-12 12-29 14 5-12 0-25-3-7-9-11 12-6 25-6m-210 9q20 0 39 9 9 4 14 11v12q-4 6-11 8-27 8-53 0 5-7 5-16 2-13-9-23z" fill="white"/></g><g id="eyebrows-variant13-d9605277"><path d="m327 63 2 2-14 14-21 15-27 18q-6 5-13 7l-8 1-11 20h-2q-2-10 1-20 2-10 8-16l10-4 31-21q12-9 26-13zM10 72q15 0 28 2l26 7 15 1 24 2q11 4 23 6l34 11 3-5q3-2 5 1 7 13 11 25 2 8-6 9-7 0-12-6l-11-9-30-9-20-5-15-3-15-4-24-9c-10-4-20-4-29-9q-5-1-7-5" fill="#000000"/></g><g id="nose-variant05-d9605277"><path d="m36 23 2 2 7 22 15 23q6 9 5 20-2 10-9 16-11 10-25 16-7 5-18 2l6-4 36-24q4-4 4-9-2-9-8-16-8-13-13-25-4-11-2-23" fill="#000000"/></g><g id="mouth-sad08-d9605277"><path d="M196 21c2 0 8 1 7 4q-3 4-9 5-24 4-49 11 0 9-3 17-8 19-24 33-12 9-26 8-10-2-15-11-6-9-4-19L54 80l-4 1 2-4q5-7 15-13a308 308 0 0 1 84-35q22-7 45-8m-63 24-27 9q-2 12-7 21-2-3-1-7l2-12-23 11q3 10 8 19 8 6 17 2 11-4 17-14 9-14 14-29" fill="#000000"/></g><g id="head-variant01-d9605277"><path d="M331 12q63 11 114 48 42 32 65 81 20 43 18 90 0 23-7 44l-2 1 1-21q2-45-13-87-17-46-51-79c-41-40-98-63-155-64a243 243 0 0 0-196 95 207 207 0 0 0-41 139l3 24c8 0 19 1 25 8l-4 2q-8 2-16 1-19 2-33 14a64 64 0 0 0-18 39c-4 32 13 65 40 83q25 17 55 8 6-3 14-2 3 2 5 7 8 19 21 37a251 251 0 0 0 68 63q14 11 29 17 28 12 57 20l32 8 13 3-4 1q-37 2-72-10-18-4-34-12a306 306 0 0 1-85-63l3 28q2 26-6 52-6 19-20 33-14 16-33 27-15 10-32 18-7 4-16 4l9-8 30-21 23-16q11-10 18-23 10-15 13-33 3-22 3-43v-28c-10-13-23-29-27-45-17 8-38 6-55-1q-27-11-43-34-18-24-22-55-2-32 16-56 14-17 35-21-6-22-6-44 0-38 13-74 22-58 70-99a249 249 0 0 1 198-56" fill="black"/><path d="M456 89q35 34 51 79 15 42 13 87l-1 21-5 15q-2 6-2 13l2 56-1 62-3 48q-3 24-15 44-15 29-43 45-20 11-41 16l-39 10-16 3q0 3 2 3 13 6 27 4-6 11-2 21 6 11 17 15 17 7 36 8 12 10 16 25 3 12-2 23-8 15-24 23-20 11-42 18-60 14-121 12-52-1-101-13-25-6-48-17-18-8-32-23-8-9-10-22 17-8 32-18 19-11 33-27 14-14 20-33 8-26 6-52l-3-28q12 13 23 22 28 24 62 41 16 8 34 12 35 12 72 10l4-1-13-3-32-8q-29-8-57-20-15-6-29-17-18-11-34-26a251 251 0 0 1-55-74q-2-5-5-7-8-1-14 2-30 9-55-8a88 88 0 0 1-40-83q3-23 18-39 14-12 33-14 8 1 16-1l4-2c-6-7-17-8-25-8l-3-24 2-46q8-52 39-93 35-47 87-72 52-24 109-23c57 1 114 24 155 64" fill="#ffffff"/><path d="M514 291q4 1 4 6 4 16 5 34l1 21q3 33 2 65 0 32-5 65-6 27-22 50-22 33-58 49-24 9-48 13v15l5 6q17 8 36 10 18 4 36 12-5 3-11 4-12 1-23-2-19-1-36-8-12-4-17-15-3-10 2-21-14 2-27-4-2 0-2-3l16-3 39-10q21-5 41-16 28-16 43-45 12-20 15-44l3-48 1-62-2-56q0-7 2-13M56 318q13-1 23 6 8 7 12 16 1 4-3 7l-12 9c-7 6-7 19 0 24q10 8 21 11 4 1 6 4l-5 3q-16 0-28-9-7-5-10-13-3-13 5-24 7-8 17-12-4-9-13-13l-23-5z" fill="black"/><use transform="translate(159 232)" href="#eyes-variant05-d9605277"/><use transform="translate(164 126)" href="#eyebrows-variant13-d9605277"/><use transform="translate(359 274)" href="#nose-variant05-d9605277"/><use transform="translate(223 402)" href="#mouth-sad08-d9605277"/></g><g id="hair-variant47-d9605277"><path d="M400 157h27a276 276 0 0 1 178 82l7 7q1 3-2 8-5 5-15 6-37 4-75 5h-78l-39-1-27-1-66-6q4 30-6 59a161 161 0 0 1-41 64l-14 11 5 39q2 13 0 27l10 7h-13l12 13 6 11-5-1-21-7q-11-2-20-6 0 7-4 10-6 2-11 0-1 3-5 5c-3 1-4 5-9 4q-6 0-9-7l-10-19-6-27a248 248 0 0 1 7-123q12-32 31-61 18-24 42-44c42-35 97-54 151-55" fill="#000000"/><path d="M238 485q10 1 17 7l8 7-16-4-15-5v-3q3-3 6-2" fill="#000000"/><use transform="translate(131 168)" href="#head-variant01-d9605277"/><path d="M400 157h17q44 0 85 17 34 12 64 32 24 16 44 38 4 4 1 8-3 5-9 6l-26 4-23 1-30 2h-86l-37-1q-45-1-90-7 4 24-3 48a158 158 0 0 1-44 75l-14 11 5 39q2 13 0 27l10 7q-6 2-13 0l11 13 7 11-6-1q-8-4-18-6l-25-8-26-9q-7-2-10-9h-7q-5-2-7-7a237 237 0 0 1 51-209q38-44 93-65 42-15 86-17M243 486q11 1 21 6 9 5 14 13l-11-2-23-10-4-3q-1-3 3-4m8 18h5q14 4 25 12 7 3 9 9h-13q-13-4-24-12l-4-3q-1-4 2-6" fill="#000000"/></g><clipPath id="clip-d9605277"><rect width="980" height="980" rx="0" ry="0"/></clipPath></defs><g clip-path="url(#clip-d9605277)"><use transform="translate(76 3)" href="#hair-variant47-d9605277"/></g></svg>