<svg xmlns="http://www.w3.org/2000/svg" viewBox="0 0 180 180" fill="none" shape-rendering="auto" aria-hidden="true"><!-- Generated by DiceBear (https://dicebear.com) --><metadata xmlns:rdf="http://www.w3.org/1999/02/22-rdf-syntax-ns#" xmlns:xsi="http://www.w3.org/2001/XMLSchema-instance" xmlns:dc="http://purl.org/dc/elements/1.1/" xmlns:dcterms="http://purl.org/dc/terms/"><rdf:RDF><rdf:Description><dc:title>Bottts</dc:title><dc:creator>Pablo Stanley</dc:creator><dc:source xsi:type="dcterms:URI">https://bottts.com/</dc:source><dcterms:license xsi:type="dcterms:URI">https://bottts.com/</dcterms:license><dc:rights>Remix of “Bottts” (https://bottts.com/) by “Pablo Stanley”, licensed under “Free for personal and commercial use” (https://bottts.com/)</dc:rights></rdf:Description></rdf:RDF></metadata><defs><g id="sides-cables01-f9afd778"><path d="M32 12c-2.95 11.7-19.9 6.67-23.37 18-3.46 11.35 8.03 20 17.53 20" stroke="#2A3544" stroke-width="6" opacity=".9"/><path d="M144 55c8.4 3.49 20.1-7.6 16-16.5s-16-6.7-16-19.3" stroke="#2A3544" stroke-width="4" opacity=".9"/><mask id="sidesCables01-a" style="mask-type:luminance"><rect x="15" y="35" width="16" height="22" rx="2" fill="white"/><rect x="130" y="42" width="23" height="22" rx="2" fill="white"/><rect x="130" y="6" width="23" height="18" rx="2" fill="white"/></mask><g mask="url(#sidesCables01-a)"><path d="M-6 0h180v76H-6z" fill="#7a9f12"/><path d="M-6 0h180v76H-6z" fill="white" fill-opacity=".3"/></g></g><filter id="topGlowingBulb01-a" x="16" y=".59" width="52" height="48" filterUnits="userSpaceOnUse" color-interpolation-filters="sRGB"><feFlood flood-opacity="0" result="r0"/><feColorMatrix in="SourceAlpha" values="0 0 0 0 0 0 0 0 0 0 0 0 0 0 0 0 0 0 127 0" result="r1"/><feOffset/><feGaussianBlur stdDeviation="4"/><feColorMatrix values="0 0 0 0 1 0 0 0 0 1 0 0 0 0 1 0 0 0 0.5 0"/><feBlend in2="r0" result="r2"/><feBlend in="SourceGraphic" in2="r2" result="r3"/><feColorMatrix in="SourceAlpha" values="0 0 0 0 0 0 0 0 0 0 0 0 0 0 0 0 0 0 127 0" result="r1"/><feOffset/><feGaussianBlur stdDeviation="2"/><feComposite in2="r1" operator="arithmetic" k2="-1" k3="1"/><feColorMatrix values="0 0 0 0 1 0 0 0 0 1 0 0 0 0 1 0 0 0 0.5 0"/><feBlend in2="r3" result="r4"/></filter><g id="top-glowingBulb01-f9afd778"><g filter="url(#topGlowingBulb01-a)"><path fill-rule="evenodd" clip-rule="evenodd" d="M24 24.6a16 16 0 0 1 16-16h4a16 16 0 0 1 16 16v8a8 8 0 0 1-8 8H32a8 8 0 0 1-8-8z" fill="white" fill-opacity=".3"/></g><path d="M41 12.1c4.93 0 9.37 2.12 12.44 5.51" stroke="white" stroke-width="2" stroke-linecap="round"/><path d="M54.14 23.42 44 33.57v7.02h-4v-7.17l-10-10 2.83-2.83 9 9h.48l9.02-9z" fill="white" fill-opacity=".8"/><rect x="14" y="40.59" width="56" height="12" rx="1" fill="#48494B"/></g><g id="texture-dirty01-f9afd778"><path fill-rule="evenodd" clip-rule="evenodd" d="M33.88 128.1c4.36-30.7 13.06-4.57 33.99-9.98 9.24-2.4 1.77-12.82 8.67-17.35 5.82-3.82 13.76-.74 20.43-3.21 9.63-3.57 9.5-10.82 18.48-11.9 8.48-1.03 17.37 2.34 25.93 1.08 16.15-2.4 9.53-34.03 21.64-39.61 12.1-5.6 32.05 4.06 34.66 19.87 2.54 15.42-14.46 72.78-14.46 72.78H33.88" fill="black" fill-opacity=".2"/><path fill-rule="evenodd" clip-rule="evenodd" d="M78.93 128c37.67 0 41.6-14.75 60.13-21.5s34.79 10.71 41.02-6.27 6.2 35.95 6.2 35.95H78.93z" fill="black" fill-opacity=".1"/><path fill-rule="evenodd" clip-rule="evenodd" d="M41 10.87C52.73 9.75 48.96 22.8 53.6 22.8c1.85 0 4.03-8.46 7.38-8.46 2.46 0 2 5.5 7.33 4.91 5-.54 4.07-4 6.6-4 5.44 0 3.38 20.2 7.73 20.2s5.73-14.8 7.65-20.64c2.43-7.4 16.97-11.56 6.6-14.5H40.71" fill="black" fill-opacity=".4"/></g><g id="head-round02-f9afd778"><mask id="headRound02-a" style="mask-type:luminance"><path fill-rule="evenodd" clip-rule="evenodd" d="M0 31v-1c.18-.48.4-1.5 1-3 .83-3.06 2.78-6.56 6-10C16.7 6.6 35.17 0 65 0s48.3 6.6 58 17c3.22 3.44 5.17 6.94 6 10 .6 1.5.82 2.52 1 3v40c0-.1-.03.5 0 1a54 54 0 0 1-1 6c-1.19 6-3.4 11.91-7 17-9.72 16.34-27.74 26-57 26s-47.28-9.66-57-26c-3.6-5.1-5.8-11-7-17a54 54 0 0 1-1-6c.03-.45 0-1.32 0-1z" fill="white"/></mask><g mask="url(#headRound02-a)"><path d="M-4-2h138v124H-4z" fill="#7a9f12"/><use transform="translate(-44 -7)" href="#texture-dirty01-f9afd778"/></g></g><g id="mouth-grill01-f9afd778"><rect x="8" y="8" width="4" height="8" rx="2" fill="black" fill-opacity=".6"/><rect x="32" y="8" width="4" height="8" rx="2" fill="black" fill-opacity=".6"/><rect x="20" y="8" width="4" height="8" rx="2" fill="black" fill-opacity=".6"/><rect x="44" y="8" width="4" height="8" rx="2" fill="black" fill-opacity=".6"/><rect x="56" y="8" width="4" height="8" rx="2" fill="black" fill-opacity=".6"/></g><g id="eyes-hearts-f9afd778"><path d="M29.27 9.68c-2.55.13-4.96 2.24-6.25 4.15-1.48-1.76-4.1-3.6-6.65-3.47-5.48.28-8.85 3.8-8.63 8.1.3 5.72 4.88 8.89 9.7 12.24 1.7 1.15 5 4.15 5.42 4.82s2.14.6 2.58-.13a38 38 0 0 1 4.9-5.36c4.43-3.84 8.66-7.47 8.36-13.2-.23-4.3-3.95-7.44-9.43-7.15m58.36.68c-2.55-.14-5.17 1.7-6.65 3.47-1.3-1.9-3.7-4.02-6.25-4.15-5.48-.29-9.2 2.86-9.43 7.16-.3 5.72 3.93 9.35 8.36 13.2 1.6 1.31 4.55 4.63 4.9 5.35.35.7 2.06.82 2.58.13a37 37 0 0 1 5.42-4.82c4.8-3.35 9.4-6.52 9.7-12.24.22-4.3-3.15-7.82-8.63-8.1" fill="#FF5353" fill-opacity=".8"/></g><clipPath id="clip-f9afd778"><rect width="180" height="180" rx="0" ry="0"/></clipPath></defs><g clip-path="url(#clip-f9afd778)"><use transform="translate(6 66)" href="#sides-cables01-f9afd778"/><use transform="translate(49 -.6)" href="#top-glowingBulb01-f9afd778"/><use transform="translate(25 44)" href="#head-round02-f9afd778"/><use transform="translate(56 128)" href="#mouth-grill01-f9afd778"/><use transform="translate(38 76)" href="#eyes-hearts-f9afd778"/></g></svg>