<svg xmlns="http://www.w3.org/2000/svg" viewBox="0 0 180 180" fill="none" shape-rendering="auto" aria-hidden="true"><!-- Generated by DiceBear (https://dicebear.com) --><metadata xmlns:rdf="http://www.w3.org/1999/02/22-rdf-syntax-ns#" xmlns:xsi="http://www.w3.org/2001/XMLSchema-instance" xmlns:dc="http://purl.org/dc/elements/1.1/" xmlns:dcterms="http://purl.org/dc/terms/"><rdf:RDF><rdf:Description><dc:title>Bottts</dc:title><dc:creator>Pablo Stanley</dc:creator><dc:source xsi:type="dcterms:URI">https://bottts.com/</dc:source><dcterms:license xsi:type="dcterms:URI">https://bottts.com/</dcterms:license><dc:rights>Remix of “Bottts” (https://bottts.com/) by “Pablo Stanley”, licensed under “Free for personal and commercial use” (https://bottts.com/)</dc:rights></rdf:Description></rdf:RDF></metadata><defs><g id="sides-antenna02-ffb45e18"><mask id="sidesAntenna02-a" style="mask-type:luminance"><rect x="4" y="28" width="36" height="32" rx="4" fill="white"/><rect x="154" y="9" width="2" height="20" fill="white"/><rect x="128" y="28" width="36" height="32" rx="4" fill="white"/></mask><g mask="url(#sidesAntenna02-a)"><path d="M-6 0h180v76H-6z" fill="#de6811"/><path d="M-6 0h180v76H-6z" fill="white" fill-opacity=".3"/><rect x="-6" y="38" width="180" height="38" fill="black" fill-opacity=".1"/></g><rect x="154" y="8" width="2" height="20" fill="white" fill-opacity=".4"/><circle cx="155" cy="5" r="4" fill="#E1E6E8"/><circle cx="156" cy="4" r="2" fill="white"/></g><g id="top-bulb01-ffb45e18"><mask id="topBulb01-a" style="mask-type:luminance"><path fill-rule="evenodd" clip-rule="evenodd" d="M24 16.6a16 16 0 0 1 16-16h4a16 16 0 0 1 16 16v16a8 8 0 0 1-8 8H32a8 8 0 0 1-8-8z" fill="white"/><rect x="14" y="40.59" width="56" height="12" rx="1" fill="white"/></mask><g mask="url(#topBulb01-a)"><path d="M-8 .6H92v52H-8z" fill="#de6811"/><path d="M-8 .6H92v52H-8z" fill="white" fill-opacity=".3"/><rect x="12" y="-2.41" width="60" height="43" fill="white" fill-opacity=".4"/><path d="M41 4.1c4.93 0 9.37 2.12 12.44 5.51" stroke="white" stroke-width="2" stroke-linecap="round"/><path d="M54.14 20.42 44 30.57v10.02h-4V30.42l-10-10 2.83-2.83 9 9h.48l9.02-9z" fill="white" fill-opacity=".8"/></g></g><g id="head-square03-ffb45e18"><mask id="headSquare03-a" style="mask-type:luminance"><path fill-rule="evenodd" clip-rule="evenodd" d="M0 18A18 18 0 0 1 18 0h94a18 18 0 0 1 18 18v27.15a40 40 0 0 1-2.28 13.31L110.24 108a18 18 0 0 1-16.98 12H36.74a18 18 0 0 1-16.98-12L2.28 58.45A40 40 0 0 1 0 45.15z" fill="white"/></mask><g mask="url(#headSquare03-a)"><path d="M-2-2h134v124H-2z" fill="#de6811"/></g></g><g id="mouth-grill01-ffb45e18"><rect x="8" y="8" width="4" height="8" rx="2" fill="black" fill-opacity=".6"/><rect x="32" y="8" width="4" height="8" rx="2" fill="black" fill-opacity=".6"/><rect x="20" y="8" width="4" height="8" rx="2" fill="black" fill-opacity=".6"/><rect x="44" y="8" width="4" height="8" rx="2" fill="black" fill-opacity=".6"/><rect x="56" y="8" width="4" height="8" rx="2" fill="black" fill-opacity=".6"/></g><g id="eyes-robocop-ffb45e18"><rect x="7" y="16" width="91" height="16" rx="4" fill="black" fill-opacity=".8"/><mask id="eyesRobocop-a" style="mask-type:luminance"><rect x="7" y="16" width="91" height="16" rx="4" fill="white"/></mask><g mask="url(#eyesRobocop-a)"><path fill-rule="evenodd" clip-rule="evenodd" d="M76 7h18L82 37H64zM52 7h9L49 37h-9z" fill="white" fill-opacity=".8"/></g></g><clipPath id="clip-ffb45e18"><rect width="180" height="180" rx="0" ry="0"/></clipPath></defs><g clip-path="url(#clip-ffb45e18)"><use transform="translate(6 66)" href="#sides-antenna02-ffb45e18"/><use transform="translate(49 -.6)" href="#top-bulb01-ffb45e18"/><use transform="translate(25 44)" href="#head-square03-ffb45e18"/><use transform="translate(56 128)" href="#mouth-grill01-ffb45e18"/><use transform="translate(38 76)" href="#eyes-robocop-ffb45e18"/></g></svg>