<svg xmlns="http://www.w3.org/2000/svg" viewBox="0 0 180 180" fill="none" shape-rendering="auto" aria-hidden="true"><!-- Generated by DiceBear (https://dicebear.com) --><metadata xmlns:rdf="http://www.w3.org/1999/02/22-rdf-syntax-ns#" xmlns:xsi="http://www.w3.org/2001/XMLSchema-instance" xmlns:dc="http://purl.org/dc/elements/1.1/" xmlns:dcterms="http://purl.org/dc/terms/"><rdf:RDF><rdf:Description><dc:title>Bottts</dc:title><dc:creator>Pablo Stanley</dc:creator><dc:source xsi:type="dcterms:URI">https://bottts.com/</dc:source><dcterms:license xsi:type="dcterms:URI">https://bottts.com/</dcterms:license><dc:rights>Remix of “Bottts” (https://bottts.com/) by “Pablo Stanley”, licensed under “Free for personal and commercial use” (https://bottts.com/)</dc:rights></rdf:Description></rdf:RDF></metadata><defs><g id="sides-antenna02-72b751b8"><mask id="sidesAntenna02-a" style="mask-type:luminance"><rect x="4" y="28" width="36" height="32" rx="4" fill="white"/><rect x="154" y="9" width="2" height="20" fill="white"/><rect x="128" y="28" width="36" height="32" rx="4" fill="white"/></mask><g mask="url(#sidesAntenna02-a)"><path d="M-6 0h180v76H-6z" fill="#978d87"/><path d="M-6 0h180v76H-6z" fill="white" fill-opacity=".3"/><rect x="-6" y="38" width="180" height="38" fill="black" fill-opacity=".1"/></g><rect x="154" y="8" width="2" height="20" fill="white" fill-opacity=".4"/><circle cx="155" cy="5" r="4" fill="#E1E6E8"/><circle cx="156" cy="4" r="2" fill="white"/></g><g id="top-horns-72b751b8"><mask id="topHorns-a" style="mask-type:luminance"><rect y="40.59" width="26" height="12" fill="white"/><rect width="26" height="12" transform="matrix(-1 0 0 1 84 40.6)" fill="white"/><path fill-rule="evenodd" clip-rule="evenodd" d="M8.52 14.34c0 7.84 5.39 20.7 13.72 27.03H3.36S-.16 23.27 5.43 14.7c.9-1.38 3.1-1.42 3.1-.36M76 14.6c.66 7.03-5.77 20.62-14 27h19s3.14-18.27-2-27c-1-1.7-3.14-1.45-3 0" fill="white"/></mask><g mask="url(#topHorns-a)"><path d="M-8 .6H92v52H-8z" fill="#978d87"/><path d="M-8 .6H92v52H-8z" fill="white" fill-opacity=".3"/><rect x="-8" y="40.59" width="100" height="12" fill="black" fill-opacity=".4"/><path fill-rule="evenodd" clip-rule="evenodd" d="M7.46 13.6h16.1v27H12.83c-7.45-7.86-5.36-27-5.36-27m69.35 0h7.75v27H73.82c5.75-7.81 3-27 3-27" fill="white" fill-opacity=".4"/></g></g><g id="texture-dots-72b751b8"><path d="M51.4 123.8a2.1 2.1 0 1 1 0 4.2 2.1 2.1 0 0 1 0-4.2m12.6 0a2.1 2.1 0 1 1 0 4.2 2.1 2.1 0 0 1 0-4.2m12.6 0a2.1 2.1 0 1 1 0 4.2 2.1 2.1 0 0 1 0-4.2m-31.5-6.32a2.1 2.1 0 1 1 0 4.2 2.1 2.1 0 0 1 0-4.2m12.6 0a2.1 2.1 0 1 1 0 4.2 2.1 2.1 0 0 1 0-4.2m12.6 0a2.1 2.1 0 1 1 0 4.2 2.1 2.1 0 0 1 0-4.2m12.6 0a2.1 2.1 0 1 1 0 4.2 2.1 2.1 0 0 1 0-4.2m-31.5-6.31a2.1 2.1 0 1 1 0 4.2 2.1 2.1 0 0 1 0-4.2m12.6 0a2.1 2.1 0 1 1 0 4.2 2.1 2.1 0 0 1 0-4.2m13.1-.17a2.1 2.1 0 1 1 0 4.2 2.1 2.1 0 0 1 0-4.2m13 0a2.1 2.1 0 1 1 0 4.2 2.1 2.1 0 0 1 0-4.2m-20-6a2.1 2.1 0 1 1 0 4.2 2.1 2.1 0 0 1 0-4.2m24 0a2.1 2.1 0 1 1 0 4.2 2.1 2.1 0 0 1 0-4.2m-49-.14a2.1 2.1 0 1 1 0 4.2 2.1 2.1 0 0 1 0-4.2m12.6 0a2.1 2.1 0 1 1 0 4.2 2.1 2.1 0 0 1 0-4.2m25.2 0a2.1 2.1 0 1 1 0 4.2 2.1 2.1 0 0 1 0-4.2m-31.5-6.31a2.1 2.1 0 1 1 0 4.2 2.1 2.1 0 0 1 0-4.2m12.6 0a2.1 2.1 0 1 1 0 4.2 2.1 2.1 0 0 1 0-4.2m12.6 0a2.1 2.1 0 1 1 0 4.2 2.1 2.1 0 0 1 0-4.2m-31.5-6.31a2.1 2.1 0 1 1 0 4.2 2.1 2.1 0 0 1 0-4.2m12.6 0a2.1 2.1 0 1 1 0 4.2 2.1 2.1 0 0 1 0-4.2m12.6 0a2.1 2.1 0 1 1 0 4.2 2.1 2.1 0 0 1 0-4.2m12.6 0a2.1 2.1 0 1 1 0 4.2 2.1 2.1 0 0 1 0-4.2m-31.5-6.3a2.1 2.1 0 1 1 0 4.2 2.1 2.1 0 0 1 0-4.2m12.6 0a2.1 2.1 0 1 1 0 4.2 2.1 2.1 0 0 1 0-4.2m12.6 0a2.1 2.1 0 1 1 0 4.2 2.1 2.1 0 0 1 0-4.2m-31.5-6.32a2.1 2.1 0 1 1 0 4.2 2.1 2.1 0 0 1 0-4.2m12.6 0a2.1 2.1 0 1 1 0 4.2 2.1 2.1 0 0 1 0-4.2m12.6 0a2.1 2.1 0 1 1 0 4.2 2.1 2.1 0 0 1 0-4.2m12.6 0a2.1 2.1 0 1 1 0 4.2 2.1 2.1 0 0 1 0-4.2M51.4 73.3a2.1 2.1 0 1 1 0 4.2 2.1 2.1 0 0 1 0-4.2m12.6 0a2.1 2.1 0 1 1 0 4.2 2.1 2.1 0 0 1 0-4.2m12.6 0a2.1 2.1 0 1 1 0 4.2 2.1 2.1 0 0 1 0-4.2M57.7 67a2.1 2.1 0 1 1 0 4.2 2.1 2.1 0 0 1 0-4.2m12.6 0a2.1 2.1 0 1 1 0 4.2 2.1 2.1 0 0 1 0-4.2" fill="black" fill-opacity=".2"/><path d="M154 62.8a2.1 2.1 0 1 1 0 4.2 2.1 2.1 0 0 1 0-4.2m12.6 0a2.1 2.1 0 1 1 0 4.2 2.1 2.1 0 0 1 0-4.2m-18.9-6.32a2.1 2.1 0 1 1 0 4.2 2.1 2.1 0 0 1 0-4.2m25.2 0a2.1 2.1 0 1 1 0 4.2 2.1 2.1 0 0 1 0-4.2m-31.5-6.3a2.1 2.1 0 1 1 0 4.2 2.1 2.1 0 0 1 0-4.2m12.6 0a2.1 2.1 0 1 1 0 4.2 2.1 2.1 0 0 1 0-4.2m12.6 0a2.1 2.1 0 1 1 0 4.2 2.1 2.1 0 0 1 0-4.2m-18.9-6.32a2.1 2.1 0 1 1 0 4.2 2.1 2.1 0 0 1 0-4.2m12.6 0a2.1 2.1 0 1 1 0 4.2 2.1 2.1 0 0 1 0-4.2m12.6 0a2.1 2.1 0 1 1 0 4.2 2.1 2.1 0 0 1 0-4.2m-31.5-6.31a2.1 2.1 0 1 1 0 4.2 2.1 2.1 0 0 1 0-4.2m12.6 0a2.1 2.1 0 1 1 0 4.2 2.1 2.1 0 0 1 0-4.2m12.6 0a2.1 2.1 0 1 1 0 4.2 2.1 2.1 0 0 1 0-4.2m-31.5-6.3a2.1 2.1 0 1 1 0 4.19 2.1 2.1 0 0 1 0-4.2m12.6 0a2.1 2.1 0 1 1 0 4.2 2.1 2.1 0 0 1 0-4.2m12.6 0a2.1 2.1 0 1 1 0 4.2 2.1 2.1 0 0 1 0-4.2m12.6 0a2.1 2.1 0 1 1 0 4.2 2.1 2.1 0 0 1 0-4.2m-31.5-6.3a2.1 2.1 0 1 1 0 4.19 2.1 2.1 0 0 1 0-4.2m12.6 0a2.1 2.1 0 1 1 0 4.2 2.1 2.1 0 0 1 0-4.2m12.6 0a2.1 2.1 0 1 1 0 4.2 2.1 2.1 0 0 1 0-4.2m-31.5-6.3a2.1 2.1 0 1 1 0 4.2 2.1 2.1 0 0 1 0-4.2m12.6 0a2.1 2.1 0 1 1 0 4.2 2.1 2.1 0 0 1 0-4.2m12.6 0a2.1 2.1 0 1 1 0 4.2 2.1 2.1 0 0 1 0-4.2m12.6 0a2.1 2.1 0 1 1 0 4.2 2.1 2.1 0 0 1 0-4.2m-31.5-6.32a2.1 2.1 0 1 1 0 4.23 2.1 2.1 0 0 1 0-4.2m12.6 0a2.1 2.1 0 1 1 0 4.2 2.1 2.1 0 0 1 0-4.2m12.6 0a2.1 2.1 0 1 1 0 4.2 2.1 2.1 0 0 1 0-4.2M147.7 6a2.1 2.1 0 1 1 0 4.2 2.1 2.1 0 0 1 0-4.2m12.6 0a2.1 2.1 0 1 1 0 4.2 2.1 2.1 0 0 1 0-4.2" fill="black" fill-opacity=".1"/></g><g id="head-round01-72b751b8"><mask id="headRound01-a" style="mask-type:luminance"><path fill-rule="evenodd" clip-rule="evenodd" d="M66 0c58.35 0 64 40.69 64 78 0 33.32-25.47 42-64 42-37.46 0-66-8.69-66-42C0 40.69 7.65 0 66 0" fill="white"/></mask><g mask="url(#headRound01-a)"><path d="M-4-2h138v124H-4z" fill="#978d87"/><use transform="translate(-44 -7)" href="#texture-dots-72b751b8"/></g></g><g id="mouth-square02-72b751b8"><rect x="12" y="4" width="44" height="4" rx="2" fill="black" fill-opacity=".8"/></g><g id="eyes-roundFrame01-72b751b8"><rect y="12" width="104" height="32" rx="16" fill="black" fill-opacity=".8"/><rect x="24" y="22" width="10" height="12" rx="2" fill="#F4F4F4"/><rect x="70" y="22" width="10" height="12" rx="2" fill="#F4F4F4"/></g><clipPath id="clip-72b751b8"><rect width="180" height="180" rx="0" ry="0"/></clipPath></defs><g clip-path="url(#clip-72b751b8)"><use transform="translate(6 66)" href="#sides-antenna02-72b751b8"/><use transform="translate(49 -.6)" href="#top-horns-72b751b8"/><use transform="translate(25 44)" href="#head-round01-72b751b8"/><use transform="translate(56 128)" href="#mouth-square02-72b751b8"/><use transform="translate(38 76)" href="#eyes-roundFrame01-72b751b8"/></g></svg>