<svg xmlns="http://www.w3.org/2000/svg" viewBox="0 0 180 180" fill="none" shape-rendering="auto" aria-hidden="true"><!-- Generated by DiceBear (https://dicebear.com) --><metadata xmlns:rdf="http://www.w3.org/1999/02/22-rdf-syntax-ns#" xmlns:xsi="http://www.w3.org/2001/XMLSchema-instance" xmlns:dc="http://purl.org/dc/elements/1.1/" xmlns:dcterms="http://purl.org/dc/terms/"><rdf:RDF><rdf:Description><dc:title>Bottts</dc:title><dc:creator>Pablo Stanley</dc:creator><dc:source xsi:type="dcterms:URI">https://bottts.com/</dc:source><dcterms:license xsi:type="dcterms:URI">https://bottts.com/</dcterms:license><dc:rights>Remix of “Bottts” (https://bottts.com/) by “Pablo Stanley”, licensed under “Free for personal and commercial use” (https://bottts.com/)</dc:rights></rdf:Description></rdf:RDF></metadata><defs><g id="sides-squareAssymetric-01b4613e"><mask id="sidesSquareAssymetric-a" style="mask-type:luminance"><rect x="4" y="31" width="36" height="30" rx="4" fill="white"/><rect x="14" y="15" width="26" height="30" rx="4" fill="white"/><rect x="133" y="23" width="36" height="30" rx="4" fill="white"/><rect x="128" y="8" width="36" height="60" rx="4" fill="white"/></mask><g mask="url(#sidesSquareAssymetric-a)"><path d="M-6 0h180v76H-6z" fill="#448ef4"/><path d="M-6 0h180v76H-6z" fill="white" fill-opacity=".3"/><rect x="-6" y="47" width="180" height="29" fill="black" fill-opacity=".1"/><circle cx="155" cy="20" r="5" fill="white" fill-opacity=".6"/><circle cx="155" cy="36" r="5" fill="white" fill-opacity=".6"/></g></g><g id="top-lights-01b4613e"><mask id="topLights-a" style="mask-type:luminance"><path d="M2 42.6a2 2 0 0 1 2-2h76a2 2 0 0 1 2 2v10H2z" fill="white"/><path d="M10 27.6a5 5 0 0 1 5-5h6a5 5 0 0 1 5 5v25H10zm24 0a5 5 0 0 1 5-5h6a5 5 0 0 1 5 5v25H34zm24 0a5 5 0 0 1 5-5h6a5 5 0 0 1 5 5v25H58z" fill="white"/></mask><g mask="url(#topLights-a)"><path d="M-8 .6H92v52H-8z" fill="#448ef4"/><path d="M-8 .6H92v52H-8z" fill="white" fill-opacity=".3"/><rect x="-8" y=".59" width="100" height="40" fill="white" fill-opacity=".6"/><rect x="16" y="28.59" width="4" height="8" rx="2" fill="white" fill-opacity=".6"/><rect x="40" y="28.59" width="4" height="8" rx="2" fill="white" fill-opacity=".6"/><rect x="64" y="28.59" width="4" height="8" rx="2" fill="white" fill-opacity=".6"/></g></g><g id="texture-dirty02-01b4613e"><path fill-rule="evenodd" clip-rule="evenodd" d="M143 130.65c-3.19-17.34-9.55-2.58-24.85-5.63-6.76-1.35-1.3-7.25-6.34-9.8-4.26-2.17-10.06-.43-14.94-1.82-7.04-2.02-6.95-6.12-13.5-6.73-6.2-.58-12.7 1.33-18.97.61-11.8-1.35-6.96-19.22-15.82-22.38-8.85-3.15-23.43 2.3-25.34 11.23-1.86 8.71 10.57 41.12 10.57 41.12H143" fill="black" fill-opacity=".2"/><path fill-rule="evenodd" clip-rule="evenodd" d="M179 122.77c-51.24 0-56.58-25.8-81.8-37.61C72 73.34 49.9 103.9 41.44 74.2S33 137.07 33 137.07h146z" fill="black" fill-opacity=".1"/><path fill-rule="evenodd" clip-rule="evenodd" d="M184.58 9.18c-11.94-.98-5.04 10.8-9.75 10.8-6.97 0-2.1-7.97-10.58-7.78-2.22.06-4.95 1.94-5.12 4.5-.36 5.52 3.72 15.03-1.83 15.3-5.18.25-1.1-9.64-1.65-16.24-.3-3.77-4.18-6.75-6.97-6.75-7.57 0-1.68 15.7-7.13 15.7s-1.21-9.05-5.08-13.84c-4.5-5.57-19.3-8.3-8.75-10.87h57.15" fill="black" fill-opacity=".4"/></g><g id="head-square04-01b4613e"><mask id="headSquare04-a" style="mask-type:luminance"><path fill-rule="evenodd" clip-rule="evenodd" d="M0 102V68.85a40 40 0 0 1 2.28-13.31L19.76 12A18 18 0 0 1 36.74 0h56.52a18 18 0 0 1 16.98 12l17.48 43.54a40 40 0 0 1 2.28 13.3V102a18 18 0 0 1-18 18H18a18 18 0 0 1-18-18" fill="white"/></mask><g mask="url(#headSquare04-a)"><path d="M-2-2h134v124H-2z" fill="#448ef4"/><use transform="translate(-44 -7)" href="#texture-dirty02-01b4613e"/></g></g><g id="mouth-diagram-01b4613e"><rect width="68" height="24" rx="5" fill="black" fill-opacity=".2"/><rect x="4" y="4" width="60" height="16" rx="2" fill="black" fill-opacity=".8"/><path d="M5 13h11l2-4 3 7 4-8 2 9 3-11 3 10 3-3h15l3-4 2 7 3-3h4" stroke="#4EFAC9" stroke-width="2" stroke-linecap="round" stroke-linejoin="round"/></g><g id="eyes-glow-01b4613e"><circle cx="21" cy="30" r="15" fill="white" fill-opacity=".1"/><circle cx="83" cy="30" r="15" fill="white" fill-opacity=".1"/><circle cx="21" cy="30" r="12" fill="white" fill-opacity=".1"/><circle cx="83" cy="30" r="12" fill="white" fill-opacity=".1"/><circle cx="21" cy="30" r="6" fill="white" fill-opacity=".8"/><circle cx="83" cy="30" r="6" fill="white" fill-opacity=".8"/><circle cx="21" cy="30" r="3" fill="white" fill-opacity=".8"/><circle cx="83" cy="30" r="3" fill="white" fill-opacity=".8"/></g><clipPath id="clip-01b4613e"><rect width="180" height="180" rx="0" ry="0"/></clipPath></defs><g clip-path="url(#clip-01b4613e)"><use transform="translate(6 66)" href="#sides-squareAssymetric-01b4613e"/><use transform="translate(49 -.6)" href="#top-lights-01b4613e"/><use transform="translate(25 44)" href="#head-square04-01b4613e"/><use transform="translate(56 128)" href="#mouth-diagram-01b4613e"/><use transform="translate(38 76)" href="#eyes-glow-01b4613e"/></g></svg>