<svg xmlns="http://www.w3.org/2000/svg" viewBox="0 0 180 180" fill="none" shape-rendering="auto" aria-hidden="true"><!-- Generated by DiceBear (https://dicebear.com) --><metadata xmlns:rdf="http://www.w3.org/1999/02/22-rdf-syntax-ns#" xmlns:xsi="http://www.w3.org/2001/XMLSchema-instance" xmlns:dc="http://purl.org/dc/elements/1.1/" xmlns:dcterms="http://purl.org/dc/terms/"><rdf:RDF><rdf:Description><dc:title>Bottts</dc:title><dc:creator>Pablo Stanley</dc:creator><dc:source xsi:type="dcterms:URI">https://bottts.com/</dc:source><dcterms:license xsi:type="dcterms:URI">https://bottts.com/</dcterms:license><dc:rights>Remix of “Bottts” (https://bottts.com/) by “Pablo Stanley”, licensed under “Free for personal and commercial use” (https://bottts.com/)</dc:rights></rdf:Description></rdf:RDF></metadata><defs><g id="sides-antenna02-03b46464"><mask id="sidesAntenna02-a" style="mask-type:luminance"><rect x="4" y="28" width="36" height="32" rx="4" fill="white"/><rect x="154" y="9" width="2" height="20" fill="white"/><rect x="128" y="28" width="36" height="32" rx="4" fill="white"/></mask><g mask="url(#sidesAntenna02-a)"><path d="M-6 0h180v76H-6z" fill="#ca62bb"/><path d="M-6 0h180v76H-6z" fill="white" fill-opacity=".3"/><rect x="-6" y="38" width="180" height="38" fill="black" fill-opacity=".1"/></g><rect x="154" y="8" width="2" height="20" fill="white" fill-opacity=".4"/><circle cx="155" cy="5" r="4" fill="#E1E6E8"/><circle cx="156" cy="4" r="2" fill="white"/></g><g id="top-antenna-03b46464"><mask id="topAntenna-a" style="mask-type:luminance"><path d="M30 38.6a2 2 0 0 1 2-2h20a2 2 0 0 1 2 2v14H30z" fill="white"/><rect x="40" y="5.59" width="4" height="31" fill="white"/></mask><g mask="url(#topAntenna-a)"><path d="M-8 .6H92v52H-8z" fill="#ca62bb"/><path d="M-8 3.6H92v52H-8z" fill="white" fill-opacity=".3"/><rect x="30" y="36.59" width="24" height="16" fill="white" fill-opacity=".2"/></g><circle cx="42" cy="8.59" r="8" fill="#FFE65C"/><circle cx="45" cy="5.59" r="3" fill="white"/></g><g id="head-round02-03b46464"><mask id="headRound02-a" style="mask-type:luminance"><path fill-rule="evenodd" clip-rule="evenodd" d="M0 31v-1c.18-.48.4-1.5 1-3 .83-3.06 2.78-6.56 6-10C16.7 6.6 35.17 0 65 0s48.3 6.6 58 17c3.22 3.44 5.17 6.94 6 10 .6 1.5.82 2.52 1 3v40c0-.1-.03.5 0 1a54 54 0 0 1-1 6c-1.19 6-3.4 11.91-7 17-9.72 16.34-27.74 26-57 26s-47.28-9.66-57-26c-3.6-5.1-5.8-11-7-17a54 54 0 0 1-1-6c.03-.45 0-1.32 0-1z" fill="white"/></mask><g mask="url(#headRound02-a)"><path d="M-4-2h138v124H-4z" fill="#ca62bb"/></g></g><g id="mouth-grill02-03b46464"><rect x="24" y="6" width="6" height="14" rx="2" fill="black" fill-opacity=".6"/><rect x="10" y="6" width="6" height="14" rx="2" fill="black" fill-opacity=".6"/><rect x="38" y="6" width="6" height="14" rx="2" fill="black" fill-opacity=".6"/><rect x="52" y="6" width="6" height="14" rx="2" fill="black" fill-opacity=".6"/></g><g id="eyes-frame1-03b46464"><rect y="4" width="104" height="42" rx="4" fill="black" fill-opacity=".8"/><rect x="28" y="25" width="10" height="11" rx="2" fill="#8BDDFF"/><rect x="66" y="25" width="10" height="11" rx="2" fill="#8BDDFF"/><path fill-rule="evenodd" clip-rule="evenodd" d="M21 4h8L12 46H4z" fill="white" fill-opacity=".4"/></g><clipPath id="clip-03b46464"><rect width="180" height="180" rx="0" ry="0"/></clipPath></defs><g clip-path="url(#clip-03b46464)"><use transform="translate(6 66)" href="#sides-antenna02-03b46464"/><use transform="translate(49 -.6)" href="#top-antenna-03b46464"/><use transform="translate(25 44)" href="#head-round02-03b46464"/><use transform="translate(56 128)" href="#mouth-grill02-03b46464"/><use transform="translate(38 76)" href="#eyes-frame1-03b46464"/></g></svg>