<svg xmlns="http://www.w3.org/2000/svg" viewBox="0 0 180 180" fill="none" shape-rendering="auto" aria-hidden="true"><!-- Generated by DiceBear (https://dicebear.com) --><metadata xmlns:rdf="http://www.w3.org/1999/02/22-rdf-syntax-ns#" xmlns:xsi="http://www.w3.org/2001/XMLSchema-instance" xmlns:dc="http://purl.org/dc/elements/1.1/" xmlns:dcterms="http://purl.org/dc/terms/"><rdf:RDF><rdf:Description><dc:title>Bottts</dc:title><dc:creator>Pablo Stanley</dc:creator><dc:source xsi:type="dcterms:URI">https://bottts.com/</dc:source><dcterms:license xsi:type="dcterms:URI">https://bottts.com/</dcterms:license><dc:rights>Remix of “Bottts” (https://bottts.com/) by “Pablo Stanley”, licensed under “Free for personal and commercial use” (https://bottts.com/)</dc:rights></rdf:Description></rdf:RDF></metadata><defs><g id="sides-squareAssymetric-73b7534b"><mask id="sidesSquareAssymetric-a" style="mask-type:luminance"><rect x="4" y="31" width="36" height="30" rx="4" fill="white"/><rect x="14" y="15" width="26" height="30" rx="4" fill="white"/><rect x="133" y="23" width="36" height="30" rx="4" fill="white"/><rect x="128" y="8" width="36" height="60" rx="4" fill="white"/></mask><g mask="url(#sidesSquareAssymetric-a)"><path d="M-6 0h180v76H-6z" fill="#879198"/><path d="M-6 0h180v76H-6z" fill="white" fill-opacity=".3"/><rect x="-6" y="47" width="180" height="29" fill="black" fill-opacity=".1"/><circle cx="155" cy="20" r="5" fill="white" fill-opacity=".6"/><circle cx="155" cy="36" r="5" fill="white" fill-opacity=".6"/></g></g><g id="top-radar-73b7534b"><mask id="topRadar-a" style="mask-type:luminance"><path fill-rule="evenodd" clip-rule="evenodd" d="M35.8.7A20 20 0 1 0 64.08 29" fill="white"/><circle cx="59.13" cy="5.66" r="4" transform="rotate(45 59.13 5.66)" fill="white"/><rect x="56.31" y="7.07" width="2" height="26" transform="rotate(45 56.3 7.07)" fill="white"/><rect x="39.94" y="28.71" width="4" height="24" fill="white"/></mask><g mask="url(#topRadar-a)"><path d="M-8 .6H92v52H-8z" fill="#879198"/><path d="M-8 .6H92v52H-8z" fill="white" fill-opacity=".3"/><path fill-rule="evenodd" clip-rule="evenodd" d="M35.8.7A20 20 0 1 0 64.08 29" fill="white" fill-opacity=".2"/><circle cx="59.13" cy="8" r="5.66" transform="rotate(45 59.13 8)" fill="white" fill-opacity=".8"/></g></g><g id="head-square01-73b7534b"><mask id="headSquare01-a" style="mask-type:luminance"><rect width="130" height="120" rx="18" fill="white"/></mask><g mask="url(#headSquare01-a)"><path d="M-2-2h134v124H-2z" fill="#879198"/></g></g><g id="mouth-square01-73b7534b"><rect x="20" y="2" width="27" height="8" rx="4" fill="black" fill-opacity=".8"/></g><g id="eyes-bulging-73b7534b"><circle cx="28" cy="24" r="18" fill="black" fill-opacity=".2"/><circle cx="74" cy="24" r="18" fill="black" fill-opacity=".2"/><circle cx="28" cy="24" r="15" fill="#F1EEDA"/><circle cx="74" cy="24" r="15" fill="#F1EEDA"/><rect x="26" y="15" width="10" height="10" rx="2" fill="black" fill-opacity=".8"/><rect x="74" y="15" width="10" height="10" rx="2" fill="black" fill-opacity=".8"/></g><clipPath id="clip-73b7534b"><rect width="180" height="180" rx="0" ry="0"/></clipPath></defs><g clip-path="url(#clip-73b7534b)"><use transform="translate(6 66)" href="#sides-squareAssymetric-73b7534b"/><use transform="translate(49 -.6)" href="#top-radar-73b7534b"/><use transform="translate(25 44)" href="#head-square01-73b7534b"/><use transform="translate(56 128)" href="#mouth-square01-73b7534b"/><use transform="translate(38 76)" href="#eyes-bulging-73b7534b"/></g></svg>