<svg xmlns="http://www.w3.org/2000/svg" viewBox="0 0 180 180" fill="none" shape-rendering="auto" aria-hidden="true"><!-- Generated by DiceBear (https://dicebear.com) --><metadata xmlns:rdf="http://www.w3.org/1999/02/22-rdf-syntax-ns#" xmlns:xsi="http://www.w3.org/2001/XMLSchema-instance" xmlns:dc="http://purl.org/dc/elements/1.1/" xmlns:dcterms="http://purl.org/dc/terms/"><rdf:RDF><rdf:Description><dc:title>Bottts</dc:title><dc:creator>Pablo Stanley</dc:creator><dc:source xsi:type="dcterms:URI">https://bottts.com/</dc:source><dcterms:license xsi:type="dcterms:URI">https://bottts.com/</dcterms:license><dc:rights>Remix of “Bottts” (https://bottts.com/) by “Pablo Stanley”, licensed under “Free for personal and commercial use” (https://bottts.com/)</dc:rights></rdf:Description></rdf:RDF></metadata><defs><g id="sides-cables02-feb45c85"><g opacity=".9"><ellipse cx="26.5" cy="23" rx="16.5" ry="18" stroke="#2A3544" stroke-width="6"/><path d="M23.51 36.76c-7.4 4.29-17 1.55-21.42-6.1" stroke="#2A3544" stroke-width="4"/><ellipse cx="22.5" cy="52.5" rx="16.5" ry="14.5" stroke="#2A3544" stroke-width="4"/></g><g opacity=".9"><path d="M162.6 60.42c-4.27-7.41-13.95-9.84-21.6-5.42" stroke="#2A3544" stroke-width="4"/><ellipse cx="142.5" cy="22.5" rx="16.5" ry="15.5" stroke="#2A3544" stroke-width="6"/></g><mask id="sidesCables02-a" style="mask-type:luminance"><rect x="15" y="27" width="16" height="22" rx="2" fill="white"/><rect x="16" y="60" width="16" height="12" rx="2" fill="white"/><rect x="137" y="42" width="16" height="22" rx="2" fill="white"/><rect x="137" width="16" height="22" rx="2" fill="white"/></mask><g mask="url(#sidesCables02-a)"><path d="M-6 0h180v76H-6z" fill="#15a2a9"/><path d="M-6 0h180v76H-6z" fill="white" fill-opacity=".3"/></g></g><g id="top-horns-feb45c85"><mask id="topHorns-a" style="mask-type:luminance"><rect y="40.59" width="26" height="12" fill="white"/><rect width="26" height="12" transform="matrix(-1 0 0 1 84 40.6)" fill="white"/><path fill-rule="evenodd" clip-rule="evenodd" d="M8.52 14.34c0 7.84 5.39 20.7 13.72 27.03H3.36S-.16 23.27 5.43 14.7c.9-1.38 3.1-1.42 3.1-.36M76 14.6c.66 7.03-5.77 20.62-14 27h19s3.14-18.27-2-27c-1-1.7-3.14-1.45-3 0" fill="white"/></mask><g mask="url(#topHorns-a)"><path d="M-8 .6H92v52H-8z" fill="#15a2a9"/><path d="M-8 .6H92v52H-8z" fill="white" fill-opacity=".3"/><rect x="-8" y="40.59" width="100" height="12" fill="black" fill-opacity=".4"/><path fill-rule="evenodd" clip-rule="evenodd" d="M7.46 13.6h16.1v27H12.83c-7.45-7.86-5.36-27-5.36-27m69.35 0h7.75v27H73.82c5.75-7.81 3-27 3-27" fill="white" fill-opacity=".4"/></g></g><g id="head-round01-feb45c85"><mask id="headRound01-a" style="mask-type:luminance"><path fill-rule="evenodd" clip-rule="evenodd" d="M66 0c58.35 0 64 40.69 64 78 0 33.32-25.47 42-64 42-37.46 0-66-8.69-66-42C0 40.69 7.65 0 66 0" fill="white"/></mask><g mask="url(#headRound01-a)"><path d="M-4-2h138v124H-4z" fill="#15a2a9"/></g></g><g id="mouth-grill01-feb45c85"><rect x="8" y="8" width="4" height="8" rx="2" fill="black" fill-opacity=".6"/><rect x="32" y="8" width="4" height="8" rx="2" fill="black" fill-opacity=".6"/><rect x="20" y="8" width="4" height="8" rx="2" fill="black" fill-opacity=".6"/><rect x="44" y="8" width="4" height="8" rx="2" fill="black" fill-opacity=".6"/><rect x="56" y="8" width="4" height="8" rx="2" fill="black" fill-opacity=".6"/></g><g id="eyes-happy-feb45c85"><path d="m18 19 12-2M20 31c0-3.31 2.9-6 7-6 3.1 0 6 2.69 6 6m53-11-12-3m10 14c0-3.31-2.9-6-6-6-4.1 0-7 2.69-7 6" stroke="black" stroke-width="4" stroke-linecap="round" stroke-linejoin="round"/></g><clipPath id="clip-feb45c85"><rect width="180" height="180" rx="0" ry="0"/></clipPath></defs><g clip-path="url(#clip-feb45c85)"><use transform="translate(6 66)" href="#sides-cables02-feb45c85"/><use transform="translate(49 -.6)" href="#top-horns-feb45c85"/><use transform="translate(25 44)" href="#head-round01-feb45c85"/><use transform="translate(56 128)" href="#mouth-grill01-feb45c85"/><use transform="translate(38 76)" href="#eyes-happy-feb45c85"/></g></svg>