<svg xmlns="http://www.w3.org/2000/svg" viewBox="0 0 180 180" fill="none" shape-rendering="auto" aria-hidden="true"><!-- Generated by DiceBear (https://dicebear.com) --><metadata xmlns:rdf="http://www.w3.org/1999/02/22-rdf-syntax-ns#" xmlns:xsi="http://www.w3.org/2001/XMLSchema-instance" xmlns:dc="http://purl.org/dc/elements/1.1/" xmlns:dcterms="http://purl.org/dc/terms/"><rdf:RDF><rdf:Description><dc:title>Bottts</dc:title><dc:creator>Pablo Stanley</dc:creator><dc:source xsi:type="dcterms:URI">https://bottts.com/</dc:source><dcterms:license xsi:type="dcterms:URI">https://bottts.com/</dcterms:license><dc:rights>Remix of “Bottts” (https://bottts.com/) by “Pablo Stanley”, licensed under “Free for personal and commercial use” (https://bottts.com/)</dc:rights></rdf:Description></rdf:RDF></metadata><defs><g id="sides-round-6bb746b3"><mask id="sidesRound-a" style="mask-type:luminance"><ellipse cx="144" cy="38.5" rx="18" ry="22.5" fill="white"/><ellipse cx="18" cy="22.5" rx="18" ry="22.5" transform="matrix(-1 0 0 1 42 16)" fill="white"/></mask><g mask="url(#sidesRound-a)"><path d="M-6 0h180v76H-6z" fill="#c67c11"/><path d="M-6 0h180v76H-6z" fill="white" fill-opacity=".3"/><rect x="14" width="140" height="76" fill="black" fill-opacity=".2"/></g></g><g id="top-lights-6bb746b3"><mask id="topLights-a" style="mask-type:luminance"><path d="M2 42.6a2 2 0 0 1 2-2h76a2 2 0 0 1 2 2v10H2z" fill="white"/><path d="M10 27.6a5 5 0 0 1 5-5h6a5 5 0 0 1 5 5v25H10zm24 0a5 5 0 0 1 5-5h6a5 5 0 0 1 5 5v25H34zm24 0a5 5 0 0 1 5-5h6a5 5 0 0 1 5 5v25H58z" fill="white"/></mask><g mask="url(#topLights-a)"><path d="M-8 .6H92v52H-8z" fill="#c67c11"/><path d="M-8 .6H92v52H-8z" fill="white" fill-opacity=".3"/><rect x="-8" y=".59" width="100" height="40" fill="white" fill-opacity=".6"/><rect x="16" y="28.59" width="4" height="8" rx="2" fill="white" fill-opacity=".6"/><rect x="40" y="28.59" width="4" height="8" rx="2" fill="white" fill-opacity=".6"/><rect x="64" y="28.59" width="4" height="8" rx="2" fill="white" fill-opacity=".6"/></g></g><g id="texture-circuits-6bb746b3"><path d="M66 36h49.42a5 5 0 1 1 0 4H62V6h4zm-8-12h-4V6h4z" fill="black" fill-opacity=".1"/><path d="M163 31a5 5 0 0 1 2 9.58V66h19v4h-23V40.58a5 5 0 0 1 2-9.58" fill="white" fill-opacity=".2"/><path d="M157 74h27v4h-31V52h4zm-85 26a5 5 0 0 0-2 9.58V135H51v4h23v-29.42a5 5 0 0 0-2-9.58" fill="black" fill-opacity=".2"/></g><g id="head-round02-6bb746b3"><mask id="headRound02-a" style="mask-type:luminance"><path fill-rule="evenodd" clip-rule="evenodd" d="M0 31v-1c.18-.48.4-1.5 1-3 .83-3.06 2.78-6.56 6-10C16.7 6.6 35.17 0 65 0s48.3 6.6 58 17c3.22 3.44 5.17 6.94 6 10 .6 1.5.82 2.52 1 3v40c0-.1-.03.5 0 1a54 54 0 0 1-1 6c-1.19 6-3.4 11.91-7 17-9.72 16.34-27.74 26-57 26s-47.28-9.66-57-26c-3.6-5.1-5.8-11-7-17a54 54 0 0 1-1-6c.03-.45 0-1.32 0-1z" fill="white"/></mask><g mask="url(#headRound02-a)"><path d="M-4-2h138v124H-4z" fill="#c67c11"/><use transform="translate(-44 -7)" href="#texture-circuits-6bb746b3"/></g></g><g id="mouth-smile02-6bb746b3"><path fill-rule="evenodd" clip-rule="evenodd" d="M14 6.22C14 17.78 20.47 24 34 24c13.52 0 20-6.34 20-17.78C54 5.5 53.17 4 51 4H17c-2.05 0-3 1.38-3 2.22" fill="black" fill-opacity=".8"/><mask id="mouthSmile02-a" style="mask-type:luminance"><path fill-rule="evenodd" clip-rule="evenodd" d="M14 6.22C14 17.78 20.47 24 34 24c13.52 0 20-6.34 20-17.78C54 5.5 53.17 4 51 4H17c-2.05 0-3 1.38-3 2.22" fill="white"/></mask><g mask="url(#mouthSmile02-a)"><rect x="26" y="-2" width="16" height="14" rx="2" fill="white"/></g></g><g id="eyes-roundFrame01-6bb746b3"><rect y="12" width="104" height="32" rx="16" fill="black" fill-opacity=".8"/><rect x="24" y="22" width="10" height="12" rx="2" fill="#F4F4F4"/><rect x="70" y="22" width="10" height="12" rx="2" fill="#F4F4F4"/></g><clipPath id="clip-6bb746b3"><rect width="180" height="180" rx="0" ry="0"/></clipPath></defs><g clip-path="url(#clip-6bb746b3)"><use transform="translate(6 66)" href="#sides-round-6bb746b3"/><use transform="translate(49 -.6)" href="#top-lights-6bb746b3"/><use transform="translate(25 44)" href="#head-round02-6bb746b3"/><use transform="translate(56 128)" href="#mouth-smile02-6bb746b3"/><use transform="translate(38 76)" href="#eyes-roundFrame01-6bb746b3"/></g></svg>