<svg xmlns="http://www.w3.org/2000/svg" viewBox="0 0 704 704" fill="none" shape-rendering="auto" aria-hidden="true"><!-- Generated by DiceBear (https://dicebear.com) --><metadata xmlns:rdf="http://www.w3.org/1999/02/22-rdf-syntax-ns#" xmlns:xsi="http://www.w3.org/2001/XMLSchema-instance" xmlns:dc="http://purl.org/dc/elements/1.1/" xmlns:dcterms="http://purl.org/dc/terms/"><rdf:RDF><rdf:Description><dc:title>Open Peeps</dc:title><dc:creator>Pablo Stanley</dc:creator><dc:source xsi:type="dcterms:URI">https://www.openpeeps.com/</dc:source><dcterms:license xsi:type="dcterms:URI">https://creativecommons.org/publicdomain/zero/1.0/</dcterms:license><dc:rights>Remix of “Open Peeps” (https://www.openpeeps.com/) by “Pablo Stanley”, licensed under “CC0 1.0” (https://creativecommons.org/publicdomain/zero/1.0/)</dc:rights></rdf:Description></rdf:RDF></metadata><defs><g id="head-noHair3-f7d2cf9a"><path fill-rule="evenodd" clip-rule="evenodd" d="M548.9 312c-35.2-92.5-98.6-160.2-205.6-117.7-3-2-7-2.6-10.9-.2a277 277 0 0 0-118.3 161.3 91 91 0 0 0-31.4 11.8c-20.9 13-35 33.9-48 54.2-4 6-.4 16.1 7 17.5q5 1 9.7 1a41 41 0 0 1-3.1 8c-4.7 9.1 4.2 18.7 12.5 16.2q1.5.8 2.9 1.2c0 5.1 2.7 12 8 13 8.3 1.8 19.5-4.6 17.5-14q3.8.6 7.6.2c.2 4.9.1 10 .8 14.5a34 34 0 0 0 43.8 29.1c1.2 6.6 2.7 16 9.2 19.6 7.7 21.4 20.9 45.8 42.5 55.6-2 5-1 11 4.9 14.2 39.5 22.6 87 30.2 131.7 21.8 17.8-1 35.2-5 52-13.7a243 243 0 0 0 34.3-22.4c11-8.3 22.6-16.3 31.3-27a87 87 0 0 0 16.8-39.6A344 344 0 0 0 549 323.4c-29.6-77.7 29.5 66.3 0-11.3" fill="#694d3d"/><path fill-rule="evenodd" clip-rule="evenodd" d="M182.6 363.4c32.8-19.3 74.7-14.3 94.4 15.7a56 56 0 0 1 7.4 17.5l.3 1 .3 1.2a166 166 0 0 1 2.2 13.5l.8 7 .3 1.8a98 98 0 0 0 2.6 14.3l.2.8 1.3 4.4-4.9 1.8c-9.3 3.4-11.3 3.7-16.7 1-4.3-2.3-6.5-5.3-9.4-11.3l-.4-.9-1-2-.5-1c-1.9-3.8-3.4-8-5.6-9.4-3-2-12.2-2.8-18.6-2h-.4l-.3.1-.4.1a50 50 0 0 0-27.3 20.6 50 50 0 0 0-8.6 26.6v.6l-.2 5-10.5-.2.1-2-.1.4c-3.3 7-11.7 11.6-18.6 7l-.3-.2-.2-.2c-5.9-4.3-6.6-13-1.8-18.4l.2-.2.3-.2h-.1a10 10 0 0 0-5.1 2.9l-.5.4-1 1.1-1 1.1-.5.5-1.8 1.6-1 .5q-1.4.7-3.3.3a5 5 0 0 1-3.4-2.8q-.4-.8-.5-1.4l-.2-1.6v-3.5l.2-2.3q.6-11.5 5.9-22.3l.3-.7.2-.2-.4.5q-3.3 4.5-7.5 6.6l-.3.2-.4.2c-4 1.7-8 1-10.3-2.2a11 11 0 0 1-1.8-8.2c.7-6 3-11.4 7.6-19.3l.7-1.1 2.5-4.3a107 107 0 0 1 37-38.4" fill="#ecdcbf"/><path fill-rule="evenodd" clip-rule="evenodd" d="M378.8 176.3a145 145 0 0 1 53.5 7.2A185 185 0 0 1 551.9 301c11.5 33.6 13.3 69.6 16.5 104.7a720 720 0 0 0 7.2 52.8l.4 2.8c2.7 17.1 4.3 34.4.5 51.5-6.3 28.5-25.2 52.6-47.6 70.4-46 36.6-117.8 59-171.4 25.3-8.3-5.2-.5-18.6 7.6-13.1a83 83 0 0 0 18.2 9.4c27.1 9.7 56.8 6.3 83.6-2.7a180 180 0 0 0 71-43.9 100 100 0 0 0 30.2-76.4c-1-17.5-5-34.8-7.2-52.2-2-15.4-3.2-31-4.5-46.4l-.5-5.6c-2.9-31.5-7-64-21.4-92.6a182 182 0 0 0-51-62 170 170 0 0 0-76.7-34c-32.8-5.4-64.2 4.3-91.6 22.3a217 217 0 0 0-61.1 61.5 255 255 0 0 0-20.1 37.1c-5.4 12.1-9 24.8-13.4 37.3q5.3-.2 10.8.4A68 68 0 0 1 279 375c13.7 18.8 10 41.9 15.3 63.3q.5 2.7-1.7 4.2c-8 5.2-19 5.4-26.7-.5a20 20 0 0 1-7.3-22.4c.4-1 2-.9 2 .3.5 13.7 13.2 24.3 25.7 17.7-5.4-18.4-2.5-39-13.5-55.7-19.4-29.5-59.5-30.7-87.7-14a102 102 0 0 0-35.4 36.5l-2.5 4.3a50 50 0 0 0-7.6 18.5c-.4 3.6 1 7 5.1 5.2 3.4-1.5 6-5 8-8 3.4-5 11.3-.6 8.4 4.8v.2A54 54 0 0 0 154 453l-.2 2.3c0 1.7 0 4 .3 4.1.4.1 3.4-3.3 3.8-3.8 2.4-2.2 4.9-4.1 8.2-4.7 4.3-.8 8.7 4.6 5 8.1l-.2.1c-3.4 3-3.2 8.8.5 11.6 5.3 3.8 11.7-2.5 12.5-7.7v-.2c.7-5.6 8.5-5.8 9 0 .9 12.7-14.2 23.2-25.6 16.9a17 17 0 0 1-8.3-12q-2.2 1.1-4.7 1.3c-5.3.5-9.1-3.3-10-8.3q-1.3-9 1.1-18.3-4.4 1.2-9-1.4c-9.3-5.4-6.7-17.3-3.1-25.4 15-34.4 46-65.7 84.6-68.2q.3-8.9 2.4-17.9A208 208 0 0 1 331.8 189a134 134 0 0 1 47-12.7M233 414h.5c6-1.4 21.8-3 20 7.2-.2.5-.9.4-1 0-1.9-6.4-14.5-1.3-18.2.3a53 53 0 0 0-14.3 8.8 46 46 0 0 0-16.2 31.2c-1 12 2.6 25 11.2 33.7 4.3 4.2 9.7 7.1 15.8 7.3 5.5.2 11.5-4 16.6-1.5 1 .5 1.8 1.8 1.7 3a7 7 0 0 1-2.5 5c8.4 15.3 15.3 31.7 26.1 45.7q8.1 10.6 18.5 19 5 4 10.6 7c4.4 2.4 8.1 4 11.2 8 2.6 3.4 0 10-4.3 10.7-10.3 1.4-20.3-7-27.8-13.1a100 100 0 0 1-19.4-22 133 133 0 0 1-20.1-52.6 33 33 0 0 1-30-5.8c-21.2-16.4-23.6-50-8.6-71.3A52 52 0 0 1 233 414m.1 39.1q7.5-.5 14.5 2l1.9.7c4 1.5 8.3 3.2 11.2 6.3 4.5 4.6 0 12.6-6.3 10.8-7-2-12.7-7.9-19.7-10.3a21 21 0 0 0-18.9 1.9c-.7.5-1.7-.5-1.2-1.2 4.2-6.5 11-9.5 18.5-10.2" fill="black"/></g><g id="expression-monster-f7d2cf9a"><path fill-rule="evenodd" clip-rule="evenodd" d="m75.4 225.4-10.6-40.3 1.7.2q25.1 4 25.1 8.2v.1q-.3 4.8-16.2 31.8m97.2-31.6-3.7 28.8-19.5-21.3zM62.5 122c21.8 0 39.5-16.1 39.5-36S84.3 50 62.5 50 23 66.1 23 86s17.7 36 39.5 36" fill="white"/><path fill-rule="evenodd" clip-rule="evenodd" d="M121 85c19.9 0 36-15.9 36-35.5A36 36 0 0 0 121 14c-19.9 0-36 16-36 35.5A36 36 0 0 0 121 85" fill="white"/><path fill-rule="evenodd" clip-rule="evenodd" d="M170 115c16 0 29-14.3 29-32s-13-29.5-29-29.5-29 11.8-29 29.5 13 32 29 32" fill="white"/><path fill-rule="evenodd" clip-rule="evenodd" d="M65.2 183.7c7.2-1.4 16.2 1.6 23.5 3h.5c8.8 1.6 17.5 3.4 26.4 4.3q12.8 1.5 25.6 0a82 82 0 0 0 17-3.8h.2c1.3-.5 4.5-2.4 4.5-1.4q1.5-1.6 3.6-2.2c2-.5 4.5 0 6.2 1.4 2.1-1.7 5.3-.5 6.8 1.5 2.4 3.5 1.6 7.6 1.3 11.7v.3l-1.2 11.5-.2 1.6c-.8 5.6-1 14.8-7.8 16.7-5.4 1.4-10.3-4-13.8-8.5l-2-2.4a54 54 0 0 1-8-13.6l-.1-.5q-15.1 2-30.2-.2-9.5-1.2-18.7-3.6l-2.8 5-10 17.4-.2.4c-3.3 5.1-8.7 10.3-15.1 6.4-5.7-3.4-6-11.3-6.6-17.1l-.9-11.8V198c-.1-3.8-.8-8.2.7-11.8.2-.5 1-1 1.4-.4 3 3.7 4 9.5 5.3 14 1.5 5.2 3.6 10.7 4.4 16l.2-.4 2.3-4.2 2.3-4.3 6.4-11.5-7.3-3-5.5-2.2a26 26 0 0 1-8.6-5.2c-.4-.4-.3-1.3.4-1.4m103.7 14q-8.1 3.4-16.7 4.9l1.1 1.1 4.2 4.5.8.9c2.2 2.2 5.5 6 8.9 8l.1-1 .1-.3.4-3.2.1-1.6.8-8.6zM105 13a40 40 0 0 1 39.1 5.4 47 47 0 0 1 17 36c8.9-7.7 21.8-1.9 29.3 5.3a37 37 0 0 1 11 32.5 33 33 0 0 1-22 25.7 31 31 0 0 1-23.6-2.3l.4 1.4c2.7 11.7 4.3 25 .2 36.5-6.7 18.7-30.5 29.1-45.3 12.6a39 39 0 0 1-10-25.6c.2-4.6 2.9-10 8.3-9.7 4.2.3 6.2 3.8 5.1 7.5v.2c-2.3 7.2 1.6 17.5 7.2 22.4 8.7 7.5 20.6 1 25.4-7.8 5.5-10.2 4.8-23.3 3-34.4s-5.5-21-9.6-31l-1.4.2c-8.2 1.1-24.8 1.5-33.8-4.4a40 40 0 0 1-6.1 26.3 34 34 0 0 1-24.7 14.6 87 87 0 0 1-31-.7c-20.7-5-28-30.6-21.7-49 3.7-11 14-20.8 25.5-23.2A34 34 0 0 1 68 47a40 40 0 0 1 27.1 12.9q4 4.5 6.4 9.9a5 5 0 0 1 2-1q1.6-.4 3.2.1a7 7 0 0 1 1.9 1.4l1 1.3c1.4 1.5 2.7 2.9 5.1 3.8a54 54 0 0 0 23 2.8c18.2-1.4 15.9-25.5 11.4-38a33 33 0 0 0-36-21.1 35 35 0 0 0-17.9 9.3c-5.4 5.1-7.8 11.4-11 18-.2.3-.9.2-1-.2C80.6 32.4 93.2 18 105 13M8.1 124c-.5-.7.3-1.8 1-1.3a43 43 0 0 0 19.3 7.6q5 .5 10-.2c2.7-.4 5.2-1.2 8-.5 1.5.4 1.8 2.2.9 3.2-4.2 5-14.6 3.7-20.3 2.4A35 35 0 0 1 8.2 124m195.3-9.2c2.9-1.8 6.2 1.7 4.6 4.5-4.4 7.3-16.9 7.9-24.2 6.1-.5 0-.4-1 .2-1q6.2.3 11.5-2.8c3.1-2 5-5 8-6.8m-139-58-.5.1c-6.7.1-12.8 2.6-19.2 4l-1.5-.1a31 31 0 0 0-14 24.1 34 34 0 0 0 5.8 21.7c5 7 13.2 8 21.2 8.3h.8c15.1.3 31.7-.6 37.1-17.5 4-12.5-.2-27.7-11.4-35.2A33 33 0 0 0 64.4 57m121.8 9-.4-.5c-6-6.8-15.3-13-24.6-9.5v1.7c0 13.1-5 25.4-17.6 29.2q5 7.3 8.2 15.7 1.2-.7 2.8-1c4.4-.4 7 3.7 10.7 5.3 3.6 1.4 7.7 1.8 11.4 1 8.3-1.6 14-8.7 16.1-16.6 2.3-9-.7-18.3-6.6-25.2M60.5 77c2.8-4.6 9.6-4 12.3.1l.1.3a12.6 12.6 0 0 1-4.2 18.4c-5.3 2.6-12 2-15.5-3.2a9 9 0 0 1-1.5-4q0-1.4.2-2.7v.2l.2-1.4c.5-1.9 1.6-4 3-5.3a9 9 0 0 1 5.4-2.4m113.2-4.8q3.7.1 6.4 2.6c2.5 2.3 2.8 5.6 2.3 8.8l-.7 2.8-.2.9v.4l-.7 1.6c-1 4-5.3 5.8-9 5a8 8 0 0 1-5-4.9l-.8-1.7-.3-1.3-.7-2.8q-1-5 2.3-8.8 2.7-2.5 6.4-2.6M120 38.5c4.2-.6 8.5 1.4 10.7 5.2a11 11 0 0 1 0 10.8l-.1.3c-3.5 6-11.7 6.8-16.6 2.1l-.2-.2a10.7 10.7 0 0 1 6.2-18.2" fill="black"/></g><g id="mask-medicalMask-f7d2cf9a"><path fill-rule="evenodd" clip-rule="evenodd" d="M364.8 82.5c-2-24-32-34-47-37-50-11.8-92.5 18.3-152 19-6 0-23.2-1-31.2-3-40.6-9.3-81-19-120.9-31.2-5.8 1.4-7.6 9-3.5 13.4 38 13.5 96.4 25.6 127.2 27a135 135 0 0 1-50.6 101.8c46.1 51 153.7 67.7 217 41 31.1-9.4 64-93 61-131" fill="white"/><path fill-rule="evenodd" clip-rule="evenodd" d="M10.5 31.5c-1.7 0-.7-5 3.1-4.3 49.9 11.6 112 33.8 163.2 33.7 37.7-1.3 71.5-22.3 109.4-22.4 25.5.5 58 4.1 75.8 24.6 23.5 74.5-29.5 176-112.8 176.6l-15.8-1.2c-53.7-4-112.6-10.3-147.2-55.9l-.3.3c-5.2-3.5-5-11-.5-14.9l.1.2.3-.4v-.2q2.6-2.6 5.3-4.9c26-21.6 43-54.4 44-88.3-8.6 2.3-153.3-27.7-127.5-35a624 624 0 0 0 57 16.6A549 549 0 0 0 135 67.6v-3.4C92.8 56 51.5 43.8 10.4 31.5m341.1 30.3c-86.4-43.7-129.3 20.8-212.8 3 8.7 39-12.9 81.1-42.2 106.6 42.6 36.9 61 42.5 117 48.5l7.2.8c11 1.3 22 2.5 33 2.7 57.2-4.1 100.4-63.6 106.8-117.4v-1.5c.4-13.7-.3-28.1-6.3-40.6q-1.7-.6-2.7-2.1M231.3 96c3-.7 6 2.5 4.2 5.4-6 9.2-20.6 12.8-30.8 14.2a71 71 0 0 1-34.6-3.6c-.6-.3-.6-1.3.1-1.2 10.7 1.2 21.7.3 32.1-2.5 10.6-2 19-9 29-12.3m81.2-6.7c0-1.7 8.6 3.3 10 4 10.5 6.3 22.7 6.8 34.3 9.3 2.7 1 2.7 4.5 0 5.5-14.5 3.8-36.5-6.3-44.3-18.8" fill="black"/></g><g id="accessories-glasses2-f7d2cf9a"><path fill-rule="evenodd" clip-rule="evenodd" d="M385.3 155.5a45 45 0 0 1-48.6 9.4c-41.4-17.4-21.1-71.4 10.9-86 4-1 9.3-3.3 14.2-3.8.4-.2 1.4.4 2.5-.2 35.3 4 43.3 58.7 21 80.6m-133.8 3.2a51 51 0 0 1-59.6 15.2c-40.8-16-26.4-64 1.6-82.8 59-22.2 83.4 34.3 58 67.6m-88.5-40h-.2l.7-.4-.2.6zM413.4 99c-3.3 0-8.1.6-10.9 2.9-6.8-23-32-44.2-53.8-28.7a61 61 0 0 0-37.2 34.1c-13-7.8-33.6-4.5-45 5.8-7.4-24.5-25.7-33.1-47.5-34.4-23.7-3.9-47.4 19.2-54.8 37.7-6.1-.7-15.3-2.6-21 1.1-37.6-9.8-103.2-15.2-110.8-9.7-5.4 2-8.4 14.9-.8 15.6 6.6-1-.8-9.4 5.9-10.4 35.5-2.2 70 5 105.1 8 3.2 4.2 13.3 5.6 18.7 4-8.5 31.3 9.9 52.7 37.4 59 42.7 9.9 79.8-28.3 68.7-68a62 62 0 0 1 41.8-2.8c-23.5 86.6 116 82.8 94.2-8.3 14.5 7.2 17.6-4.4 10-5.9" fill="black"/></g><clipPath id="clip-f7d2cf9a"><rect width="704" height="704" rx="0" ry="0"/></clipPath></defs><g clip-path="url(#clip-f7d2cf9a)"><path fill-rule="evenodd" clip-rule="evenodd" d="M705.3 1074a2351 2351 0 0 1-15.6-101c-1-7.7-2.5-16.4 2.7-22 7.3-8 14-14.8 14.8-26.2.8-10.7-2.8-22.4-5-32.8a809 809 0 0 0-17.3-64.7q-10-32.5-21.3-64.6c-6.9-20-13.5-40.3-22.5-59.5-17-36.5-46-63.5-81.6-81.6-9-4.5-27-20.5-36.3-24-8.5-3.4-8.5 6.3-16.9 2.6-6.7-2.9-13-6.7-16.7-13.2-4-7-14.3-16.9-15.9-25-3.3-17.4.3-32.2-12-45.3a90 90 0 0 0-41.1-23.8c-33.7-9.3-78.5-2.8-98.8 28.5-9.7 14.9-13 33-26.2 45.1-11.4 10.7-8.8 18-23.6 23.4-.9.3-23.6-4.5-24.4-4.2-16.2-3.5-31.7 6.2-46.5 11.8a325 325 0 0 0-63 32.3 399 399 0 0 0-102.3 98.5 483 483 0 0 0-76.4 161c-1.7 6.4-3.5 13-1.5 19.4a25 25 0 0 0 9.8 12.4c6 4.3 18 7 17.7 15.7-.1 6.6-2.4 13.5-3.5 20q-1.9 11.6-3.4 23.2a1232 1232 0 0 0-10.3 106.6 920 920 0 0 0-.5 106q.2 3.5 2 6.2c-1 .4-1.2 2.4.1 2.7l2.7.5a12 12 0 0 0 7 2.4l5.5.2c19.3 4 38.6 7.9 58.1 10.8q35.7 5.2 71.5 8.7c49.2 4.8 98 3.2 147.1.6a1877 1877 0 0 1 147.4-2c49.2 1.4 98.4 3.5 147.6 4.4q82.5 1.6 164.8-5c7.5-.5 12.2-6.5 10.7-14-8.9-44.7-19-89.1-27-134" fill="#694d3d"/><path fill-rule="evenodd" clip-rule="evenodd" d="m201 597.5 1.2-.4c14.5-5.7 29.6-14.8 45.4-11.4.5-.2 10.8 1.9 17.9 3.2l-6.7 7L247 598q61 100.7 144.3 100.7T517.7 598l4-1q.7 0 1.5.4c9.3 3.6 27.4 19.6 36.3 24.1 35.6 18 64.5 45 81.6 81.6 8.7 18.6 15.2 38 21.8 57.5l.7 2q11.3 32.1 21.3 64.6 9.6 30.6 16.6 61.8l.7 2.9c2.2 10.4 5.8 22 5 32.8a29 29 0 0 1-3 10.7l-80.4 29 38.4 261.3q-52.7 2.3-105.5 1.3c-49.2-.9-98.4-3-147.6-4.3q-71.5-1.9-143 1.7l-12 .6a946 946 0 0 1-139.5-1l-3.1-.3v-38.3l16.3-212.9-83-15.6-81.3-39.5a22 22 0 0 1-5.6-8.8c-1.9-6-.5-12 1-18l.5-1.3a493 493 0 0 1 76.4-161A399 399 0 0 1 138 629.7q29.8-19.6 63-32.3" fill="#ffcf77"/><path fill-rule="evenodd" clip-rule="evenodd" d="M232.2 584.6c5.1-.3 10.3.6 15.4 1 .4.1.6.8 0 .9q-13.5 3-26.9 7.1l-3.8 1.2c-10 3-19.8 6-29.6 10a264 264 0 0 0-54.8 30.8C67.2 682.8 20 754.3-9.9 828.3a526 526 0 0 0-24.3 77c-.4 1.6-2 5.4-1 7 .7 1.3 3.6 2.1 5 2.9l4.5 2.3 25.2 12.9 2.3 1.1c38 18.6 78.4 34.4 121 35.5l.4-3.7a342 342 0 0 1 9.9-60c.3-1 1.6-.6 1.7.3 3 23.1 2 46.4 1 69.7-1.8 41-4.3 82.2-6.5 123.3l-3.9 61.7c-1.3 20.5-1.7 41.6-4.7 62-.6 4.6-6 7-10 6.6a9 9 0 0 1-8-9c0-11.9 1.5-24 2.4-35.8l2.5-33.8c3.1-41.1 6.8-82.2 10.2-123.3l3.8-43.7C76.4 979.8 34.2 963-6.1 943.5c-.6 13.2-2 26.5-3.4 39.6q-5.8 55.2-9.6 110.5a2254 2254 0 0 0-4.2 92.7l-.2 7c0 4.4-.5 8.5-4.3 11.7a9 9 0 0 1-12.6 0c-5-4.6-4.2-10.9-4-17.1a1676 1676 0 0 1 1.8-47.2 1321 1321 0 0 1 10.5-109.5l2-14a461 461 0 0 1 15.5-77.9q-4.6-2.2-9.3-4.7-8.4-4-16.6-8.4c-4.2-2.5-7.9-5.8-9-10.8-1.4-5.5.6-11.5 2-16.9v-.4a502 502 0 0 1 26.6-80 523 523 0 0 1 67.8-117 354 354 0 0 1 88.7-83.3 239 239 0 0 1 53.8-25.7 143 143 0 0 1 42.8-7.5m90.1-66c6-6.5 18.1.2 15.2 8.8a108 108 0 0 1-34.7 52A79 79 0 0 1 247 598l1.7 2.4a321 321 0 0 0 46.1 52.6c36 31.2 84.8 48 132 36 37.1-9.4 69.8-38.8 79.4-76.2q-2 1-4.8.5c-7.7-1.7-15.3-9.8-20.3-15.6q-8-9.3-12.6-20.7c-5.6-14-7.4-32.1.3-45.7 1-1.7 3-.7 3.3 1l.3 2.5c1.5 12.7 3.3 25 9.3 36.6a76 76 0 0 0 18.2 23.1c2.6 2 5.8 3.6 8.1 6l.5.4c.6-5 4.1-7.3 7.6-7.2a29 29 0 0 1 8.8 2.3l.1.1a341 341 0 0 1 65.1 42 259 259 0 0 1 88.4 129c7.5 25.3 11.8 51.4 16.3 77.4l2.8 16c4.2 23.9 8.9 48.4 18.4 70.7 2.5 5.7.6 11.1-5.5 13.4L688 953c3.7 16 6 32.5 8.7 48.5 6 34.1 13.2 68 19.4 102l9.3 52.3 4.7 25.2 2.4 13.6.1.7c.5 2.4 1 4.9.4 7.3-.8 2.7-2.9 4.6-4.8 6.6-1.6 1.6-3.8 1.6-5.7.7l-.7-.3c-3.4-1.6-6-3.2-7.3-7q-.9-3.8-1.5-7.7l-2.8-14.5-5-29.1-1.6-9.1a1165 1165 0 0 1-12.8-94.5q-1.6-21-3.5-42.2l-.9-10.5c-1.1-13.3-2.5-27-2.7-40.5l-4.5 1.6L657 964c-5.5 2-12.5 6-18.4 5.2q-4.2-.4-6.8-2.9 3 43.1 8.5 86a1966 1966 0 0 0 22 135l1.9 9.6c.5 3.7-.5 5.9-2.5 9-1.7 2.4-5 3.7-7.8 2-3.6-2.3-5.5-4.3-6.5-8.4q-1.4-5.6-2.3-11.4a1654 1654 0 0 1-11.4-65.2Q622 1044.7 618.5 966a1388 1388 0 0 1-1.4-77.8q0-20 1.4-39.9c1-13.4 3-26.5 4.8-39.8 0-.5.7-.5.7 0 .8 14.9 2.1 29.8 2.8 44.7l1.4 42.8q.9 28.1 2.7 56.2a10 10 0 0 1 8.5-3.1c4.7-1 9.7-3.4 14.1-5l16.8-5.5 26.4-8.7a679 679 0 0 1-18-80.8l-2-12.3c-4-24.2-8.5-48.5-15.8-72a230 230 0 0 0-34.8-68.2 370 370 0 0 0-52.7-55.3C557 627 539.7 614 523 600q.2 1.4 0 3a117 117 0 0 1-35.8 67.9c-37.7 36-93.6 43.4-142 26.5-46.7-16.3-88-55-102.6-102.8-.3-.8.8-1 1.3-.5l2.4 3.3q0-.7.7-1a129 129 0 0 0 46.6-29.2 100 100 0 0 0 21.3-33.3l.4-1c1.7-5 3.2-10.2 7-14.2" fill="black"/><use transform="matrix(.99789 0 0 1 6.3 -58)" href="#head-noHair3-f7d2cf9a"/><use transform="translate(351 275)" href="#expression-monster-f7d2cf9a"/><use transform="translate(207.5 331)" href="#mask-medicalMask-f7d2cf9a"/><use transform="translate(190 243)" href="#accessories-glasses2-f7d2cf9a"/></g></svg>