<svg xmlns="http://www.w3.org/2000/svg" viewBox="0 0 64 64" fill="none" shape-rendering="auto" aria-hidden="true"><!-- Generated by DiceBear (https://dicebear.com) --><metadata xmlns:rdf="http://www.w3.org/1999/02/22-rdf-syntax-ns#" xmlns:xsi="http://www.w3.org/2001/XMLSchema-instance" xmlns:dc="http://purl.org/dc/elements/1.1/" xmlns:dcterms="http://purl.org/dc/terms/"><rdf:RDF><rdf:Description><dc:title>Personas by Draftbit</dc:title><dc:creator>Draftbit - draftbit.com</dc:creator><dc:source xsi:type="dcterms:URI">https://personas.draftbit.com/</dc:source><dcterms:license xsi:type="dcterms:URI">https://creativecommons.org/licenses/by/4.0/</dcterms:license><dc:rights>Remix of “Personas by Draftbit” (https://personas.draftbit.com/) by “Draftbit - draftbit.com”, licensed under “CC BY 4.0” (https://creativecommons.org/licenses/by/4.0/)</dc:rights></rdf:Description></rdf:RDF></metadata><defs><g id="eyes-happy-f45f9877"><path d="M6 3.25c1.33 0 2.28.71 2.71 2.01a.75.75 0 0 1-1.42.48c-.26-.7-.65-1-1.3-1-.69.01-1.08.3-1.3 1a.75.75 0 0 1-1.43-.48c.43-1.3 1.38-2 2.7-2.01m12.02 0c1.33 0 2.28.71 2.71 2.01a.75.75 0 0 1-1.42.48c-.23-.7-.62-1-1.3-1-.66.01-1.05.3-1.28 1a.75.75 0 0 1-1.4-.48c.43-1.3 1.38-2 2.7-2.01" fill="#1B0640"/></g><g id="hair-pigtails-f45f9877"><path d="M31.5 9.34a5 5 0 0 1 5.04-4.84 5 5 0 0 1 5.03 5.18c.02 3.2.7 7.08 1.93 9.82a21 21 0 0 1-6.22-2.9 17 17 0 0 1 1.22 6.28v1.38a4.5 4.5 0 0 0-2-.73v-.03q-2.7-3-3.97-7.47-2.8 3.42-8.03 3.97-8.75.91-14.95-2.82A14 14 0 0 0 8.5 22.5v1.03q-1.11.13-2 .73v-1.38c0-2.22.43-4.35 1.22-6.28a21 21 0 0 1-6.22 2.9A27 27 0 0 0 3.42 9.44 5 5 0 0 1 8.46 4.5a5 5 0 0 1 5.04 4.84 15.7 15.7 0 0 1 18 0" fill="#e16381"/><path d="M31.51 9.08c4.2 2.96 6.99 8.19 6.99 14.13v1.05a4.5 4.5 0 0 0-2-.73v-.03q-2.7-3-3.97-7.47-2.8 3.42-8.03 3.97-8.75.91-14.95-2.82A14 14 0 0 0 8.5 22.5v1.03q-1.11.13-2 .73V23.2c0-5.94 2.79-11.17 6.99-14.13v.26a15.7 15.7 0 0 1 18.01 0z" fill="white" opacity=".26" style="mix-blend-mode:overlay"/><path d="M13.5 6.5c1.2 0 2.3.42 3.16 1.13a16 16 0 0 0-7.55 6.27 5 5 0 0 1 4.39-7.4m18 0a5 5 0 0 1 4.39 7.4 16 16 0 0 0-7.55-6.27A5 5 0 0 1 31.5 6.5" fill="#F55D81"/></g><g id="clothes-checkered-f45f9877"><path d="M16 2.8v3a5 5 0 0 0 10 0v-3l6.65 2.05a9 9 0 0 1 6.35 8.6v4.35H3v-4.35a9 9 0 0 1 6.35-8.6z" fill="#456dff"/><path d="m11 4.34-1.65.5A9 9 0 0 0 7 5.97V17.8h4zm4 13.46h4v-5.29a7 7 0 0 1-4-3.1zm8 0h4V9.4a7 7 0 0 1-4 3.11zm8 0h4V5.96l-.06-.04a9 9 0 0 0-2.3-1.07L31 4.35z" fill="black" opacity=".4" style="mix-blend-mode:overlay"/><path d="M3.4 10.8a9 9 0 0 1 2.53-4h8.14a7 7 0 0 0 2.03 4zm35.6 4v3H3v-3zm-2.93-8a9 9 0 0 1 2.53 4H25.9a7 7 0 0 0 2.03-4z" fill="white" opacity=".17" style="mix-blend-mode:lighten"/></g><g id="mouth-surprise-f45f9877"><ellipse cx="5" cy="3.54" rx="2" ry="2.5" fill="#1B0640"/></g><g id="nose-mediumRound-f45f9877"><path d="M3.25.75a.75.75 0 0 1 1.5 0c0 .84.91 1.75 2.25 1.75S9.25 1.6 9.25.75a.75.75 0 1 1 1.5 0C10.75 2.41 9.16 4 7 4S3.25 2.41 3.25.75" fill="black" opacity=".36" style="mix-blend-mode:overlay"/></g><g id="facialHair-shadow-f45f9877"><path opacity=".2" d="M28 .3v4a14 14 0 0 1-28 0V0c2.05 2.94 4.53 6.97 8 8.3q3-1.5 6-1.5t6 1.5c3.47-1.33 5.95-5.36 8-8.3z" fill="#e15c66"/></g><clipPath id="clip-f45f9877"><rect width="64" height="64" rx="0" ry="0"/></clipPath></defs><g clip-path="url(#clip-f45f9877)"><path d="M37 46.08V52a5 5 0 0 1-10 0v-5.92A14 14 0 0 1 18.58 37h-.08a4.5 4.5 0 0 1-.5-8.97V27a14 14 0 1 1 28 0v1.03a4.5 4.5 0 0 1-.58 8.97A14 14 0 0 1 37 46.08" fill="#e7a391"/><mask id="personas-a" style="mask-type:luminance"><path d="M37 46.08V52a5 5 0 0 1-10 0v-5.92A14 14 0 0 1 18.58 37h-.08a4.5 4.5 0 0 1-.5-8.97V27a14 14 0 1 1 28 0v1.03a4.5 4.5 0 0 1-.58 8.97A14 14 0 0 1 37 46.08" fill="white"/></mask><g mask="url(#personas-a)"><path d="M32 13a14 14 0 0 1 14 14v6a14 14 0 1 1-28 0v-6a14 14 0 0 1 14-14" fill="white" opacity=".36" style="mix-blend-mode:overlay"/></g><use transform="translate(20 24)" href="#eyes-happy-f45f9877"/><use transform="translate(9.5 4.5)" href="#hair-pigtails-f45f9877"/><use transform="translate(11 46.2)" href="#clothes-checkered-f45f9877"/><use transform="translate(27 37.46)" href="#mouth-surprise-f45f9877"/><use transform="translate(25 32.25)" href="#nose-mediumRound-f45f9877"/><use transform="translate(18 28.7)" href="#facialHair-shadow-f45f9877"/></g></svg>