<svg xmlns="http://www.w3.org/2000/svg" viewBox="0 0 64 64" fill="none" shape-rendering="auto" aria-hidden="true"><!-- Generated by DiceBear (https://dicebear.com) --><metadata xmlns:rdf="http://www.w3.org/1999/02/22-rdf-syntax-ns#" xmlns:xsi="http://www.w3.org/2001/XMLSchema-instance" xmlns:dc="http://purl.org/dc/elements/1.1/" xmlns:dcterms="http://purl.org/dc/terms/"><rdf:RDF><rdf:Description><dc:title>Personas by Draftbit</dc:title><dc:creator>Draftbit - draftbit.com</dc:creator><dc:source xsi:type="dcterms:URI">https://personas.draftbit.com/</dc:source><dcterms:license xsi:type="dcterms:URI">https://creativecommons.org/licenses/by/4.0/</dcterms:license><dc:rights>Remix of “Personas by Draftbit” (https://personas.draftbit.com/) by “Draftbit - draftbit.com”, licensed under “CC BY 4.0” (https://creativecommons.org/licenses/by/4.0/)</dc:rights></rdf:Description></rdf:RDF></metadata><defs><g id="eyes-wink-71629bd5"><path d="M5.5 3a1.5 1.5 0 1 1 0 3 1.5 1.5 0 0 1 0-3m14.9.26a.75.75 0 0 1 .2 1.48l-4 .5a.75.75 0 0 1-.2-1.48z" fill="#1B0640"/></g><g id="hair-pigtails-71629bd5"><path d="M31.5 9.34a5 5 0 0 1 5.04-4.84 5 5 0 0 1 5.03 5.18c.02 3.2.7 7.08 1.93 9.82a21 21 0 0 1-6.22-2.9 17 17 0 0 1 1.22 6.28v1.38a4.5 4.5 0 0 0-2-.73v-.03q-2.7-3-3.97-7.47-2.8 3.42-8.03 3.97-8.75.91-14.95-2.82A14 14 0 0 0 8.5 22.5v1.03q-1.11.13-2 .73v-1.38c0-2.22.43-4.35 1.22-6.28a21 21 0 0 1-6.22 2.9A27 27 0 0 0 3.42 9.44 5 5 0 0 1 8.46 4.5a5 5 0 0 1 5.04 4.84 15.7 15.7 0 0 1 18 0" fill="#e15c66"/><path d="M31.51 9.08c4.2 2.96 6.99 8.19 6.99 14.13v1.05a4.5 4.5 0 0 0-2-.73v-.03q-2.7-3-3.97-7.47-2.8 3.42-8.03 3.97-8.75.91-14.95-2.82A14 14 0 0 0 8.5 22.5v1.03q-1.11.13-2 .73V23.2c0-5.94 2.79-11.17 6.99-14.13v.26a15.7 15.7 0 0 1 18.01 0z" fill="white" opacity=".26" style="mix-blend-mode:overlay"/><path d="M13.5 6.5c1.2 0 2.3.42 3.16 1.13a16 16 0 0 0-7.55 6.27 5 5 0 0 1 4.39-7.4m18 0a5 5 0 0 1 4.39 7.4 16 16 0 0 0-7.55-6.27A5 5 0 0 1 31.5 6.5" fill="#F55D81"/></g><g id="clothes-small-71629bd5"><path d="M32 17.8H10v-8A11 11 0 0 1 16 0v1.8a5 5 0 0 0 10 0V0a11 11 0 0 1 6 9.8z" fill="#6dbb58"/><mask id="clothesSmall-a" style="mask-type:luminance"><path d="M32 17.8H10v-8A11 11 0 0 1 16 0v1.8a5 5 0 0 0 10 0V0a11 11 0 0 1 6 9.8z" fill="white"/></mask><g mask="url(#clothesSmall-a)"><path opacity=".14" d="M20.62 6.05 22 5.8l1.2.5L10 12.8z" fill="black"/><path d="M21-1.2h11v47H10v-33l13.34-6.58z" fill="white" opacity=".26" style="mix-blend-mode:overlay"/></g></g><g id="mouth-surprise-71629bd5"><ellipse cx="5" cy="3.54" rx="2" ry="2.5" fill="#1B0640"/></g><g id="nose-mediumRound-71629bd5"><path d="M3.25.75a.75.75 0 0 1 1.5 0c0 .84.91 1.75 2.25 1.75S9.25 1.6 9.25.75a.75.75 0 1 1 1.5 0C10.75 2.41 9.16 4 7 4S3.25 2.41 3.25.75" fill="black" opacity=".36" style="mix-blend-mode:overlay"/></g><clipPath id="clip-71629bd5"><rect width="64" height="64" rx="0" ry="0"/></clipPath></defs><g clip-path="url(#clip-71629bd5)"><path d="M37 46.08V52a5 5 0 0 1-10 0v-5.92A14 14 0 0 1 18.58 37h-.08a4.5 4.5 0 0 1-.5-8.97V27a14 14 0 1 1 28 0v1.03a4.5 4.5 0 0 1-.58 8.97A14 14 0 0 1 37 46.08" fill="#e5a07e"/><mask id="personas-a" style="mask-type:luminance"><path d="M37 46.08V52a5 5 0 0 1-10 0v-5.92A14 14 0 0 1 18.58 37h-.08a4.5 4.5 0 0 1-.5-8.97V27a14 14 0 1 1 28 0v1.03a4.5 4.5 0 0 1-.58 8.97A14 14 0 0 1 37 46.08" fill="white"/></mask><g mask="url(#personas-a)"><path d="M32 13a14 14 0 0 1 14 14v6a14 14 0 1 1-28 0v-6a14 14 0 0 1 14-14" fill="white" opacity=".36" style="mix-blend-mode:overlay"/></g><use transform="translate(20 24)" href="#eyes-wink-71629bd5"/><use transform="translate(9.5 4.5)" href="#hair-pigtails-71629bd5"/><use transform="translate(11 46.2)" href="#clothes-small-71629bd5"/><use transform="translate(27 37.46)" href="#mouth-surprise-71629bd5"/><use transform="translate(25 32.25)" href="#nose-mediumRound-71629bd5"/></g></svg>