<svg xmlns="http://www.w3.org/2000/svg" viewBox="0 0 64 64" fill="none" shape-rendering="auto" aria-hidden="true"><!-- Generated by DiceBear (https://dicebear.com) --><metadata xmlns:rdf="http://www.w3.org/1999/02/22-rdf-syntax-ns#" xmlns:xsi="http://www.w3.org/2001/XMLSchema-instance" xmlns:dc="http://purl.org/dc/elements/1.1/" xmlns:dcterms="http://purl.org/dc/terms/"><rdf:RDF><rdf:Description><dc:title>Personas by Draftbit</dc:title><dc:creator>Draftbit - draftbit.com</dc:creator><dc:source xsi:type="dcterms:URI">https://personas.draftbit.com/</dc:source><dcterms:license xsi:type="dcterms:URI">https://creativecommons.org/licenses/by/4.0/</dcterms:license><dc:rights>Remix of “Personas by Draftbit” (https://personas.draftbit.com/) by “Draftbit - draftbit.com”, licensed under “CC BY 4.0” (https://creativecommons.org/licenses/by/4.0/)</dc:rights></rdf:Description></rdf:RDF></metadata><defs><g id="eyes-happy-f35f96e4"><path d="M6 3.25c1.33 0 2.28.71 2.71 2.01a.75.75 0 0 1-1.42.48c-.26-.7-.65-1-1.3-1-.69.01-1.08.3-1.3 1a.75.75 0 0 1-1.43-.48c.43-1.3 1.38-2 2.7-2.01m12.02 0c1.33 0 2.28.71 2.71 2.01a.75.75 0 0 1-1.42.48c-.23-.7-.62-1-1.3-1-.66.01-1.05.3-1.28 1a.75.75 0 0 1-1.4-.48c.43-1.3 1.38-2 2.7-2.01" fill="#1B0640"/></g><g id="hair-buzzcut-f35f96e4"><path d="M36.5 22.5v3q-2-2.5-4-9-4 2-10 2t-10-2q-2 5.5-4 8v-2a14 14 0 1 1 28 0" opacity=".2" style="mix-blend-mode:multiply" fill="#dee1f5"/></g><g id="clothes-rounded-f35f96e4"><path d="M16 4.8v.47a5 5 0 0 0 10 0V4.8c7.06 1.52 12.93 6.74 16 13H0c3.07-6.26 8.94-11.48 16-13" fill="#e24553"/></g><g id="mouth-lips-f35f96e4"><path d="M1 3.54h8s-1 2.5-4 2.5-4-2.5-4-2.5" fill="#DC5C7A"/><path d="M1.39 2.76A2.1 2.1 0 0 1 5 2.54a2.1 2.1 0 0 1 3.61.22l.4.78H1z" fill="#F57B98"/></g><g id="nose-wrinkles-f35f96e4"><path opacity=".12" d="m3.4.8-.12.24q-.32 1.12-.2 1.97-.5.8-.87 1.48Q1.54 5.76.97 7.41a.5.5 0 0 1-.94-.32A21 21 0 0 1 3.39.8m7.2-.02.1.1q1.27 1.8 2 3.14.7 1.35 1.3 3.07a.5.5 0 0 1-.96.32A20 20 0 0 0 10.93 3q.1-.85-.2-1.96a1 1 0 0 0-.14-.26" fill="black"/><path d="M4.2.53a.75.75 0 0 0-.92.51q-.3 1.12-.2 1.97C3.32 4.6 4.69 5.5 7 5.5c2.33 0 3.7-.89 3.92-2.5q.1-.85-.2-1.96a.75.75 0 1 0-1.44.42C9.8 3.29 9.2 4 7 4s-2.8-.71-2.28-2.54a.75.75 0 0 0-.5-.93" fill="black" opacity=".36" style="mix-blend-mode:overlay"/></g><clipPath id="clip-f35f96e4"><rect width="64" height="64" rx="0" ry="0"/></clipPath></defs><g clip-path="url(#clip-f35f96e4)"><path d="M37 46.08V52a5 5 0 0 1-10 0v-5.92A14 14 0 0 1 18.58 37h-.08a4.5 4.5 0 0 1-.5-8.97V27a14 14 0 1 1 28 0v1.03a4.5 4.5 0 0 1-.58 8.97A14 14 0 0 1 37 46.08" fill="#b16a5b"/><mask id="personas-a" style="mask-type:luminance"><path d="M37 46.08V52a5 5 0 0 1-10 0v-5.92A14 14 0 0 1 18.58 37h-.08a4.5 4.5 0 0 1-.5-8.97V27a14 14 0 1 1 28 0v1.03a4.5 4.5 0 0 1-.58 8.97A14 14 0 0 1 37 46.08" fill="white"/></mask><g mask="url(#personas-a)"><path d="M32 13a14 14 0 0 1 14 14v6a14 14 0 1 1-28 0v-6a14 14 0 0 1 14-14" fill="white" opacity=".36" style="mix-blend-mode:overlay"/></g><use transform="translate(20 24)" href="#eyes-happy-f35f96e4"/><use transform="translate(9.5 4.5)" href="#hair-buzzcut-f35f96e4"/><use transform="translate(11 46.2)" href="#clothes-rounded-f35f96e4"/><use transform="translate(27 37.46)" href="#mouth-lips-f35f96e4"/><use transform="translate(25 32.25)" href="#nose-wrinkles-f35f96e4"/></g></svg>