<svg xmlns="http://www.w3.org/2000/svg" viewBox="0 0 64 64" fill="none" shape-rendering="auto" aria-hidden="true"><!-- Generated by DiceBear (https://dicebear.com) --><metadata xmlns:rdf="http://www.w3.org/1999/02/22-rdf-syntax-ns#" xmlns:xsi="http://www.w3.org/2001/XMLSchema-instance" xmlns:dc="http://purl.org/dc/elements/1.1/" xmlns:dcterms="http://purl.org/dc/terms/"><rdf:RDF><rdf:Description><dc:title>Personas by Draftbit</dc:title><dc:creator>Draftbit - draftbit.com</dc:creator><dc:source xsi:type="dcterms:URI">https://personas.draftbit.com/</dc:source><dcterms:license xsi:type="dcterms:URI">https://creativecommons.org/licenses/by/4.0/</dcterms:license><dc:rights>Remix of “Personas by Draftbit” (https://personas.draftbit.com/) by “Draftbit - draftbit.com”, licensed under “CC BY 4.0” (https://creativecommons.org/licenses/by/4.0/)</dc:rights></rdf:Description></rdf:RDF></metadata><defs><g id="eyes-glasses-7462a08e"><path d="M6 3a1.5 1.5 0 1 1 0 3 1.5 1.5 0 0 1 0-3m12 0a1.5 1.5 0 1 1 0 3 1.5 1.5 0 0 1 0-3" fill="#1B0640"/><path d="M9 8H3V2h6zm12 0h-6V2h6z" fill="white" opacity=".3"/><path d="M18 0q2.5 0 5 1.05l1 .53v1.58l-1 .52v3.16A3.1 3.1 0 0 1 20 10h-4c-1.66 0-3-1.41-3-3.16V3.16h-2v3.68A3.1 3.1 0 0 1 8 10H4c-1.66 0-3-1.41-3-3.16V3.68l-1-.52V1.58l1-.53A13 13 0 0 1 6 0c2.5 0 3.5 1.05 5 1.05h2c1.5 0 2.5-1.05 5-1.05M6 2.1q-1.5 0-3 .45v4.3c0 .57.45 1.04 1 1.04h4c.55 0 1-.47 1-1.05V2.8l-.76-.27A6 6 0 0 0 6 2.11m12 0c-.82 0-1.4.13-2.24.42L15 2.8v4.05c0 .58.45 1.05 1 1.05h4c.55 0 1-.47 1-1.05v-4.3q-1.5-.44-3-.44" fill="#1B0640"/></g><g id="hair-cap-7462a08e"><path opacity=".2" d="M22.5 14.5c3.88 0 7.55-.37 11 4.22l-1.9 6.5c-.61 1.22-1.64 1.55-2.46.79Q26 23.15 22.5 23.15T15.86 26c-.82.76-1.85.43-2.46-.8l-1.9-6.49c3.45-4.6 7.12-4.22 11-4.22" fill="black"/><path d="M19.8 8.7a3 3 0 0 1 5.4 0c6.1.96 10.82 5.24 11.3 12.72a28 28 0 0 0-3.96-1.3l-.94.6a2 2 0 0 1-2.46.46 13.9 13.9 0 0 0-13.28 0 2 2 0 0 1-2.46-.46l-.94-.6q-2.1.52-3.96 1.3c.48-7.48 5.2-11.76 11.3-12.71" fill="#F29C65"/><path d="M12.46 20.12q-2.1.52-3.96 1.3c.55-8.55 6.63-12.92 14-12.92s13.45 4.37 14 12.92a28 28 0 0 0-3.96-1.3l.96-.62q-5.18-4-11-4t-11 4z" fill="black" opacity=".28" style="mix-blend-mode:overlay"/><path d="m31.95 20.5-.35.22a2 2 0 0 1-2.46.46 13.9 13.9 0 0 0-13.28 0 2 2 0 0 1-2.46-.46l-.35-.23c.87.07 2.19-.47 2.8-.81a13.9 13.9 0 0 1 13.29 0c.62.34 1.94.88 2.8.81" fill="white" opacity=".2" style="mix-blend-mode:lighten"/></g><g id="clothes-small-7462a08e"><path d="M32 17.8H10v-8A11 11 0 0 1 16 0v1.8a5 5 0 0 0 10 0V0a11 11 0 0 1 6 9.8z" fill="#f55d81"/><mask id="clothesSmall-a" style="mask-type:luminance"><path d="M32 17.8H10v-8A11 11 0 0 1 16 0v1.8a5 5 0 0 0 10 0V0a11 11 0 0 1 6 9.8z" fill="white"/></mask><g mask="url(#clothesSmall-a)"><path opacity=".14" d="M20.62 6.05 22 5.8l1.2.5L10 12.8z" fill="black"/><path d="M21-1.2h11v47H10v-33l13.34-6.58z" fill="white" opacity=".26" style="mix-blend-mode:overlay"/></g></g><g id="mouth-frown-7462a08e"><path d="M1 2.67A1 1 0 0 0 2 4.4a6 6 0 0 1 3-.86 6 6 0 0 1 3 .86 1 1 0 0 0 1-1.73 8 8 0 0 0-4-1.13 8 8 0 0 0-4 1.13" fill="#1B0640"/></g><g id="nose-smallRound-7462a08e"><path d="M4.29 1.99A.75.75 0 1 1 5.7 1.5c.23.7.62 1 1.3 1 .66 0 1.05-.3 1.28-1A.75.75 0 0 1 9.7 2c-.4 1.29-1.36 2-2.69 2S4.72 3.3 4.3 2" fill="black" opacity=".36" style="mix-blend-mode:overlay"/></g><clipPath id="clip-7462a08e"><rect width="64" height="64" rx="0" ry="0"/></clipPath></defs><g clip-path="url(#clip-7462a08e)"><path d="M37 46.08V52a5 5 0 0 1-10 0v-5.92A14 14 0 0 1 18.58 37h-.08a4.5 4.5 0 0 1-.5-8.97V27a14 14 0 1 1 28 0v1.03a4.5 4.5 0 0 1-.58 8.97A14 14 0 0 1 37 46.08" fill="#eeb4a4"/><mask id="personas-a" style="mask-type:luminance"><path d="M37 46.08V52a5 5 0 0 1-10 0v-5.92A14 14 0 0 1 18.58 37h-.08a4.5 4.5 0 0 1-.5-8.97V27a14 14 0 1 1 28 0v1.03a4.5 4.5 0 0 1-.58 8.97A14 14 0 0 1 37 46.08" fill="white"/></mask><g mask="url(#personas-a)"><path d="M32 13a14 14 0 0 1 14 14v6a14 14 0 1 1-28 0v-6a14 14 0 0 1 14-14" fill="white" opacity=".36" style="mix-blend-mode:overlay"/></g><use transform="translate(20 24)" href="#eyes-glasses-7462a08e"/><use transform="translate(9.5 4.5)" href="#hair-cap-7462a08e"/><use transform="translate(11 46.2)" href="#clothes-small-7462a08e"/><use transform="translate(27 37.46)" href="#mouth-frown-7462a08e"/><use transform="translate(25 32.25)" href="#nose-smallRound-7462a08e"/></g></svg>