<svg xmlns="http://www.w3.org/2000/svg" viewBox="0 0 64 64" fill="none" shape-rendering="auto" aria-hidden="true"><!-- Generated by DiceBear (https://dicebear.com) --><metadata xmlns:rdf="http://www.w3.org/1999/02/22-rdf-syntax-ns#" xmlns:xsi="http://www.w3.org/2001/XMLSchema-instance" xmlns:dc="http://purl.org/dc/elements/1.1/" xmlns:dcterms="http://purl.org/dc/terms/"><rdf:RDF><rdf:Description><dc:title>Personas by Draftbit</dc:title><dc:creator>Draftbit - draftbit.com</dc:creator><dc:source xsi:type="dcterms:URI">https://personas.draftbit.com/</dc:source><dcterms:license xsi:type="dcterms:URI">https://creativecommons.org/licenses/by/4.0/</dcterms:license><dc:rights>Remix of “Personas by Draftbit” (https://personas.draftbit.com/) by “Draftbit - draftbit.com”, licensed under “CC BY 4.0” (https://creativecommons.org/licenses/by/4.0/)</dc:rights></rdf:Description></rdf:RDF></metadata><defs><g id="eyes-wink-73629efb"><path d="M5.5 3a1.5 1.5 0 1 1 0 3 1.5 1.5 0 0 1 0-3m14.9.26a.75.75 0 0 1 .2 1.48l-4 .5a.75.75 0 0 1-.2-1.48z" fill="#1B0640"/></g><g id="hair-bald-73629efb"><path d="M16.75 12.38a.75.75 0 0 1 .76 1.29q-1.5.9-2.62 2.2-1.14 1.35-2 3.07a.75.75 0 1 1-1.35-.67 17 17 0 0 1 2.2-3.37q1.3-1.5 3-2.52M19.25 11a.75.75 0 1 1 0 1.5.75.75 0 0 1 0-1.5" fill="white" opacity=".2" style="mix-blend-mode:overlay"/></g><g id="clothes-checkered-73629efb"><path d="M16 2.8v3a5 5 0 0 0 10 0v-3l6.65 2.05a9 9 0 0 1 6.35 8.6v4.35H3v-4.35a9 9 0 0 1 6.35-8.6z" fill="#e24553"/><path d="m11 4.34-1.65.5A9 9 0 0 0 7 5.97V17.8h4zm4 13.46h4v-5.29a7 7 0 0 1-4-3.1zm8 0h4V9.4a7 7 0 0 1-4 3.11zm8 0h4V5.96l-.06-.04a9 9 0 0 0-2.3-1.07L31 4.35z" fill="black" opacity=".4" style="mix-blend-mode:overlay"/><path d="M3.4 10.8a9 9 0 0 1 2.53-4h8.14a7 7 0 0 0 2.03 4zm35.6 4v3H3v-3zm-2.93-8a9 9 0 0 1 2.53 4H25.9a7 7 0 0 0 2.03-4z" fill="white" opacity=".17" style="mix-blend-mode:lighten"/></g><g id="mouth-lips-73629efb"><path d="M1 3.54h8s-1 2.5-4 2.5-4-2.5-4-2.5" fill="#DC5C7A"/><path d="M1.39 2.76A2.1 2.1 0 0 1 5 2.54a2.1 2.1 0 0 1 3.61.22l.4.78H1z" fill="#F57B98"/></g><g id="nose-mediumRound-73629efb"><path d="M3.25.75a.75.75 0 0 1 1.5 0c0 .84.91 1.75 2.25 1.75S9.25 1.6 9.25.75a.75.75 0 1 1 1.5 0C10.75 2.41 9.16 4 7 4S3.25 2.41 3.25.75" fill="black" opacity=".36" style="mix-blend-mode:overlay"/></g><clipPath id="clip-73629efb"><rect width="64" height="64" rx="0" ry="0"/></clipPath></defs><g clip-path="url(#clip-73629efb)"><path d="M37 46.08V52a5 5 0 0 1-10 0v-5.92A14 14 0 0 1 18.58 37h-.08a4.5 4.5 0 0 1-.5-8.97V27a14 14 0 1 1 28 0v1.03a4.5 4.5 0 0 1-.58 8.97A14 14 0 0 1 37 46.08" fill="#e5a07e"/><mask id="personas-a" style="mask-type:luminance"><path d="M37 46.08V52a5 5 0 0 1-10 0v-5.92A14 14 0 0 1 18.58 37h-.08a4.5 4.5 0 0 1-.5-8.97V27a14 14 0 1 1 28 0v1.03a4.5 4.5 0 0 1-.58 8.97A14 14 0 0 1 37 46.08" fill="white"/></mask><g mask="url(#personas-a)"><path d="M32 13a14 14 0 0 1 14 14v6a14 14 0 1 1-28 0v-6a14 14 0 0 1 14-14" fill="white" opacity=".36" style="mix-blend-mode:overlay"/></g><use transform="translate(20 24)" href="#eyes-wink-73629efb"/><use transform="translate(9.5 4.5)" href="#hair-bald-73629efb"/><use transform="translate(11 46.2)" href="#clothes-checkered-73629efb"/><use transform="translate(27 37.46)" href="#mouth-lips-73629efb"/><use transform="translate(25 32.25)" href="#nose-mediumRound-73629efb"/></g></svg>