<svg xmlns="http://www.w3.org/2000/svg" viewBox="0 0 64 64" fill="none" shape-rendering="auto" aria-hidden="true"><!-- Generated by DiceBear (https://dicebear.com) --><metadata xmlns:rdf="http://www.w3.org/1999/02/22-rdf-syntax-ns#" xmlns:xsi="http://www.w3.org/2001/XMLSchema-instance" xmlns:dc="http://purl.org/dc/elements/1.1/" xmlns:dcterms="http://purl.org/dc/terms/"><rdf:RDF><rdf:Description><dc:title>Personas by Draftbit</dc:title><dc:creator>Draftbit - draftbit.com</dc:creator><dc:source xsi:type="dcterms:URI">https://personas.draftbit.com/</dc:source><dcterms:license xsi:type="dcterms:URI">https://creativecommons.org/licenses/by/4.0/</dcterms:license><dc:rights>Remix of “Personas by Draftbit” (https://personas.draftbit.com/) by “Draftbit - draftbit.com”, licensed under “CC BY 4.0” (https://creativecommons.org/licenses/by/4.0/)</dc:rights></rdf:Description></rdf:RDF></metadata><defs><g id="eyes-open-70629a42"><path d="M5.5 3a1.5 1.5 0 1 1 0 3 1.5 1.5 0 0 1 0-3m13 0a1.5 1.5 0 1 1 0 3 1.5 1.5 0 0 1 0-3" fill="#1B0640"/></g><g id="hair-shortComboverChops-70629a42"><path d="m8.3 23.06-.72-6.6a9 9 0 0 1 8.95-9.96H33.5q0 1.94-.74 3.63a7.9 7.9 0 0 1 4.6 8.35l-.86 6.02v4.22a14 14 0 0 1-.48 3.42l-2.52.54a1 1 0 0 1-1.19-1.18l1.9-9.12q-2.36-3.14-3.31-9.44a9.2 9.2 0 0 1-5.7 2.77q-2.73.3-4.7.3-4.5 0-8-1.5 0 3.9-2 7.54l1.98 9.48a1 1 0 0 1-1.2 1.18l-2.5-.55a14 14 0 0 1-.49-3.42z" fill="#e16381"/><path d="M33.5 6.5a9.24 9.24 0 0 1-8.3 9.21 46 46 0 0 1-4.7.29q-4.5 0-8-1.5 0 3.9-2 7.52l1.98 9.48a1 1 0 0 1-1.2 1.18l-2.5-.54a14 14 0 0 1-.49-3.42v-5.66l-.7-6.6a9 9 0 0 1 8.94-9.96zm1.47 5.1a7.9 7.9 0 0 1 2.39 6.88l-.86 6.02v4.22a14 14 0 0 1-.48 3.42l-2.52.54a1 1 0 0 1-1.19-1.18l1.9-9.12a17 17 0 0 1-2.7-6.27 9.3 9.3 0 0 0 3.46-4.5" fill="white" opacity=".26" style="mix-blend-mode:overlay"/></g><g id="clothes-small-70629a42"><path d="M32 17.8H10v-8A11 11 0 0 1 16 0v1.8a5 5 0 0 0 10 0V0a11 11 0 0 1 6 9.8z" fill="#6dbb58"/><mask id="clothesSmall-a" style="mask-type:luminance"><path d="M32 17.8H10v-8A11 11 0 0 1 16 0v1.8a5 5 0 0 0 10 0V0a11 11 0 0 1 6 9.8z" fill="white"/></mask><g mask="url(#clothesSmall-a)"><path opacity=".14" d="M20.62 6.05 22 5.8l1.2.5L10 12.8z" fill="black"/><path d="M21-1.2h11v47H10v-33l13.34-6.58z" fill="white" opacity=".26" style="mix-blend-mode:overlay"/></g></g><g id="mouth-smile-70629a42"><path d="M1 4.4a1 1 0 1 1 1-1.73 6 6 0 0 0 3 .87 6 6 0 0 0 3-.87A1 1 0 1 1 9 4.4a8 8 0 0 1-4 1.14A8 8 0 0 1 1 4.4" fill="#1B0640"/></g><g id="nose-wrinkles-70629a42"><path opacity=".12" d="m3.4.8-.12.24q-.32 1.12-.2 1.97-.5.8-.87 1.48Q1.54 5.76.97 7.41a.5.5 0 0 1-.94-.32A21 21 0 0 1 3.39.8m7.2-.02.1.1q1.27 1.8 2 3.14.7 1.35 1.3 3.07a.5.5 0 0 1-.96.32A20 20 0 0 0 10.93 3q.1-.85-.2-1.96a1 1 0 0 0-.14-.26" fill="black"/><path d="M4.2.53a.75.75 0 0 0-.92.51q-.3 1.12-.2 1.97C3.32 4.6 4.69 5.5 7 5.5c2.33 0 3.7-.89 3.92-2.5q.1-.85-.2-1.96a.75.75 0 1 0-1.44.42C9.8 3.29 9.2 4 7 4s-2.8-.71-2.28-2.54a.75.75 0 0 0-.5-.93" fill="black" opacity=".36" style="mix-blend-mode:overlay"/></g><g id="facialHair-pyramid-70629a42"><path d="M14.02 9.35a2.7 2.7 0 0 1-3.19 1.59l-5.08-1.3a1 1 0 0 1-.07-1.92l5.23-1.8a2.5 2.5 0 0 1 3.1 1.38 2.5 2.5 0 0 1 3.11-1.37l5.24 1.79a1 1 0 0 1-.08 1.9l-5.08 1.3a2.7 2.7 0 0 1-3.18-1.57" fill="#e16381"/></g><clipPath id="clip-70629a42"><rect width="64" height="64" rx="0" ry="0"/></clipPath></defs><g clip-path="url(#clip-70629a42)"><path d="M37 46.08V52a5 5 0 0 1-10 0v-5.92A14 14 0 0 1 18.58 37h-.08a4.5 4.5 0 0 1-.5-8.97V27a14 14 0 1 1 28 0v1.03a4.5 4.5 0 0 1-.58 8.97A14 14 0 0 1 37 46.08" fill="#d78774"/><mask id="personas-a" style="mask-type:luminance"><path d="M37 46.08V52a5 5 0 0 1-10 0v-5.92A14 14 0 0 1 18.58 37h-.08a4.5 4.5 0 0 1-.5-8.97V27a14 14 0 1 1 28 0v1.03a4.5 4.5 0 0 1-.58 8.97A14 14 0 0 1 37 46.08" fill="white"/></mask><g mask="url(#personas-a)"><path d="M32 13a14 14 0 0 1 14 14v6a14 14 0 1 1-28 0v-6a14 14 0 0 1 14-14" fill="white" opacity=".36" style="mix-blend-mode:overlay"/></g><use transform="translate(20 24)" href="#eyes-open-70629a42"/><use transform="translate(9.5 4.5)" href="#hair-shortComboverChops-70629a42"/><use transform="translate(11 46.2)" href="#clothes-small-70629a42"/><use transform="translate(27 37.46)" href="#mouth-smile-70629a42"/><use transform="translate(25 32.25)" href="#nose-wrinkles-70629a42"/><use transform="translate(18 28.7)" href="#facialHair-pyramid-70629a42"/></g></svg>