<svg xmlns="http://www.w3.org/2000/svg" viewBox="0 0 64 64" fill="none" shape-rendering="auto" aria-hidden="true"><!-- Generated by DiceBear (https://dicebear.com) --><metadata xmlns:rdf="http://www.w3.org/1999/02/22-rdf-syntax-ns#" xmlns:xsi="http://www.w3.org/2001/XMLSchema-instance" xmlns:dc="http://purl.org/dc/elements/1.1/" xmlns:dcterms="http://purl.org/dc/terms/"><rdf:RDF><rdf:Description><dc:title>Personas by Draftbit</dc:title><dc:creator>Draftbit - draftbit.com</dc:creator><dc:source xsi:type="dcterms:URI">https://personas.draftbit.com/</dc:source><dcterms:license xsi:type="dcterms:URI">https://creativecommons.org/licenses/by/4.0/</dcterms:license><dc:rights>Remix of “Personas by Draftbit” (https://personas.draftbit.com/) by “Draftbit - draftbit.com”, licensed under “CC BY 4.0” (https://creativecommons.org/licenses/by/4.0/)</dc:rights></rdf:Description></rdf:RDF></metadata><defs><g id="eyes-sunglasses-6567061f"><path d="M6 3a1.5 1.5 0 1 1 0 3 1.5 1.5 0 0 1 0-3m12 0a1.5 1.5 0 1 1 0 3 1.5 1.5 0 0 1 0-3" fill="#1B0640"/><path d="M9 8H3V2h6zm12 0h-6V2h6z" fill="#1B0640" opacity=".8"/><path d="M18 0q2.5 0 5 1.05l1 .53v1.58l-1 .52v3.16A3.1 3.1 0 0 1 20 10h-4c-1.66 0-3-1.41-3-3.16V3.16h-2v3.68A3.1 3.1 0 0 1 8 10H4c-1.66 0-3-1.41-3-3.16V3.68l-1-.52V1.58l1-.53A13 13 0 0 1 6 0c2.5 0 3.5 1.05 5 1.05h2c1.5 0 2.5-1.05 5-1.05M6 2.1q-1.5 0-3 .45v4.3c0 .57.45 1.04 1 1.04h4c.55 0 1-.47 1-1.05V2.8l-.76-.27A6 6 0 0 0 6 2.11m12 0c-.82 0-1.4.13-2.24.42L15 2.8v4.05c0 .58.45 1.05 1 1.05h4c.55 0 1-.47 1-1.05v-4.3q-1.5-.44-3-.44" fill="#1B0640"/></g><g id="hair-curlyHighTop-6567061f"><path d="M24.3 4.5a2 2 0 0 1 3.8 0h.57a2 2 0 0 1 3.83.67l.22.1a2 2 0 0 1 3.13 2.3l.15.17a2 2 0 0 1 2.4 1.96 2 2 0 0 1-.62 1.45l.11.47a2 2 0 0 1 .02 3.75l-.05.32a2 2 0 0 1-.02 3.63 2 2 0 0 1 .16.85q.39.47.4 1.13c0 .93-.71 1.7-1.62 1.8L36.5 25q-.66-1-1.2-2.46a2 2 0 0 1-.45-.8 2 2 0 0 1-.56-2.68l-.02-.1a2 2 0 0 1-.96-2.94 2 2 0 0 1-2.44-.32 2 2 0 0 1-3.72.06l-.31.03a2 2 0 0 1-3.58.2h-.23a2 2 0 0 1-3.52-.1l-.4-.02a2 2 0 0 1-3.68-.17 2 2 0 0 1-3.04-.22l-.03.16a2 2 0 0 1-.7 3.35 2 2 0 0 1-1.4 3.07q-.75 1.46-1.76 2.9l-.2-1.92a1.8 1.8 0 0 1-.33-3.47v-.12a2 2 0 0 1-.4-3.9v-.14a2 2 0 0 1 .07-3.92q0-.1.04-.17A2 2 0 0 1 9.14 7.7 2 2 0 0 1 11 5a2 2 0 0 1 1.2.4v-.1a2 2 0 0 1 3.84-.8h.05a2 2 0 0 1 3.82 0h.18a2 2 0 0 1 3.82 0z" fill="#6c4545"/><mask id="hairCurlyHighTop-a" style="mask-type:luminance"><path d="M24.3 4.5a2 2 0 0 1 3.8 0h.57a2 2 0 0 1 3.83.67l.22.1a2 2 0 0 1 3.13 2.3l.15.17a2 2 0 0 1 2.4 1.96 2 2 0 0 1-.62 1.45l.11.47a2 2 0 0 1 .02 3.75l-.05.32a2 2 0 0 1-.02 3.63 2 2 0 0 1 .16.85q.39.47.4 1.13c0 .93-.71 1.7-1.62 1.8L36.5 25q-.66-1-1.2-2.46a2 2 0 0 1-.45-.8 2 2 0 0 1-.56-2.68l-.02-.1a2 2 0 0 1-.96-2.94 2 2 0 0 1-2.44-.32 2 2 0 0 1-3.72.06l-.31.03a2 2 0 0 1-3.58.2h-.23a2 2 0 0 1-3.52-.1l-.4-.02a2 2 0 0 1-3.68-.17 2 2 0 0 1-3.04-.22l-.03.16a2 2 0 0 1-.7 3.35 2 2 0 0 1-1.4 3.07q-.75 1.46-1.76 2.9l-.2-1.92a1.8 1.8 0 0 1-.33-3.47v-.12a2 2 0 0 1-.4-3.9v-.14a2 2 0 0 1 .07-3.92q0-.1.04-.17A2 2 0 0 1 9.14 7.7 2 2 0 0 1 11 5a2 2 0 0 1 1.2.4v-.1a2 2 0 0 1 3.84-.8h.05a2 2 0 0 1 3.82 0h.18a2 2 0 0 1 3.82 0z" fill="white"/></mask><g mask="url(#hairCurlyHighTop-a)"><rect x="5.5" y="2.5" width="34" height="23" fill="white" opacity=".26" style="mix-blend-mode:overlay"/></g></g><g id="clothes-checkered-6567061f"><path d="M16 2.8v3a5 5 0 0 0 10 0v-3l6.65 2.05a9 9 0 0 1 6.35 8.6v4.35H3v-4.35a9 9 0 0 1 6.35-8.6z" fill="#7555ca"/><path d="m11 4.34-1.65.5A9 9 0 0 0 7 5.97V17.8h4zm4 13.46h4v-5.29a7 7 0 0 1-4-3.1zm8 0h4V9.4a7 7 0 0 1-4 3.11zm8 0h4V5.96l-.06-.04a9 9 0 0 0-2.3-1.07L31 4.35z" fill="black" opacity=".4" style="mix-blend-mode:overlay"/><path d="M3.4 10.8a9 9 0 0 1 2.53-4h8.14a7 7 0 0 0 2.03 4zm35.6 4v3H3v-3zm-2.93-8a9 9 0 0 1 2.53 4H25.9a7 7 0 0 0 2.03-4z" fill="white" opacity=".17" style="mix-blend-mode:lighten"/></g><g id="mouth-pacifier-6567061f"><path fill-rule="evenodd" clip-rule="evenodd" d="M2.04 0q.35 0 .69.12a6.6 6.6 0 0 0 4.54 0A2.04 2.04 0 0 1 10 2.02c0 1.4-.82 2.61-2 3.18a3 3 0 0 1-6 0 3.5 3.5 0 0 1-2-3.17C0 .9.91 0 2.04 0m1.55 5.53a1.5 1.5 0 0 0 2.82 0z" fill="#456DFF"/><path d="M5 3.53a1.5 1.5 0 0 1 1.42 2H3.58a1.5 1.5 0 0 1 1.42-2M2.04 0q.35 0 .69.12a6.6 6.6 0 0 0 4.54 0A2.04 2.04 0 0 1 10 2.02c0 1.4-.82 2.61-2 3.18v-.17a3 3 0 1 0-6 .17 3.5 3.5 0 0 1-2-3.17C0 .9.91 0 2.04 0" fill="white" fill-opacity=".3" style="mix-blend-mode:lighten"/><circle cx="5" cy="3.04" r="1.5" fill="white"/></g><g id="nose-smallRound-6567061f"><path d="M4.29 1.99A.75.75 0 1 1 5.7 1.5c.23.7.62 1 1.3 1 .66 0 1.05-.3 1.28-1A.75.75 0 0 1 9.7 2c-.4 1.29-1.36 2-2.69 2S4.72 3.3 4.3 2" fill="black" opacity=".36" style="mix-blend-mode:overlay"/></g><g id="facialHair-pyramid-6567061f"><path d="M14.02 9.35a2.7 2.7 0 0 1-3.19 1.59l-5.08-1.3a1 1 0 0 1-.07-1.92l5.23-1.8a2.5 2.5 0 0 1 3.1 1.38 2.5 2.5 0 0 1 3.11-1.37l5.24 1.79a1 1 0 0 1-.08 1.9l-5.08 1.3a2.7 2.7 0 0 1-3.18-1.57" fill="#e16381"/></g><clipPath id="clip-6567061f"><rect width="64" height="64" rx="0" ry="0"/></clipPath></defs><g clip-path="url(#clip-6567061f)"><path d="M37 46.08V52a5 5 0 0 1-10 0v-5.92A14 14 0 0 1 18.58 37h-.08a4.5 4.5 0 0 1-.5-8.97V27a14 14 0 1 1 28 0v1.03a4.5 4.5 0 0 1-.58 8.97A14 14 0 0 1 37 46.08" fill="#e7a391"/><mask id="personas-a" style="mask-type:luminance"><path d="M37 46.08V52a5 5 0 0 1-10 0v-5.92A14 14 0 0 1 18.58 37h-.08a4.5 4.5 0 0 1-.5-8.97V27a14 14 0 1 1 28 0v1.03a4.5 4.5 0 0 1-.58 8.97A14 14 0 0 1 37 46.08" fill="white"/></mask><g mask="url(#personas-a)"><path d="M32 13a14 14 0 0 1 14 14v6a14 14 0 1 1-28 0v-6a14 14 0 0 1 14-14" fill="white" opacity=".36" style="mix-blend-mode:overlay"/></g><use transform="translate(20 24)" href="#eyes-sunglasses-6567061f"/><use transform="translate(9.5 4.5)" href="#hair-curlyHighTop-6567061f"/><use transform="translate(11 46.2)" href="#clothes-checkered-6567061f"/><use transform="translate(27 37.46)" href="#mouth-pacifier-6567061f"/><use transform="translate(25 32.25)" href="#nose-smallRound-6567061f"/><use transform="translate(18 28.7)" href="#facialHair-pyramid-6567061f"/></g></svg>