<svg xmlns="http://www.w3.org/2000/svg" viewBox="0 0 64 64" fill="none" shape-rendering="auto" aria-hidden="true"><!-- Generated by DiceBear (https://dicebear.com) --><metadata xmlns:rdf="http://www.w3.org/1999/02/22-rdf-syntax-ns#" xmlns:xsi="http://www.w3.org/2001/XMLSchema-instance" xmlns:dc="http://purl.org/dc/elements/1.1/" xmlns:dcterms="http://purl.org/dc/terms/"><rdf:RDF><rdf:Description><dc:title>Personas by Draftbit</dc:title><dc:creator>Draftbit - draftbit.com</dc:creator><dc:source xsi:type="dcterms:URI">https://personas.draftbit.com/</dc:source><dcterms:license xsi:type="dcterms:URI">https://creativecommons.org/licenses/by/4.0/</dcterms:license><dc:rights>Remix of “Personas by Draftbit” (https://personas.draftbit.com/) by “Draftbit - draftbit.com”, licensed under “CC BY 4.0” (https://creativecommons.org/licenses/by/4.0/)</dc:rights></rdf:Description></rdf:RDF></metadata><defs><g id="eyes-glasses-ec5f8bdf"><path d="M6 3a1.5 1.5 0 1 1 0 3 1.5 1.5 0 0 1 0-3m12 0a1.5 1.5 0 1 1 0 3 1.5 1.5 0 0 1 0-3" fill="#1B0640"/><path d="M9 8H3V2h6zm12 0h-6V2h6z" fill="white" opacity=".3"/><path d="M18 0q2.5 0 5 1.05l1 .53v1.58l-1 .52v3.16A3.1 3.1 0 0 1 20 10h-4c-1.66 0-3-1.41-3-3.16V3.16h-2v3.68A3.1 3.1 0 0 1 8 10H4c-1.66 0-3-1.41-3-3.16V3.68l-1-.52V1.58l1-.53A13 13 0 0 1 6 0c2.5 0 3.5 1.05 5 1.05h2c1.5 0 2.5-1.05 5-1.05M6 2.1q-1.5 0-3 .45v4.3c0 .57.45 1.04 1 1.04h4c.55 0 1-.47 1-1.05V2.8l-.76-.27A6 6 0 0 0 6 2.11m12 0c-.82 0-1.4.13-2.24.42L15 2.8v4.05c0 .58.45 1.05 1 1.05h4c.55 0 1-.47 1-1.05v-4.3q-1.5-.44-3-.44" fill="#1B0640"/></g><linearGradient id="hairFade-a" x1="8.5" y1="10.1" x2="8.5" y2="24.5" gradientUnits="userSpaceOnUse"><stop/><stop offset="1" stop-opacity=".01"/></linearGradient><g id="hair-fade-ec5f8bdf"><mask id="hairFade-b" style="mask-type:alpha"><path d="M16 10.1c.08 1.73.18 3.4-.4 4.67-.86 1.93-2.3 2.81-3.34 3.73-.7.61-2.44 2.49-3.76 6v-2A14 14 0 0 1 16 10.1m13 0a14 14 0 0 1 7.5 12.4v2c-1.32-3.51-3.06-5.39-3.76-6-1.05-.92-2.48-1.8-3.35-3.73-.57-1.27-.47-2.94-.4-4.67" fill="url(#hairFade-a)"/></mask><g mask="url(#hairFade-b)"><path d="m16 10.1.06 14.4H8.5l-.2-14.4zm20.5 14.4h-7.28L29 10.1h7.43z" fill="#f29c65"/></g><path d="M14.8 15.45c0-3.6 2.72-6.63 6.3-7l9.4-.95a6.84 6.84 0 0 1-6.49 9h-8.14c-.58 0-1.05-.47-1.05-1.05" fill="#f29c65"/></g><g id="clothes-rounded-ec5f8bdf"><path d="M16 4.8v.47a5 5 0 0 0 10 0V4.8c7.06 1.52 12.93 6.74 16 13H0c3.07-6.26 8.94-11.48 16-13" fill="#e24553"/></g><g id="mouth-lips-ec5f8bdf"><path d="M1 3.54h8s-1 2.5-4 2.5-4-2.5-4-2.5" fill="#DC5C7A"/><path d="M1.39 2.76A2.1 2.1 0 0 1 5 2.54a2.1 2.1 0 0 1 3.61.22l.4.78H1z" fill="#F57B98"/></g><g id="nose-mediumRound-ec5f8bdf"><path d="M3.25.75a.75.75 0 0 1 1.5 0c0 .84.91 1.75 2.25 1.75S9.25 1.6 9.25.75a.75.75 0 1 1 1.5 0C10.75 2.41 9.16 4 7 4S3.25 2.41 3.25.75" fill="black" opacity=".36" style="mix-blend-mode:overlay"/></g><clipPath id="clip-ec5f8bdf"><rect width="64" height="64" rx="0" ry="0"/></clipPath></defs><g clip-path="url(#clip-ec5f8bdf)"><path d="M37 46.08V52a5 5 0 0 1-10 0v-5.92A14 14 0 0 1 18.58 37h-.08a4.5 4.5 0 0 1-.5-8.97V27a14 14 0 1 1 28 0v1.03a4.5 4.5 0 0 1-.58 8.97A14 14 0 0 1 37 46.08" fill="#e7a391"/><mask id="personas-a" style="mask-type:luminance"><path d="M37 46.08V52a5 5 0 0 1-10 0v-5.92A14 14 0 0 1 18.58 37h-.08a4.5 4.5 0 0 1-.5-8.97V27a14 14 0 1 1 28 0v1.03a4.5 4.5 0 0 1-.58 8.97A14 14 0 0 1 37 46.08" fill="white"/></mask><g mask="url(#personas-a)"><path d="M32 13a14 14 0 0 1 14 14v6a14 14 0 1 1-28 0v-6a14 14 0 0 1 14-14" fill="white" opacity=".36" style="mix-blend-mode:overlay"/></g><use transform="translate(20 24)" href="#eyes-glasses-ec5f8bdf"/><use transform="translate(9.5 4.5)" href="#hair-fade-ec5f8bdf"/><use transform="translate(11 46.2)" href="#clothes-rounded-ec5f8bdf"/><use transform="translate(27 37.46)" href="#mouth-lips-ec5f8bdf"/><use transform="translate(25 32.25)" href="#nose-mediumRound-ec5f8bdf"/></g></svg>