<svg xmlns="http://www.w3.org/2000/svg" viewBox="0 0 64 64" fill="none" shape-rendering="auto" aria-hidden="true"><!-- Generated by DiceBear (https://dicebear.com) --><metadata xmlns:rdf="http://www.w3.org/1999/02/22-rdf-syntax-ns#" xmlns:xsi="http://www.w3.org/2001/XMLSchema-instance" xmlns:dc="http://purl.org/dc/elements/1.1/" xmlns:dcterms="http://purl.org/dc/terms/"><rdf:RDF><rdf:Description><dc:title>Personas by Draftbit</dc:title><dc:creator>Draftbit - draftbit.com</dc:creator><dc:source xsi:type="dcterms:URI">https://personas.draftbit.com/</dc:source><dcterms:license xsi:type="dcterms:URI">https://creativecommons.org/licenses/by/4.0/</dcterms:license><dc:rights>Remix of “Personas by Draftbit” (https://personas.draftbit.com/) by “Draftbit - draftbit.com”, licensed under “CC BY 4.0” (https://creativecommons.org/licenses/by/4.0/)</dc:rights></rdf:Description></rdf:RDF></metadata><defs><g id="eyes-open-7862a6da"><path d="M5.5 3a1.5 1.5 0 1 1 0 3 1.5 1.5 0 0 1 0-3m13 0a1.5 1.5 0 1 1 0 3 1.5 1.5 0 0 1 0-3" fill="#1B0640"/></g><g id="hair-bobCut-7862a6da"><path fill-rule="evenodd" clip-rule="evenodd" d="M36.5 23.5a18 18 0 0 1-3.35-5.6 33 33 0 0 1-10.65 1.63q-7.27 0-12.9-2.5a14 14 0 0 0-1.1 5.47v1.03q-1.11.13-2 .73v-1.38c0-9.05 7.16-16.38 16-16.38s16 7.33 16 16.38v1.38a4.5 4.5 0 0 0-2-.73zm-9 20.06v-1.98a14 14 0 0 0 8.42-9.08H36q1.4-.02 2.5-.76v6.38q0 .71-.06 1.41a35 35 0 0 1-10.94 4.03M6.56 39.53a35 35 0 0 0 10.94 4.03v-1.98a14 14 0 0 1-8.42-9.08H9q-1.4-.02-2.5-.76v6.38q0 .71.06 1.41" fill="#362c47"/><path d="M22.5 6.5c-8.84 0-16 7.33-16 16.38v1.38q.89-.6 2-.73V22.5c0-1.94.4-3.8 1.1-5.47a31 31 0 0 0 12.9 2.5q5.86 0 10.65-1.62a18 18 0 0 0 3.35 5.59v.03q1.11.13 2 .73v-1.38c0-9.05-7.16-16.38-16-16.38" fill="white" opacity=".26" style="mix-blend-mode:overlay"/></g><g id="clothes-rounded-7862a6da"><path d="M16 4.8v.47a5 5 0 0 0 10 0V4.8c7.06 1.52 12.93 6.74 16 13H0c3.07-6.26 8.94-11.48 16-13" fill="#54d7c7"/></g><g id="mouth-pacifier-7862a6da"><path fill-rule="evenodd" clip-rule="evenodd" d="M2.04 0q.35 0 .69.12a6.6 6.6 0 0 0 4.54 0A2.04 2.04 0 0 1 10 2.02c0 1.4-.82 2.61-2 3.18a3 3 0 0 1-6 0 3.5 3.5 0 0 1-2-3.17C0 .9.91 0 2.04 0m1.55 5.53a1.5 1.5 0 0 0 2.82 0z" fill="#456DFF"/><path d="M5 3.53a1.5 1.5 0 0 1 1.42 2H3.58a1.5 1.5 0 0 1 1.42-2M2.04 0q.35 0 .69.12a6.6 6.6 0 0 0 4.54 0A2.04 2.04 0 0 1 10 2.02c0 1.4-.82 2.61-2 3.18v-.17a3 3 0 1 0-6 .17 3.5 3.5 0 0 1-2-3.17C0 .9.91 0 2.04 0" fill="white" fill-opacity=".3" style="mix-blend-mode:lighten"/><circle cx="5" cy="3.04" r="1.5" fill="white"/></g><g id="nose-smallRound-7862a6da"><path d="M4.29 1.99A.75.75 0 1 1 5.7 1.5c.23.7.62 1 1.3 1 .66 0 1.05-.3 1.28-1A.75.75 0 0 1 9.7 2c-.4 1.29-1.36 2-2.69 2S4.72 3.3 4.3 2" fill="black" opacity=".36" style="mix-blend-mode:overlay"/></g><clipPath id="clip-7862a6da"><rect width="64" height="64" rx="0" ry="0"/></clipPath></defs><g clip-path="url(#clip-7862a6da)"><path d="M37 46.08V52a5 5 0 0 1-10 0v-5.92A14 14 0 0 1 18.58 37h-.08a4.5 4.5 0 0 1-.5-8.97V27a14 14 0 1 1 28 0v1.03a4.5 4.5 0 0 1-.58 8.97A14 14 0 0 1 37 46.08" fill="#eeb4a4"/><mask id="personas-a" style="mask-type:luminance"><path d="M37 46.08V52a5 5 0 0 1-10 0v-5.92A14 14 0 0 1 18.58 37h-.08a4.5 4.5 0 0 1-.5-8.97V27a14 14 0 1 1 28 0v1.03a4.5 4.5 0 0 1-.58 8.97A14 14 0 0 1 37 46.08" fill="white"/></mask><g mask="url(#personas-a)"><path d="M32 13a14 14 0 0 1 14 14v6a14 14 0 1 1-28 0v-6a14 14 0 0 1 14-14" fill="white" opacity=".36" style="mix-blend-mode:overlay"/></g><use transform="translate(20 24)" href="#eyes-open-7862a6da"/><use transform="translate(9.5 4.5)" href="#hair-bobCut-7862a6da"/><use transform="translate(11 46.2)" href="#clothes-rounded-7862a6da"/><use transform="translate(27 37.46)" href="#mouth-pacifier-7862a6da"/><use transform="translate(25 32.25)" href="#nose-smallRound-7862a6da"/></g></svg>